<svg id="visual" viewBox="0 0 960 540" width="960" height="540" xmlns="http://www.w3.org/2000/svg" xmlns:xlink="http://www.w3.org/1999/xlink" version="1.1"><rect x="0" y="0" width="960" height="540" fill="#d5ba7d"></rect><defs><linearGradient id="grad1_0" x1="43.8%" y1="100%" x2="100%" y2="0%"><stop offset="14.444444444444446%" stop-color="#d5ba7d" stop-opacity="1"></stop><stop offset="85.55555555555554%" stop-color="#d5ba7d" stop-opacity="1"></stop></linearGradient></defs><defs><linearGradient id="grad2_0" x1="0%" y1="100%" x2="56.3%" y2="0%"><stop offset="14.444444444444446%" stop-color="#d5ba7d" stop-opacity="1"></stop><stop offset="85.55555555555554%" stop-color="#d5ba7d" stop-opacity="1"></stop></linearGradient></defs><g transform="translate(960, 540)"><path d="M-351 0C-318.7 -26.5 -286.3 -53 -281.5 -91.5C-276.7 -130 -299.3 -180.5 -284 -206.3C-268.6 -232.1 -215.2 -233.2 -179.9 -247.6C-144.6 -261.9 -127.4 -289.6 -100.4 -309.1C-73.5 -328.6 -36.7 -339.8 0 -351L0 0Z" fill="#009bff"></path></g><g transform="translate(0, 0)"><path d="M351 0C361.1 45.4 371.1 90.8 333.8 108.5C296.5 126.1 211.9 116.1 171.5 124.6C131.1 133.1 134.9 160.3 124.6 171.5C114.3 182.8 89.9 178.2 66.7 205.4C43.6 232.7 21.8 291.8 0 351L0 0Z" fill="#009bff"></path></g></svg>