<svg id="visual" viewBox="0 0 960 540" width="960" height="540" xmlns="http://www.w3.org/2000/svg" xmlns:xlink="http://www.w3.org/1999/xlink" version="1.1"><rect x="0" y="0" width="960" height="540" fill="#FFFFFF"></rect><defs><linearGradient id="grad1_0" x1="43.8%" y1="0%" x2="100%" y2="100%"><stop offset="14.444444444444446%" stop-color="#4facf7" stop-opacity="1"></stop><stop offset="85.55555555555554%" stop-color="#4facf7" stop-opacity="1"></stop></linearGradient></defs><defs><linearGradient id="grad1_1" x1="43.8%" y1="0%" x2="100%" y2="100%"><stop offset="14.444444444444446%" stop-color="#4facf7" stop-opacity="1"></stop><stop offset="85.55555555555554%" stop-color="#88c0f9" stop-opacity="1"></stop></linearGradient></defs><defs><linearGradient id="grad1_2" x1="43.8%" y1="0%" x2="100%" y2="100%"><stop offset="14.444444444444446%" stop-color="#b4d4fc" stop-opacity="1"></stop><stop offset="85.55555555555554%" stop-color="#88c0f9" stop-opacity="1"></stop></linearGradient></defs><defs><linearGradient id="grad1_3" x1="43.8%" y1="0%" x2="100%" y2="100%"><stop offset="14.444444444444446%" stop-color="#b4d4fc" stop-opacity="1"></stop><stop offset="85.55555555555554%" stop-color="#dbe9fd" stop-opacity="1"></stop></linearGradient></defs><defs><linearGradient id="grad1_4" x1="43.8%" y1="0%" x2="100%" y2="100%"><stop offset="14.444444444444446%" stop-color="#ffffff" stop-opacity="1"></stop><stop offset="85.55555555555554%" stop-color="#dbe9fd" stop-opacity="1"></stop></linearGradient></defs><defs><linearGradient id="grad2_0" x1="0%" y1="0%" x2="56.3%" y2="100%"><stop offset="14.444444444444446%" stop-color="#4facf7" stop-opacity="1"></stop><stop offset="85.55555555555554%" stop-color="#4facf7" stop-opacity="1"></stop></linearGradient></defs><defs><linearGradient id="grad2_1" x1="0%" y1="0%" x2="56.3%" y2="100%"><stop offset="14.444444444444446%" stop-color="#88c0f9" stop-opacity="1"></stop><stop offset="85.55555555555554%" stop-color="#4facf7" stop-opacity="1"></stop></linearGradient></defs><defs><linearGradient id="grad2_2" x1="0%" y1="0%" x2="56.3%" y2="100%"><stop offset="14.444444444444446%" stop-color="#88c0f9" stop-opacity="1"></stop><stop offset="85.55555555555554%" stop-color="#b4d4fc" stop-opacity="1"></stop></linearGradient></defs><defs><linearGradient id="grad2_3" x1="0%" y1="0%" x2="56.3%" y2="100%"><stop offset="14.444444444444446%" stop-color="#dbe9fd" stop-opacity="1"></stop><stop offset="85.55555555555554%" stop-color="#b4d4fc" stop-opacity="1"></stop></linearGradient></defs><defs><linearGradient id="grad2_4" x1="0%" y1="0%" x2="56.3%" y2="100%"><stop offset="14.444444444444446%" stop-color="#dbe9fd" stop-opacity="1"></stop><stop offset="85.55555555555554%" stop-color="#ffffff" stop-opacity="1"></stop></linearGradient></defs><g transform="translate(960, 0)"><path d="M0 324C-26.5 313.5 -52.9 303 -78.4 292.7C-103.9 282.3 -128.5 272.1 -147.5 255.5C-166.5 238.8 -179.8 215.7 -198 198C-216.1 180.3 -239.1 168.1 -260.7 150.5C-282.3 132.9 -302.6 109.8 -313 83.9C-323.3 57.9 -323.6 28.9 -324 0L0 0Z" fill="#edf4fe"></path><path d="M0 259.2C-21.2 250.8 -42.3 242.4 -62.7 234.1C-83.2 225.9 -102.8 217.7 -118 204.4C-133.2 191 -143.9 172.5 -158.4 158.4C-172.9 144.3 -191.2 134.5 -208.5 120.4C-225.8 106.3 -242.1 87.9 -250.4 67.1C-258.6 46.3 -258.9 23.1 -259.2 0L0 0Z" fill="#c8dffd"></path><path d="M0 194.4C-15.9 188.1 -31.7 181.8 -47.1 175.6C-62.4 169.4 -77.1 163.3 -88.5 153.3C-99.9 143.3 -107.9 129.4 -118.8 118.8C-129.7 108.2 -143.4 100.9 -156.4 90.3C-169.4 79.7 -181.6 65.9 -187.8 50.3C-194 34.7 -194.2 17.4 -194.4 0L0 0Z" fill="#9fcafb"></path><path d="M0 129.6C-10.6 125.4 -21.2 121.2 -31.4 117.1C-41.6 112.9 -51.4 108.9 -59 102.2C-66.6 95.5 -71.9 86.3 -79.2 79.2C-86.5 72.1 -95.6 67.2 -104.3 60.2C-112.9 53.2 -121 43.9 -125.2 33.5C-129.3 23.1 -129.5 11.6 -129.6 0L0 0Z" fill="#6fb6f8"></path><path d="M0 64.8C-5.3 62.7 -10.6 60.6 -15.7 58.5C-20.8 56.5 -25.7 54.4 -29.5 51.1C-33.3 47.8 -36 43.1 -39.6 39.6C-43.2 36.1 -47.8 33.6 -52.1 30.1C-56.5 26.6 -60.5 22 -62.6 16.8C-64.7 11.6 -64.7 5.8 -64.8 0L0 0Z" fill="#4facf7"></path></g><g transform="translate(0, 540)"><path d="M0 -324C22.2 -300.7 44.5 -277.4 73.5 -274.3C102.5 -271.3 138.3 -288.5 162 -280.6C185.7 -272.7 197.3 -239.6 216.4 -216.4C235.4 -193.1 261.9 -179.8 272.8 -157.5C283.7 -135.2 279 -104.1 284.9 -76.4C290.9 -48.6 307.4 -24.3 324 0L0 0Z" fill="#edf4fe"></path><path d="M0 -259.2C17.8 -240.5 35.6 -221.9 58.8 -219.5C82 -217 110.6 -230.8 129.6 -224.5C148.6 -218.1 157.9 -191.7 173.1 -173.1C188.3 -154.5 209.5 -143.8 218.2 -126C227 -108.2 223.2 -83.3 228 -61.1C232.7 -38.9 246 -19.4 259.2 0L0 0Z" fill="#c8dffd"></path><path d="M0 -194.4C13.3 -180.4 26.7 -166.4 44.1 -164.6C61.5 -162.8 83 -173.1 97.2 -168.4C111.4 -163.6 118.4 -143.8 129.8 -129.8C141.3 -115.9 157.1 -107.9 163.7 -94.5C170.2 -81.1 167.4 -62.4 171 -45.8C174.5 -29.2 184.5 -14.6 194.4 0L0 0Z" fill="#9fcafb"></path><path d="M0 -129.6C8.9 -120.3 17.8 -110.9 29.4 -109.7C41 -108.5 55.3 -115.4 64.8 -112.2C74.3 -109.1 78.9 -95.8 86.5 -86.5C94.2 -77.3 104.8 -71.9 109.1 -63C113.5 -54.1 111.6 -41.6 114 -30.5C116.4 -19.4 123 -9.7 129.6 0L0 0Z" fill="#6fb6f8"></path><path d="M0 -64.8C4.4 -60.1 8.9 -55.5 14.7 -54.9C20.5 -54.3 27.7 -57.7 32.4 -56.1C37.1 -54.5 39.5 -47.9 43.3 -43.3C47.1 -38.6 52.4 -36 54.6 -31.5C56.7 -27 55.8 -20.8 57 -15.3C58.2 -9.7 61.5 -4.9 64.8 0L0 0Z" fill="#4facf7"></path></g></svg>