<svg id="visual" viewBox="0 0 960 540" width="960" height="540" xmlns="http://www.w3.org/2000/svg" xmlns:xlink="http://www.w3.org/1999/xlink" version="1.1"><g transform="translate(-186.59065911474113 595.2332681975959)"><path d="M267.1 -448.4C400.9 -385.4 601.9 -424.5 726 -366.7C850.2 -309 897.6 -154.5 873.5 -13.9C849.4 126.7 753.8 253.3 628 308.3C502.3 363.3 346.4 346.6 236.7 322.7C127 298.7 63.5 267.5 -39.8 336.5C-143.2 405.5 -286.3 574.7 -367.3 582.1C-448.3 589.4 -467.1 435 -484.5 311C-501.9 187 -517.9 93.5 -495.1 13.2C-472.3 -67.2 -410.7 -134.3 -363.9 -207.5C-317.2 -280.7 -285.3 -359.9 -227.2 -466.5C-169 -573 -84.5 -707 -8.9 -691.6C66.7 -676.1 133.3 -511.3 267.1 -448.4" fill="none" stroke="#9194C9" stroke-width="6"></path></g></svg>