<svg id="visual" viewBox="0 0 960 540" width="960" height="540" xmlns="http://www.w3.org/2000/svg" xmlns:xlink="http://www.w3.org/1999/xlink" version="1.1"><g transform="translate(-68.87328058656249 565.3307195324821)"><path d="M303.6 -499.1C363.5 -491.2 361.4 -349.4 458 -243.8C554.6 -138.3 749.8 -69.2 737 -7.4C724.1 54.3 503.2 108.7 386.3 179C269.4 249.3 256.4 335.5 209.4 419.5C162.3 503.5 81.2 585.3 20.9 549.1C-39.4 512.9 -78.8 358.7 -140.4 283.2C-202 207.6 -285.9 210.5 -363.2 176.4C-440.5 142.3 -511.3 71.2 -554.3 -24.8C-597.3 -120.8 -612.6 -241.7 -588.3 -367.7C-564.1 -493.7 -500.3 -624.9 -395.6 -606.9C-291 -589 -145.5 -422 -11.8 -401.5C121.8 -381 243.7 -507 303.6 -499.1" fill="none" stroke="#FCFABA" stroke-width="6"></path></g></svg>