<svg version="1.1" id="Layer_1" xmlns="http://www.w3.org/2000/svg" xmlns:xlink="http://www.w3.org/1999/xlink" x="0px" y="0px"
	 width="100%" viewBox="0 0 3386 1638" enable-background="new 0 0 3386 1638" xml:space="preserve">
<path fill="transparent" opacity="1.000000" stroke="none" 
	d="
M3171.799072,2.919650 
	C3243.991211,2.000000 3315.982178,2.000000 3387.979980,2.000000 
	C3387.986816,547.923889 3387.986816,1093.847778 3387.986816,1639.885864 
	C2259.548340,1639.885864 1131.096802,1639.885864 2.322635,1639.885864 
	C2.322635,1094.000122 2.322635,548.000122 2.322635,2.000000 
	C75.477051,2.000000 148.801208,2.000000 223.062683,2.000000 
	C224.128036,2.627851 224.256058,3.255702 223.727234,4.585396 
	C217.366226,8.544796 210.931091,8.510820 204.692535,9.439189 
	C128.619553,20.759710 69.838722,57.439041 34.215775,127.093353 
	C21.444620,152.065063 15.369020,179.197845 15.358426,207.223907 
	C15.203970,615.870789 14.627676,1024.519409 15.774635,1433.163086 
	C16.008823,1516.600830 61.443390,1574.471436 134.514709,1611.169556 
	C165.944870,1626.954590 199.855682,1632.900391 235.212601,1632.893799 
	C1212.165283,1632.710571 2189.118164,1632.822632 3166.070801,1632.587769 
	C3235.665527,1632.571045 3293.692383,1605.345825 3338.314453,1551.543091 
	C3366.535645,1517.515869 3380.772461,1478.065430 3380.768555,1433.605347 
	C3380.732178,1025.958374 3380.821777,618.311401 3380.682617,210.664490 
	C3380.655518,131.236145 3341.263672,75.026627 3274.563721,36.087646 
	C3248.065186,20.617817 3218.977783,12.075869 3188.390625,8.886544 
	C3183.697998,8.397242 3179.011963,7.728684 3173.702637,5.669756 
	C3172.449951,4.760936 3172.023926,4.300117 3171.799072,2.919650 
z"/>
<path fill="transparent" opacity="1.000000" stroke="none" 
	d="
M224.524704,4.370340 
	C223.858704,3.620536 223.802170,2.799179 223.901093,2.399590 
	C1022.041809,2.000000 1820.083618,2.000000 2619.062744,2.000000 
	C2620.106689,2.667591 2620.212402,3.335281 2619.570068,4.686936 
	C2615.481934,7.244627 2611.791260,7.251665 2608.127441,7.354437 
	C2604.463135,7.457228 2600.796631,7.413513 2597.131104,7.413520 
	C1813.685303,7.415061 1030.239624,7.418526 246.793823,7.356609 
	C239.561188,7.356038 232.092529,8.702088 224.524704,4.370340 
z"/>
<path fill="transparent" opacity="1.000000" stroke="none" 
	d="
M3171.062744,2.000000 
	C3172.000000,2.000000 3172.218262,2.785750 3172.182129,3.191886 
	C3167.381104,8.752901 3161.031250,7.315064 3155.230225,7.327105 
	C3094.308105,7.453556 3033.385742,7.402194 2972.463379,7.402873 
	C2867.264160,7.404045 2762.064697,7.413139 2656.865479,7.378714 
	C2650.894775,7.376760 2644.865723,7.930771 2638.075195,5.813378 
	C2636.663086,4.921954 2636.167969,4.461712 2635.836426,3.000735 
	C2814.041748,2.000000 2992.083740,2.000000 3171.062744,2.000000 
z"/>
<path fill="#8D90C3" opacity="1.000000" stroke="none" 
	d="
M2635.111816,2.000000 
	C2636.000000,2.000000 2636.073242,2.673178 2636.041016,3.010205 
	C2631.634521,8.285446 2626.574951,7.360007 2620.705078,4.292118 
	C2620.055176,3.523981 2620.009033,2.762658 2620.004395,2.381329 
	C2624.741211,2.000000 2629.482178,2.000000 2635.111816,2.000000 
z"/>
<path fill="#1C171C" opacity="1.000000" stroke="none" 
	d="
M2619.127930,3.725220 
	C2624.783936,3.510053 2629.512695,3.496125 2635.125000,3.414714 
	C2639.925781,4.533274 2643.948975,3.973574 2647.919434,3.974377 
	C2804.070312,4.005968 2960.220947,3.998576 3116.371826,4.004855 
	C3134.350342,4.005578 3152.328613,4.056096 3171.226562,3.840775 
	C3215.556885,6.165303 3256.074707,17.996559 3292.369385,42.347965 
	C3338.590576,73.359268 3369.250732,115.382210 3381.054199,170.354752 
	C3384.222900,185.112320 3384.636230,200.082062 3384.635254,215.097412 
	C3384.620605,418.415802 3384.625732,621.734192 3384.625488,825.052612 
	C3384.625488,1026.037842 3384.442139,1227.023315 3384.761230,1428.008057 
	C3384.834961,1474.459229 3371.564941,1515.958496 3342.785645,1552.258789 
	C3309.162109,1594.668945 3265.002686,1620.259888 3212.471924,1631.896973 
	C3192.528809,1636.315063 3172.265625,1637.458008 3151.890869,1637.457275 
	C2592.598633,1637.437256 2033.306396,1637.441650 1474.014160,1637.441528 
	C1063.377686,1637.441406 652.741211,1637.416992 242.104706,1637.480469 
	C203.590668,1637.486328 166.475403,1631.113647 131.727371,1614.019409 
	C76.504417,1586.852417 37.537048,1545.247681 19.417479,1485.570190 
	C14.652105,1469.875244 12.205615,1453.775635 12.021091,1437.354370 
	C11.983640,1434.021484 11.957502,1430.688477 11.957479,1427.355469 
	C11.954748,1022.718567 12.026360,618.081604 11.838014,213.444778 
	C11.820340,175.475067 20.274977,140.114044 40.390366,107.924202 
	C71.135956,58.723270 115.647896,27.919130 171.004166,12.174273 
	C187.709564,7.422792 204.833679,4.880137 223.017883,3.747024 
	C231.503036,3.747436 239.147354,3.985316 246.791687,3.985479 
	C1032.929565,4.002316 1819.067383,4.001355 2605.205322,3.998148 
	C2609.537109,3.998131 2613.869141,3.951384 2619.127930,3.725220 
z"/>
<path fill="#9093C8" opacity="1.000000" stroke="none" 
	d="
M503.310486,1201.916748 
	C500.456818,1197.600098 496.063934,1197.320679 492.538177,1195.698853 
	C449.902557,1176.088135 420.340363,1145.223511 408.659760,1098.806763 
	C404.068848,1080.563232 402.886536,1061.927124 402.859283,1043.283203 
	C402.681000,921.296936 402.696045,799.310181 402.844086,677.323853 
	C402.866730,658.665161 404.164032,640.032776 408.663635,621.794983 
	C417.647430,585.381592 438.586792,557.692871 469.882446,537.396545 
	C537.109558,493.797363 628.238770,502.809814 683.432678,558.583435 
	C706.720154,582.115479 717.941284,611.048340 722.070740,643.326416 
	C724.407227,661.589172 724.071594,679.914124 723.847900,698.227844 
	C723.595276,718.905334 710.609680,731.699524 689.820984,731.959900 
	C672.492310,732.177063 655.156799,732.166260 637.827820,731.961243 
	C616.979370,731.714600 604.391785,719.009827 603.774170,698.254211 
	C603.378540,684.959167 604.919006,671.609802 602.365417,658.369934 
	C598.371704,637.662781 582.921997,624.848145 562.285706,625.357239 
	C542.788635,625.838135 526.558899,640.908875 524.161011,661.006653 
	C523.610413,665.621765 523.635132,670.322388 523.634155,674.983704 
	C523.608215,798.636719 523.604492,922.289734 523.639465,1045.942749 
	C523.641357,1052.586548 523.515869,1059.227417 525.422913,1065.770386 
	C530.614502,1083.582886 547.021240,1096.242676 564.555481,1095.682007 
	C582.818604,1095.097900 598.470215,1081.414062 602.226440,1062.787720 
	C603.217163,1057.875000 603.811768,1052.950684 603.798645,1047.915527 
	C603.732605,1022.585205 603.841492,997.254333 603.750000,971.924072 
	C603.684509,953.781738 598.471252,945.663269 581.587708,939.354736 
	C565.765076,933.442688 558.433716,922.271973 558.399780,905.791870 
	C558.362732,887.793945 558.171387,869.792297 558.457520,851.798889 
	C558.718567,835.385437 566.712097,823.928528 580.240906,819.206177 
	C584.765991,817.626587 589.410828,817.595520 594.061890,817.589172 
	C625.391785,817.546631 656.734802,818.124207 688.047180,817.383057 
	C711.648560,816.824402 724.230347,834.216736 724.111389,853.440735 
	C723.653381,927.429749 723.928772,1001.423279 723.932678,1075.415161 
	C723.933411,1089.079956 723.943298,1102.744751 723.979858,1117.366699 
	C723.253418,1123.417725 718.610168,1123.906006 715.147949,1125.170044 
	C647.556641,1149.852051 580.416870,1175.750977 512.745605,1200.214966 
	C509.939514,1201.229248 507.129120,1202.374878 503.310486,1201.916748 
z"/>
<path fill="#9093C8" opacity="1.000000" stroke="none" 
	d="
M3047.131104,882.952209 
	C3062.991943,904.273438 3069.336670,928.235718 3071.893311,953.413208 
	C3075.505127,988.979492 3074.527100,1024.689209 3073.436279,1060.294922 
	C3072.451904,1092.431763 3064.492676,1122.960693 3044.156250,1148.962769 
	C3019.234131,1180.828125 2986.055420,1199.839844 2946.888916,1207.361328 
	C2895.908203,1217.151611 2848.887695,1206.671265 2807.227051,1174.968994 
	C2779.166504,1153.615845 2762.726074,1125.093384 2756.083740,1090.670654 
	C2750.478271,1061.619385 2751.828369,1032.238037 2752.427246,1002.963989 
	C2752.769043,986.245483 2766.530762,972.953247 2783.665527,972.299744 
	C2803.298096,971.550964 2823.002441,971.561096 2842.636230,972.294556 
	C2859.366699,972.919556 2871.619141,986.083862 2872.183594,1002.997314 
	C2872.639160,1016.647217 2872.385254,1030.322266 2872.359619,1043.985962 
	C2872.349121,1049.663208 2872.715820,1055.282593 2873.529297,1060.911011 
	C2876.604248,1082.181885 2892.531982,1096.317383 2912.916260,1095.692993 
	C2933.432129,1095.064331 2950.684814,1079.407471 2951.885986,1058.576782 
	C2952.958984,1039.972656 2952.325684,1021.268982 2952.401123,1002.609009 
	C2952.441650,992.582581 2951.556152,982.640564 2949.183350,972.876099 
	C2946.025879,959.881592 2939.345215,948.979919 2929.664551,939.784607 
	C2922.613037,933.086487 2914.704834,927.568848 2906.589844,922.310791 
	C2883.382080,907.274048 2860.086426,892.371643 2836.949707,877.226501 
	C2822.162598,867.546814 2808.005371,857.053467 2795.071045,844.893799 
	C2772.436768,823.615479 2760.525391,797.018372 2756.165527,766.846497 
	C2750.132324,725.092102 2749.795654,683.033569 2754.461914,641.251282 
	C2760.958252,583.080444 2794.043945,543.709839 2847.574219,522.778564 
	C2911.945801,497.608368 2971.945801,507.708252 3025.383545,551.856628 
	C3050.875732,572.917603 3064.337891,601.215332 3069.886719,633.451538 
	C3074.035156,657.552185 3073.979004,681.916870 3073.207764,706.215820 
	C3072.569580,726.322937 3058.585693,739.689880 3038.546631,740.132019 
	C3020.559082,740.528931 3002.548584,740.505066 2984.560547,740.107666 
	C2967.565186,739.732178 2955.920166,729.036438 2953.376709,712.148010 
	C2951.530762,699.890991 2952.920410,687.526489 2952.523438,675.217468 
	C2952.309082,668.570984 2952.657959,661.898865 2950.931641,655.352234 
	C2945.931885,636.390625 2930.725342,624.820068 2911.332275,625.339111 
	C2892.815918,625.834656 2877.082031,639.329834 2873.958984,658.174622 
	C2871.000732,676.026917 2872.099365,694.060364 2873.063477,712.015137 
	C2873.562256,721.309509 2874.842041,730.525024 2877.457520,739.569275 
	C2881.483887,753.492188 2889.059082,764.848572 2900.239746,773.989563 
	C2912.408691,783.938538 2925.961914,791.828796 2939.028076,800.444031 
	C2961.278076,815.114685 2984.077393,828.955322 3005.723877,844.538208 
	C3020.922119,855.479309 3035.265137,867.354492 3047.131104,882.952209 
z"/>
<path fill="#9093C8" opacity="1.000000" stroke="none" 
	d="
M2582.000000,515.746216 
	C2610.663818,515.746338 2638.327881,515.741272 2665.991699,515.753601 
	C2669.323730,515.755066 2672.666748,515.693359 2675.985596,515.929382 
	C2692.759521,517.122620 2705.437988,529.506470 2705.937012,546.360657 
	C2706.489014,565.008057 2706.423340,583.692993 2705.964600,602.345215 
	C2705.580078,617.968506 2695.445312,629.251709 2680.265869,632.528320 
	C2675.988525,633.451660 2671.694824,633.633972 2667.352783,633.629333 
	C2645.021729,633.605591 2622.690430,633.550110 2600.359619,633.646118 
	C2583.354980,633.719177 2576.519775,640.347046 2576.469482,657.162537 
	C2576.350098,697.158142 2576.342041,737.154663 2576.474365,777.150208 
	C2576.528320,793.461609 2583.416748,800.213013 2599.677979,800.329651 
	C2616.342041,800.449219 2633.007812,800.356018 2649.672852,800.367249 
	C2652.338623,800.369019 2655.017334,800.269775 2657.667725,800.489319 
	C2676.414795,802.041504 2688.722656,813.909424 2689.464600,832.679993 
	C2690.174805,850.648560 2690.188721,868.692322 2689.434570,886.657959 
	C2688.633545,905.748230 2675.473145,917.869934 2656.281494,918.158386 
	C2637.954102,918.433899 2619.619385,918.171997 2601.288086,918.260620 
	C2583.430420,918.347046 2576.475342,925.294373 2576.448242,943.174500 
	C2576.387939,982.837097 2576.409912,1022.499817 2576.463379,1062.162476 
	C2576.467773,1065.469971 2576.628906,1068.847168 2577.301758,1072.069946 
	C2578.880371,1079.630249 2583.700928,1084.302490 2591.148193,1086.223389 
	C2595.372803,1087.312988 2599.694336,1087.466919 2604.046143,1087.458374 
	C2625.710693,1087.415527 2647.375000,1087.427002 2669.039551,1087.453491 
	C2673.701172,1087.459229 2678.401367,1087.346191 2682.942871,1088.626465 
	C2696.119629,1092.341187 2705.625244,1103.943115 2705.959717,1118.052490 
	C2706.394043,1136.372925 2706.442383,1154.720215 2705.980225,1173.038940 
	C2705.559570,1189.712646 2694.326660,1201.924194 2677.962891,1204.446045 
	C2673.708252,1205.101562 2669.345703,1205.295044 2665.032471,1205.299194 
	C2609.371338,1205.353638 2553.710449,1205.352295 2498.049316,1205.301270 
	C2493.733398,1205.297241 2489.381348,1205.082397 2485.108398,1204.505127 
	C2468.412842,1202.249634 2457.539551,1190.599976 2456.334961,1173.828369 
	C2456.120361,1170.842041 2456.204834,1167.831909 2456.204834,1164.832764 
	C2456.199951,961.853271 2456.200928,758.873840 2456.203613,555.894348 
	C2456.203613,553.228088 2456.126709,550.555481 2456.276611,547.896606 
	C2457.349854,528.892517 2470.036133,516.291565 2489.011475,515.848267 
	C2502.669434,515.529175 2516.340332,515.753784 2530.005371,515.748047 
	C2547.003662,515.740906 2564.001709,515.746338 2582.000000,515.746216 
z"/>
<path fill="#9093C8" opacity="1.000000" stroke="none" 
	d="
M1994.130737,719.366821 
	C1994.966553,723.971069 1995.247437,728.292664 1995.248413,732.614380 
	C1995.272949,835.229004 1995.260498,937.843628 1995.286743,1040.458252 
	C1995.288208,1046.118042 1995.309692,1051.798096 1995.758911,1057.433838 
	C1997.454712,1078.708008 2014.603760,1095.436646 2034.750366,1095.680298 
	C2055.237793,1095.928223 2072.217041,1080.048096 2074.362549,1058.267334 
	C2076.555420,1036.001587 2075.071777,1013.655579 2075.343018,991.347473 
	C2075.451904,982.370422 2075.669434,973.391052 2074.734131,964.395569 
	C2073.543457,952.940186 2067.951172,944.382874 2057.283691,940.977478 
	C2036.346802,934.293579 2028.878540,920.110291 2029.979126,899.098267 
	C2030.832031,882.817261 2029.939331,866.452454 2030.258301,850.133484 
	C2030.551270,835.147522 2038.545776,824.142944 2051.557861,819.342529 
	C2055.420410,817.917419 2059.369141,817.624207 2063.348633,817.617188 
	C2096.331787,817.558899 2129.316650,817.375000 2162.297363,817.657471 
	C2182.512451,817.830627 2195.049805,830.609436 2195.690186,850.949646 
	C2195.931152,858.605042 2195.747803,866.273987 2195.747803,873.936707 
	C2195.747803,966.223206 2195.743164,1058.509766 2195.751953,1150.796265 
	C2195.752686,1157.795532 2195.184814,1164.721924 2194.415039,1171.695923 
	C2191.675049,1196.521240 2165.369385,1213.581299 2139.301514,1206.783813 
	C2132.472168,1205.003052 2126.138428,1202.026855 2120.051758,1198.591431 
	C2106.746826,1191.081421 2093.119873,1190.352539 2078.626709,1194.941650 
	C2065.964111,1198.950928 2053.719971,1204.303711 2040.429810,1206.416870 
	C2025.461060,1208.796753 2010.519409,1209.431641 1995.775024,1205.912598 
	C1951.365845,1195.313721 1915.514648,1172.515869 1892.874634,1131.722046 
	C1883.034790,1113.992065 1878.312256,1094.575073 1876.252441,1074.563232 
	C1874.889648,1061.322266 1874.417480,1048.007690 1874.430664,1034.660278 
	C1874.511963,952.369934 1874.401367,870.079407 1874.224243,786.853577 
	C1873.331421,782.356934 1876.241333,781.312073 1878.416626,780.132141 
	C1914.318359,760.657288 1949.978271,740.741333 1985.887573,721.281128 
	C1988.217285,720.018738 1990.660889,718.900696 1994.130737,719.366821 
z"/>
<path fill="#9093C8" opacity="1.000000" stroke="none" 
	d="
M1092.885376,982.334351 
	C1092.273804,880.898743 1092.300293,779.954224 1092.312134,679.009644 
	C1092.314575,657.958496 1094.002075,637.124329 1099.648804,616.728333 
	C1107.557617,588.161804 1123.263184,564.888062 1146.465820,546.487732 
	C1211.009521,495.302917 1306.194214,498.040802 1367.270264,553.044250 
	C1390.963135,574.381287 1404.475220,601.305298 1409.918457,632.474548 
	C1412.616943,647.926941 1413.639282,663.524841 1413.640137,679.206909 
	C1413.643066,739.506714 1413.694336,799.806458 1413.815186,861.038574 
	C1412.376343,866.413147 1408.156738,867.303040 1404.547607,868.688904 
	C1371.317749,881.448730 1337.821167,893.495667 1304.467285,905.925110 
	C1300.749268,907.310669 1296.921997,908.981628 1292.701172,905.174927 
	C1290.194336,898.972290 1290.828247,893.256897 1290.824463,887.629578 
	C1290.780151,820.711243 1290.749512,753.792908 1290.849854,686.874695 
	C1290.864502,677.164978 1290.024292,667.571411 1288.239502,658.080383 
	C1284.894043,640.289001 1270.739014,628.444397 1253.162109,628.372192 
	C1235.900635,628.301270 1222.031494,639.398254 1217.996460,656.675964 
	C1215.867920,665.789978 1215.151978,675.047791 1215.161011,684.424255 
	C1215.235474,761.663147 1215.207520,838.902283 1215.195801,916.141296 
	C1215.194946,921.465759 1215.369019,926.796448 1214.716431,932.966309 
	C1213.665039,938.196838 1210.610718,940.692383 1206.730469,942.142090 
	C1170.321411,955.745911 1134.079834,969.800537 1097.447754,982.803894 
	C1096.176392,983.255188 1094.830444,983.152466 1092.885376,982.334351 
z"/>
<path fill="#9193C8" opacity="1.000000" stroke="none" 
	d="
M794.945251,1092.704468 
	C794.225830,1088.903198 794.058838,1085.574463 794.058594,1082.245728 
	C794.046265,906.939697 794.043396,731.633728 794.068054,556.327698 
	C794.068909,550.355469 793.742798,544.385193 795.632385,538.501282 
	C799.707947,525.810364 810.075867,517.169250 823.337036,516.000671 
	C826.648865,515.708862 829.996338,515.758789 833.327454,515.757996 
	C890.651855,515.744995 947.976257,515.747070 1005.300659,515.754150 
	C1007.966125,515.754456 1010.638184,515.725891 1013.295898,515.891724 
	C1030.132812,516.941895 1043.090454,529.072021 1043.703735,545.894226 
	C1044.395264,564.864258 1044.341064,583.894714 1043.713501,602.869202 
	C1043.199951,618.398499 1032.673828,629.524780 1017.487610,632.663391 
	C1013.194275,633.550720 1008.894043,633.618652 1004.561035,633.617798 
	C982.564453,633.613770 960.567688,633.556580 938.571411,633.639648 
	C920.956665,633.706116 914.351318,640.260620 914.324524,657.759583 
	C914.263794,697.419983 914.254456,737.080688 914.329407,776.740967 
	C914.361267,793.591003 921.108704,800.249939 938.073975,800.339722 
	C955.737427,800.433228 973.401672,800.362610 991.065613,800.371826 
	C998.156128,800.375488 1005.047913,801.380310 1011.260681,805.051819 
	C1022.370056,811.617004 1027.099365,821.971985 1027.366943,834.325806 
	C1027.727783,850.981750 1027.965210,867.671204 1027.325439,884.310547 
	C1026.471802,906.514160 1013.867615,918.059753 991.398254,918.208801 
	C974.734863,918.319336 958.070251,918.233032 941.406189,918.240356 
	C939.073425,918.241394 936.730408,918.142151 934.409546,918.317993 
	C922.065613,919.253357 914.889343,926.440186 914.394287,938.890808 
	C914.050293,947.542786 914.299622,956.218750 914.306519,964.884033 
	C914.327881,991.879028 914.359985,1018.874023 914.394897,1046.787598 
	C913.126770,1051.821045 909.335144,1052.776855 906.014282,1054.048218 
	C871.895142,1067.110352 837.554504,1079.580444 803.328308,1092.357056 
	C800.822937,1093.292236 798.286438,1094.104736 794.945251,1092.704468 
z"/>
<path fill="#9093C8" opacity="1.000000" stroke="none" 
	d="
M2265.905273,1161.927002 
	C2265.905273,1001.296875 2265.811768,841.654846 2266.066895,682.013245 
	C2266.089600,667.810852 2263.182617,655.065735 2255.455566,643.229736 
	C2251.818604,637.658691 2248.522705,631.837036 2245.442383,625.935791 
	C2237.338135,610.410645 2245.498047,595.113098 2262.934570,593.002197 
	C2265.897461,592.643616 2268.921143,592.713867 2271.916748,592.712402 
	C2307.911133,592.694702 2343.905762,592.714478 2379.900146,592.683105 
	C2384.243652,592.679321 2388.563721,592.749451 2392.818359,593.719055 
	C2405.844238,596.687866 2413.184082,609.796204 2408.058105,622.194092 
	C2405.151367,629.224243 2401.248047,635.938721 2397.080566,642.330688 
	C2388.971680,654.768433 2385.903320,668.065186 2385.930176,682.979980 
	C2386.220703,843.954590 2386.111572,1004.929810 2386.110596,1165.904907 
	C2386.110596,1169.237671 2386.171631,1172.572388 2386.083008,1175.902954 
	C2385.699707,1190.323975 2376.725830,1201.144043 2362.396973,1203.879395 
	C2357.198242,1204.871826 2351.810059,1205.169189 2346.501709,1205.234863 
	C2332.172852,1205.412354 2317.839844,1205.351440 2303.509277,1205.268921 
	C2297.173828,1205.232422 2290.848877,1204.804932 2284.837646,1202.505859 
	C2272.532959,1197.799927 2266.261963,1188.997314 2265.937744,1175.912964 
	C2265.830322,1171.582642 2265.910645,1167.247803 2265.905273,1161.927002 
z"/>
<path fill="#9194C8" opacity="1.000000" stroke="none" 
	d="
M1790.845825,831.291626 
	C1786.831909,846.319031 1777.959717,858.166199 1766.722290,868.443481 
	C1763.531860,871.361450 1760.203735,874.210815 1757.471313,877.530029 
	C1752.382080,883.712280 1752.392700,889.405640 1757.245483,895.686768 
	C1759.062622,898.038635 1761.220337,900.215027 1763.538330,902.078674 
	C1788.299561,921.985107 1798.529175,949.013367 1802.053833,979.520569 
	C1803.894165,995.449341 1804.262817,1011.410217 1804.277466,1027.400269 
	C1804.320435,1074.045532 1804.312134,1120.690796 1804.307007,1167.336060 
	C1804.306641,1170.332764 1804.338745,1173.346313 1804.054810,1176.323364 
	C1802.695068,1190.582520 1792.352783,1201.724121 1778.228638,1204.264893 
	C1776.590332,1204.559692 1774.939087,1204.922974 1773.285522,1204.970825 
	C1753.975830,1205.529053 1734.617310,1206.276733 1715.369507,1204.745117 
	C1695.325439,1203.149902 1684.226440,1190.501465 1684.122803,1170.347900 
	C1683.942871,1135.364746 1684.067749,1100.380249 1684.061157,1065.396240 
	C1684.056641,1041.074097 1684.066406,1016.751892 1684.022583,992.429810 
	C1684.012451,986.773010 1683.518433,981.180237 1682.685913,975.540955 
	C1679.117920,951.368225 1662.061279,941.319397 1641.114258,940.175171 
	C1636.131104,939.903015 1631.118652,940.018250 1626.123901,940.136963 
	C1611.516479,940.484070 1604.070312,947.909729 1604.057007,962.513916 
	C1603.994995,1030.482666 1604.027588,1098.451538 1604.025635,1166.420288 
	C1604.025513,1172.080322 1604.149658,1177.725952 1602.115601,1183.186890 
	C1597.814209,1194.734253 1589.845825,1202.003174 1577.640747,1204.211792 
	C1573.730957,1204.919434 1569.707153,1205.259277 1565.731567,1205.292969 
	C1551.072632,1205.417236 1536.411377,1205.418091 1521.752441,1205.293213 
	C1517.776245,1205.259277 1513.757812,1204.890503 1509.839844,1204.209106 
	C1495.324707,1201.685181 1484.889404,1190.148926 1483.936157,1175.322998 
	C1483.487915,1168.352661 1483.706299,1161.336304 1483.704102,1154.340820 
	C1483.689331,1107.362305 1483.706299,1060.383911 1483.676880,1013.405457 
	C1483.674683,1009.752869 1483.397217,1006.100403 1482.789917,1001.674927 
	C1483.316406,996.684082 1487.236084,995.694214 1490.295166,993.944275 
	C1527.012329,972.940735 1564.298096,952.961792 1601.319214,932.505737 
	C1651.457153,904.802002 1701.669189,877.230225 1751.958618,849.804382 
	C1764.400635,843.019043 1775.810913,833.892456 1790.845825,831.291626 
z"/>
<path fill="#9194C8" opacity="1.000000" stroke="none" 
	d="
M1484.473877,836.378662 
	C1483.800781,766.216675 1483.744263,696.561157 1483.701416,626.905579 
	C1483.686035,601.908936 1484.366943,576.889465 1483.507446,551.922485 
	C1482.739990,529.628052 1499.042847,515.270752 1519.285645,515.570312 
	C1562.603760,516.211487 1605.943359,515.376221 1649.263062,515.961548 
	C1688.646973,516.493774 1723.545044,530.223328 1753.899414,555.150024 
	C1782.063599,578.278198 1796.820312,608.794617 1802.052124,644.456604 
	C1805.459839,667.684937 1803.883301,691.025269 1804.267456,715.273926 
	C1803.683960,721.357239 1799.216431,721.945190 1795.673462,723.291321 
	C1763.110596,735.663696 1730.306519,747.389954 1697.752686,759.789062 
	C1693.132568,761.548828 1688.368652,763.546997 1682.988281,759.644653 
	C1680.494629,754.539673 1680.916626,749.829834 1680.902344,745.199890 
	C1680.833862,722.923035 1680.927490,700.645935 1680.847534,678.369080 
	C1680.807007,667.090027 1677.933472,656.581177 1671.265991,647.441528 
	C1658.120972,629.422119 1638.382812,628.892517 1617.914673,632.691467 
	C1611.594360,633.864441 1608.415161,639.564819 1607.552734,646.041443 
	C1606.979980,650.342285 1607.150513,654.671143 1607.124390,658.991089 
	C1606.867432,701.545166 1607.627319,744.102356 1606.588867,787.492188 
	C1604.974609,793.887024 1600.392578,796.076233 1595.684570,797.808899 
	C1561.674927,810.325134 1527.673828,822.863037 1493.819702,835.796326 
	C1491.027588,836.862976 1488.171143,837.872070 1484.473877,836.378662 
z"/>
<path fill="#FBF8BA" opacity="1.000000" stroke="none" 
	d="
M1091.538574,982.213440 
	C1132.016113,967.011597 1171.779663,952.179932 1211.964478,936.757812 
	C1217.111084,933.072571 1219.077759,936.031494 1220.255005,939.971497 
	C1221.410156,943.837280 1221.106445,947.893860 1221.110474,951.883545 
	C1221.138306,979.845520 1221.194092,1007.807739 1221.080200,1035.769165 
	C1221.044678,1044.483032 1222.091431,1053.061157 1223.667603,1061.561523 
	C1226.414429,1076.376099 1238.672485,1086.546997 1253.147949,1086.454224 
	C1268.136230,1086.358154 1280.209595,1075.750610 1282.503784,1060.276367 
	C1284.016113,1050.075928 1284.998413,1039.834839 1284.949097,1029.460449 
	C1284.776611,993.177429 1284.757446,956.892334 1284.993652,920.609619 
	C1285.030396,914.974060 1283.561890,908.017639 1292.771484,906.112061 
	C1306.707153,903.612488 1318.611694,897.691101 1331.002441,893.236389 
	C1358.354980,883.402527 1385.493530,872.973572 1413.311035,862.379150 
	C1416.251099,862.110229 1419.599731,860.368347 1419.557739,864.994080 
	C1419.545654,866.326904 1419.588867,867.660217 1419.588867,868.993286 
	C1419.590820,921.989807 1419.538574,974.986511 1419.679565,1027.982666 
	C1419.692261,1032.723389 1419.024780,1036.478394 1413.756714,1039.016846 
	C1411.455933,1043.604736 1407.540283,1044.926270 1404.075317,1046.842285 
	C1340.692627,1081.888428 1277.230835,1116.793457 1213.694092,1151.556274 
	C1195.118774,1161.719360 1177.507080,1173.886719 1156.555908,1180.922607 
	C1151.362793,1183.765747 1147.766846,1183.153931 1143.431396,1179.677490 
	C1114.073853,1156.136475 1096.415771,1125.851196 1090.047119,1088.881836 
	C1087.555908,1074.420776 1086.378296,1059.833008 1086.355469,1045.158813 
	C1086.327515,1027.179932 1086.387939,1009.200867 1086.302124,991.222473 
	C1086.284058,987.424988 1086.136353,983.805176 1091.538574,982.213440 
z"/>
<path fill="#FCF9BB" opacity="1.000000" stroke="none" 
	d="
M1683.853516,760.587524 
	C1692.470337,760.046326 1699.252808,756.235962 1706.369507,753.608032 
	C1738.739624,741.655334 1771.012939,729.440552 1803.775391,716.772339 
	C1806.811768,716.465088 1810.378296,714.531433 1810.382202,719.770020 
	C1810.406494,752.194519 1810.759033,784.607910 1803.333496,816.521790 
	C1801.769409,823.243958 1798.586670,827.862854 1791.963623,831.118347 
	C1772.661255,840.090759 1755.130249,851.013489 1736.990845,860.785217 
	C1705.640991,877.673523 1674.566895,895.073364 1643.380615,912.265137 
	C1593.249390,939.900391 1543.125366,967.548828 1492.980957,995.160034 
	C1489.781616,996.921753 1486.432251,998.411072 1482.742432,1000.464539 
	C1480.927246,1001.253845 1479.250977,1003.077942 1478.235352,1000.751892 
	C1477.610107,999.320190 1477.697266,997.518005 1477.696533,995.882019 
	C1477.671875,945.623047 1477.715088,895.364014 1477.601562,845.105286 
	C1477.592407,841.047058 1478.153076,837.933472 1483.195068,836.318665 
	C1501.030029,830.931152 1517.420166,823.799561 1534.174438,817.684875 
	C1557.166748,809.293457 1580.020996,800.523804 1603.480713,791.539062 
	C1609.449829,785.966736 1611.169800,790.184509 1612.302490,794.648621 
	C1613.449707,799.169922 1612.818604,803.894531 1613.111694,808.523254 
	C1613.616089,816.486389 1617.799438,820.579590 1625.750122,820.911987 
	C1631.385864,821.147522 1637.027222,821.199280 1642.657349,820.983154 
	C1659.483276,820.337341 1668.887329,812.648560 1673.300659,796.393188 
	C1675.424072,788.572144 1674.847046,780.598816 1675.181274,772.666382 
	C1675.414795,767.121216 1676.327515,761.930664 1683.853516,760.587524 
z"/>
<path fill="#FBF8BA" opacity="1.000000" stroke="none" 
	d="
M793.754639,1092.765381 
	C804.734558,1089.885132 814.393250,1085.338501 824.346680,1081.678589 
	C853.991028,1070.778809 883.522766,1059.572510 913.750183,1048.096069 
	C917.277954,1047.466309 920.603882,1046.294800 920.363586,1051.367310 
	C920.174805,1055.351929 920.307678,1059.353271 920.347046,1063.346802 
	C920.480469,1076.893066 924.637390,1081.115723 938.400757,1081.289917 
	C949.714722,1081.433105 961.031921,1081.319702 972.347656,1081.322998 
	C984.661865,1081.326660 996.978455,1081.493774 1009.289734,1081.306274 
	C1036.161865,1080.897217 1050.869263,1101.656982 1050.114746,1122.977539 
	C1049.538330,1139.265625 1050.237671,1155.594971 1049.884766,1171.895508 
	C1049.506226,1189.375732 1039.528442,1203.253784 1024.187866,1208.741455 
	C1018.777283,1210.676758 1013.143616,1211.197266 1007.491882,1211.202393 
	C948.583374,1211.255493 889.674866,1211.254517 830.766357,1211.215820 
	C820.237793,1211.208862 810.260864,1209.275146 801.906921,1202.153809 
	C793.321777,1194.835449 788.456360,1185.472290 788.279236,1174.333130 
	C787.887695,1149.711060 788.168518,1125.079224 787.968384,1100.452881 
	C787.935486,1096.399780 789.461853,1094.232422 793.754639,1092.765381 
z"/>
<path fill="#9194C8" opacity="1.000000" stroke="none" 
	d="
M2045.286621,628.079346 
	C2033.152466,622.384888 2022.913574,625.941956 2013.170532,632.130737 
	C2009.569458,634.418213 2006.486938,637.455200 2003.986328,641.857849 
	C2003.349976,646.903564 1999.463745,647.197510 1996.585938,648.290833 
	C1959.391113,662.422485 1921.949829,675.896606 1884.797974,690.145203 
	C1882.012451,691.213562 1879.137939,692.131714 1875.431152,690.745728 
	C1873.889771,668.600525 1875.128540,647.062561 1879.649902,625.751282 
	C1887.192383,590.200500 1906.055298,562.306274 1935.652100,541.295044 
	C2002.816772,493.614044 2097.916992,500.963684 2155.022217,558.487183 
	C2160.901123,564.409302 2166.331787,570.711060 2170.729736,578.626221 
	C2171.129639,583.776489 2167.417725,584.686462 2164.515137,585.783813 
	C2127.040527,599.951660 2089.497070,613.937439 2051.888184,627.747070 
	C2050.020020,628.433044 2048.022461,628.654480 2045.286621,628.079346 
z"/>
<path fill="#9194C8" opacity="1.000000" stroke="none" 
	d="
M1156.388916,1181.376465 
	C1170.295654,1172.742676 1184.705444,1164.471069 1199.254395,1156.451904 
	C1258.688232,1123.693115 1318.156860,1090.997192 1377.632690,1058.314453 
	C1389.003662,1052.065918 1400.464478,1045.981079 1412.565674,1039.702637 
	C1414.132202,1062.357788 1412.067871,1084.856323 1405.490845,1106.699463 
	C1391.905884,1151.817261 1360.859253,1181.082764 1318.198608,1197.880005 
	C1262.102783,1219.967041 1208.001831,1214.387207 1156.388916,1181.376465 
z"/>
<path fill="#FAF7B9" opacity="1.000000" stroke="none" 
	d="
M1874.197510,690.827637 
	C1890.174316,686.091431 1904.739136,679.568848 1919.698608,674.150513 
	C1947.477539,664.089050 1975.171509,653.792725 2003.324463,643.062988 
	C2005.206787,642.573669 2007.984375,641.947998 2006.871582,644.465759 
	C1997.767578,665.062622 2002.036133,686.801208 2001.220825,708.080505 
	C2001.044800,712.678101 2000.765259,716.610779 1995.374146,719.114380 
	C1969.123291,733.572632 1943.423462,747.482788 1917.740723,761.424255 
	C1903.431641,769.191772 1889.150757,777.011230 1874.475464,785.362732 
	C1871.184570,786.770020 1868.147217,788.139343 1868.503784,782.799744 
	C1868.767334,778.853149 1868.553589,774.874817 1868.553589,770.910583 
	C1868.553589,747.455627 1868.596558,724.000549 1868.513672,700.545837 
	C1868.499023,696.388062 1868.420044,692.485291 1874.197510,690.827637 
z"/>
<path fill="#FAF7BA" opacity="1.000000" stroke="none" 
	d="
M501.850433,1201.828857 
	C528.077454,1192.025024 553.540405,1182.336914 579.070007,1172.827759 
	C627.053955,1154.954956 675.076294,1137.185303 723.546692,1118.848389 
	C726.766541,1118.282837 730.165405,1116.811646 729.961914,1121.998535 
	C729.298401,1138.910034 730.612793,1155.822632 728.659180,1172.768433 
	C725.487610,1200.278564 696.168213,1220.394043 666.260681,1212.661133 
	C659.762085,1210.980957 653.611267,1208.416382 647.926453,1205.023682 
	C634.034485,1196.732666 619.900146,1196.274658 604.909424,1201.804810 
	C592.166870,1206.505859 579.353394,1211.045776 565.751404,1213.065918 
	C543.135864,1216.424561 521.382874,1212.886108 500.094360,1205.576416 
	C496.480194,1204.335571 499.550201,1202.907349 501.850433,1201.828857 
z"/>
<path fill="#9193C8" opacity="1.000000" stroke="none" 
	d="
M2186.871826,613.387939 
	C2192.955811,630.374817 2194.892334,647.567566 2195.582520,664.902527 
	C2196.006592,675.549866 2195.865234,686.228149 2195.705322,696.888489 
	C2195.376709,718.800964 2182.544922,731.749084 2160.843750,731.971741 
	C2143.850830,732.146057 2126.845459,731.651733 2109.862793,732.102966 
	C2092.647949,732.560425 2074.761475,720.429749 2075.392334,697.693298 
	C2075.576904,691.033813 2075.428467,684.365112 2075.517578,676.756470 
	C2075.325439,671.656799 2078.510254,670.127808 2081.362549,668.566406 
	C2113.853516,650.778381 2146.372803,633.042542 2178.676025,614.913879 
	C2180.984131,613.618469 2183.433105,612.541199 2186.871826,613.387939 
z"/>
<path fill="#8F92C6" opacity="1.000000" stroke="none" 
	d="
M2332.747070,397.325104 
	C2336.347900,401.734314 2336.547363,405.721130 2333.819092,409.848541 
	C2332.585449,411.714966 2330.312012,413.439331 2332.075439,415.991272 
	C2333.933350,418.679749 2335.748047,421.460693 2339.594482,421.871735 
	C2344.875488,422.436066 2350.188965,423.010773 2355.371582,424.125031 
	C2371.877930,427.673920 2387.247314,433.695038 2399.458496,445.940155 
	C2401.794434,448.282562 2404.403076,450.695801 2405.769043,453.601501 
	C2411.001953,464.731964 2409.526123,471.842255 2396.538086,473.621002 
	C2393.913330,473.980499 2391.224609,473.964172 2388.565430,473.965454 
	C2346.946045,473.985382 2305.326904,473.973206 2263.707520,473.989044 
	C2259.031250,473.990845 2254.439453,473.778809 2249.925293,472.225403 
	C2245.572510,470.727631 2243.646484,468.136871 2243.542480,463.391785 
	C2243.400635,456.900909 2245.863770,451.801727 2250.138672,447.255859 
	C2259.054199,437.774963 2270.263184,432.098145 2282.343262,427.950256 
	C2291.173828,424.918121 2300.253906,422.864807 2309.580078,422.064697 
	C2312.562500,421.808838 2315.357666,421.716461 2317.603027,418.998260 
	C2319.939697,416.169067 2321.583252,413.951111 2318.629395,410.428528 
	C2315.203613,406.342712 2315.244629,401.864624 2318.841553,397.742157 
	C2322.147705,393.952698 2325.282959,393.783478 2332.747070,397.325104 
z"/>
<path fill="#FAF7BA" opacity="1.000000" stroke="none" 
	d="
M2187.972656,613.193970 
	C2172.809082,620.098999 2159.364746,628.805603 2145.319580,636.377808 
	C2122.166748,648.859985 2099.278320,661.832825 2075.940430,675.205688 
	C2072.303467,676.413208 2068.881104,677.502625 2069.188477,671.877075 
	C2069.350098,668.913879 2068.817627,665.907471 2068.539062,662.926270 
	C2067.335693,650.060913 2061.447021,640.377991 2049.773438,634.216125 
	C2047.333374,632.928162 2042.776733,633.119141 2043.942749,628.027954 
	C2085.161133,612.618591 2125.761475,597.469360 2166.353271,582.297913 
	C2167.577148,581.840515 2168.714355,581.150696 2170.385254,579.937500 
	C2176.490723,578.479614 2180.327881,579.863281 2182.786377,585.831604 
	C2185.508301,592.439453 2188.625977,598.908386 2191.290283,605.569763 
	C2192.683105,609.051758 2191.647949,611.191467 2187.972656,613.193970 
z"/>
<path fill="#8F92C6" opacity="1.000000" stroke="none" 
	d="
M2327.604736,525.187988 
	C2330.179443,521.215759 2329.766602,517.500061 2329.777100,513.855469 
	C2329.802734,504.862396 2329.865479,495.868683 2329.780518,486.876465 
	C2329.742188,482.799133 2331.433594,480.576660 2335.612305,480.561951 
	C2342.273438,480.538452 2348.934570,480.527954 2355.595703,480.560516 
	C2359.348145,480.578857 2360.877197,482.862671 2361.105469,486.287842 
	C2361.215820,487.947357 2361.213135,489.616364 2361.213623,491.281067 
	C2361.219727,519.259827 2361.254395,547.238586 2361.199707,575.217224 
	C2361.179199,585.640686 2361.042236,585.931213 2350.505615,585.665588 
	C2343.987793,585.501404 2335.958008,588.550476 2331.335449,583.803040 
	C2327.092773,579.445496 2330.097656,571.694275 2329.844238,565.452698 
	C2329.452881,555.816833 2329.467773,546.164429 2328.708496,535.861023 
	C2325.131592,532.374146 2325.342285,529.172363 2327.604736,525.187988 
z"/>
<path fill="#8D90C3" opacity="1.000000" stroke="none" 
	d="
M2399.853516,536.000000 
	C2399.851074,550.658020 2399.959961,564.317444 2399.799805,577.973694 
	C2399.719238,584.863098 2399.012451,585.510803 2392.435303,585.737000 
	C2386.779053,585.931580 2381.106445,585.644226 2375.448486,585.814209 
	C2370.459717,585.964111 2367.989990,583.989502 2368.182129,578.793213 
	C2368.354492,574.136108 2368.202148,569.467224 2368.201904,564.803528 
	C2368.200684,540.152283 2368.168457,515.501038 2368.219482,490.849915 
	C2368.239990,480.903015 2368.576416,480.615540 2378.123779,480.481537 
	C2382.453369,480.420746 2386.787354,480.379486 2391.114990,480.493561 
	C2399.048828,480.702698 2399.748291,481.271210 2399.811279,489.029144 
	C2399.935791,504.351868 2399.851562,519.676270 2399.853516,536.000000 
z"/>
<path fill="#8F92C6" opacity="1.000000" stroke="none" 
	d="
M2774.773438,517.532898 
	C2782.877930,531.281555 2782.460449,540.359741 2773.156006,552.097961 
	C2764.255615,563.327026 2755.066162,574.327759 2745.961914,585.394287 
	C2742.984375,589.013489 2739.338135,591.081970 2734.553711,589.154541 
	C2730.004639,587.321960 2728.029785,583.720642 2728.063477,578.912048 
	C2728.068115,578.245605 2728.040039,577.579041 2728.033936,576.912415 
	C2727.904541,562.913757 2727.902344,548.912476 2727.607422,534.917358 
	C2727.364502,523.377136 2732.096680,514.684509 2742.532959,509.983887 
	C2753.174805,505.190643 2763.346191,506.771240 2772.178955,514.807251 
	C2772.917236,515.478943 2773.581055,516.232544 2774.773438,517.532898 
z"/>
<path fill="#8D90C3" opacity="1.000000" stroke="none" 
	d="
M2252.872070,550.474487 
	C2252.199951,530.115784 2252.116211,510.207184 2252.160889,490.298889 
	C2252.181885,480.954590 2252.571289,480.628571 2261.511230,480.454590 
	C2265.823242,480.370636 2270.139648,480.370605 2274.451660,480.454742 
	C2283.358398,480.628510 2283.721191,480.962921 2283.778809,490.328186 
	C2283.872803,505.590973 2283.852295,520.854492 2283.938477,537.052856 
	C2275.868408,547.090149 2264.677734,548.976501 2252.872070,550.474487 
z"/>
<path fill="#F7F5B9" opacity="1.000000" stroke="none" 
	d="
M2251.607422,550.507324 
	C2262.429199,546.292175 2272.627441,542.560181 2283.411133,538.408081 
	C2285.772705,537.480103 2287.548828,536.972290 2289.990234,536.242188 
	C2299.269287,528.233521 2310.247803,526.039612 2321.658691,523.503296 
	C2323.873535,523.792297 2325.386230,523.784912 2327.551025,524.176514 
	C2328.072266,527.624390 2327.941406,530.673279 2327.958984,534.462585 
	C2326.314941,536.423950 2324.523193,537.644897 2322.337402,539.372253 
	C2313.632080,548.724121 2302.459961,552.586914 2291.063477,556.984009 
	C2288.324951,557.910645 2286.254639,559.076233 2283.711670,560.777100 
	C2274.624023,569.499634 2263.967041,574.165833 2252.546631,578.465515 
	C2249.387939,578.639404 2245.979004,581.467957 2246.135010,575.665100 
	C2246.301025,569.491150 2246.367676,563.300903 2246.101318,557.134033 
	C2245.939209,553.380127 2248.002930,551.958069 2251.607422,550.507324 
z"/>
<path fill="#9093C7" opacity="1.000000" stroke="none" 
	d="
M2322.346680,522.874634 
	C2312.686768,528.928955 2301.955078,531.413635 2291.345215,535.973206 
	C2290.777344,521.055054 2290.870850,506.089813 2291.030273,491.125275 
	C2291.141602,480.700714 2291.313232,480.290405 2301.655518,480.582062 
	C2308.166016,480.765686 2316.233643,477.607788 2320.797363,482.589783 
	C2324.879150,487.045746 2321.963135,494.739624 2322.210205,500.993256 
	C2322.485840,507.969391 2322.311035,514.963318 2322.346680,522.874634 
z"/>
<path fill="#9093C7" opacity="1.000000" stroke="none" 
	d="
M2290.604492,557.734680 
	C2300.443604,551.192566 2310.491943,545.640076 2321.242188,539.983154 
	C2322.048828,552.853210 2322.046143,565.830017 2322.312256,578.801270 
	C2322.417969,583.955261 2320.313477,586.022095 2315.193359,585.799255 
	C2309.545898,585.553467 2303.869629,585.542908 2298.223633,585.805542 
	C2292.989990,586.049072 2291.033936,583.592957 2291.044189,578.687256 
	C2291.057861,572.033142 2290.898926,565.378662 2290.604492,557.734680 
z"/>
<path fill="#8D90C3" opacity="1.000000" stroke="none" 
	d="
M2251.925537,579.017090 
	C2261.473145,571.992737 2271.600098,566.677979 2282.537109,561.435730 
	C2284.348877,567.578857 2283.658203,573.895325 2283.728027,580.188660 
	C2283.768311,583.798706 2281.809814,585.712769 2278.190186,585.729370 
	C2271.218506,585.761292 2264.245850,585.758667 2257.274170,585.704224 
	C2253.429932,585.674194 2252.245117,583.133850 2251.925537,579.017090 
z"/>
<path fill="#1E191E" opacity="1.000000" stroke="none" 
	d="
M1293.486572,905.257751 
	C1287.891479,908.550415 1286.837891,912.892273 1286.878418,918.852112 
	C1287.156616,959.753723 1287.057983,1000.658203 1286.985718,1041.561523 
	C1286.975098,1047.537109 1286.801147,1053.551514 1286.111938,1059.479370 
	C1284.052734,1077.190918 1270.602295,1089.431274 1253.323730,1089.672852 
	C1236.289185,1089.911133 1222.186768,1077.622559 1219.915039,1060.192017 
	C1219.144287,1054.278076 1218.908203,1048.259888 1218.890991,1042.288086 
	C1218.796631,1009.365967 1218.888672,976.443420 1218.774292,943.521423 
	C1218.763550,940.433594 1220.722168,935.428162 1213.260986,936.215637 
	C1212.492310,932.175415 1212.691162,928.183411 1212.692017,924.191467 
	C1212.710205,842.575073 1212.725464,760.958679 1212.669678,679.342285 
	C1212.665039,672.659058 1213.019653,666.020569 1213.947998,659.422302 
	C1216.796387,639.180664 1232.971436,624.967163 1253.013062,624.981140 
	C1273.447144,624.995422 1289.720093,639.674744 1292.064575,660.519043 
	C1292.807251,667.122253 1293.150391,673.804260 1293.160034,680.450928 
	C1293.267334,755.070862 1293.273926,829.691040 1293.486572,905.257751 
z"/>
<path fill="#1D181D" opacity="1.000000" stroke="none" 
	d="
M1684.448975,759.678223 
	C1679.468872,763.263367 1677.330811,767.055115 1677.896606,773.246948 
	C1678.649658,781.490112 1678.093628,789.819397 1676.096436,797.987244 
	C1672.474854,812.797974 1662.253784,822.370117 1647.000488,823.922729 
	C1639.103882,824.726624 1631.058838,824.664001 1623.116699,824.270813 
	C1614.526733,823.845581 1610.316406,818.881592 1610.054199,809.924622 
	C1609.889038,804.281921 1610.014893,798.631226 1609.899658,792.986328 
	C1609.834839,789.814941 1607.705566,790.463013 1604.885620,791.066956 
	C1604.023926,745.253296 1604.018799,699.344604 1604.022461,653.435913 
	C1604.022705,650.775452 1603.897705,648.094666 1604.169067,645.458191 
	C1605.154663,635.883057 1612.024536,628.626831 1621.637329,627.987610 
	C1629.577637,627.459595 1637.715576,627.096558 1645.540649,628.224243 
	C1662.393433,630.652954 1673.881226,640.445374 1679.984131,656.393433 
	C1683.368530,665.237793 1684.084473,674.485718 1684.084473,683.859131 
	C1684.084595,708.808350 1684.167969,733.757629 1684.448975,759.678223 
z"/>
</svg>