<svg version="1.1" id="Layer_1" xmlns="http://www.w3.org/2000/svg" xmlns:xlink="http://www.w3.org/1999/xlink" x="0px" y="0px"
	 width="100%" viewBox="0 0 2956 940" enable-background="new 0 0 2956 940" xml:space="preserve">
<path fill="transparent" opacity="1.000000" stroke="none" 
	d="
M1937.000000,941.000000 
	C1292.833374,941.000000 649.166687,940.996216 5.500014,941.092712 
	C1.750999,941.093323 0.905625,940.249084 0.906846,936.500000 
	C1.007902,626.166687 1.007902,315.833344 0.906846,5.500031 
	C0.905625,1.750885 1.751032,0.907043 5.500009,0.907405 
	C987.833313,1.002503 1970.166626,1.002503 2952.500000,0.907406 
	C2956.249023,0.907043 2957.094482,1.750883 2957.093262,5.500030 
	C2956.992188,315.833344 2956.991943,626.166687 2957.093262,936.500000 
	C2957.094482,940.249084 2956.249268,941.094238 2952.500000,941.093140 
	C2614.166748,940.992798 2275.833252,941.000000 1937.000000,941.000000 
z"/>
<path fill="#F9F43A" opacity="1.000000" stroke="none" 
	d="
M138.345673,911.416870 
	C114.561722,902.396545 93.204178,890.229248 74.876884,872.857971 
	C49.274010,848.590454 35.385330,818.543762 30.047991,784.115601 
	C27.642990,768.602356 26.994757,752.980957 26.999846,737.298096 
	C27.042562,605.636536 27.032501,473.974945 27.016655,342.313385 
	C27.013876,319.236633 28.966803,296.417908 35.567791,274.175873 
	C47.279816,234.712128 72.594368,206.415741 107.591980,185.875671 
	C175.938873,145.762955 265.433594,154.401718 324.502777,206.887009 
	C352.708954,231.949265 367.676941,263.813782 372.893738,300.654358 
	C376.174316,323.821747 376.579620,347.154480 375.062286,370.459259 
	C373.931091,387.832855 360.550934,401.204529 343.191315,401.736145 
	C321.381622,402.404022 299.520355,402.423981 277.711090,401.754608 
	C258.835785,401.175354 245.449570,386.030121 245.057236,366.201630 
	C244.839676,355.206085 245.004669,344.203369 244.940247,333.204224 
	C244.907883,327.682556 244.099152,322.232208 242.578262,316.942535 
	C236.878983,297.120239 218.877441,284.731293 197.857742,286.033356 
	C179.375870,287.178192 162.387924,303.031372 159.056534,322.176636 
	C158.138016,327.455200 157.902420,332.763489 157.902786,338.104340 
	C157.912140,473.599091 157.924026,609.093811 157.887436,744.588562 
	C157.884003,757.313965 159.231781,769.652527 167.663757,779.922180 
	C179.257050,794.042114 194.012787,799.971008 212.056076,795.456543 
	C228.915558,791.238403 241.536209,776.452637 244.052139,758.942078 
	C244.741470,754.144409 245.033081,749.342285 245.028503,744.500610 
	C245.002518,717.001648 245.040054,689.502747 245.008469,662.003784 
	C244.985992,642.430481 238.885223,633.752258 220.378479,626.763367 
	C203.811935,620.507263 196.217499,609.946350 196.087509,592.332642 
	C195.937469,572.001221 195.922623,551.666748 196.085846,531.335571 
	C196.261826,509.417175 210.556625,494.965607 232.459427,494.848480 
	C267.957031,494.658630 303.456970,494.676758 338.954803,494.842712 
	C361.688873,494.949005 375.604187,509.546844 375.677094,533.042480 
	C375.760864,560.041199 375.695831,587.040344 375.696808,614.039307 
	C375.699371,683.369141 375.702637,752.698914 375.735352,822.494019 
	C375.168396,825.295593 373.078003,825.741516 371.248199,826.421936 
	C321.358704,844.973083 271.497772,863.600830 221.582428,882.082825 
	C196.001282,891.554749 170.427841,901.049927 144.888779,910.636169 
	C142.885406,911.388123 140.923828,912.493713 138.345673,911.416870 
z"/>
<path fill="#F9F43A" opacity="1.000000" stroke="none" 
	d="
M2601.004639,493.936523 
	C2588.995117,472.808502 2583.650635,450.013153 2581.227539,426.548431 
	C2577.436523,389.839233 2577.681885,352.965912 2579.945801,316.213470 
	C2584.322021,245.168396 2621.378906,197.131866 2687.409668,172.951752 
	C2755.416992,148.047897 2818.580078,159.700714 2874.667236,205.649536 
	C2902.943115,228.814499 2917.838135,259.981262 2923.975342,295.635071 
	C2928.586914,322.424988 2927.600586,349.458801 2927.093750,376.414032 
	C2926.747314,394.826691 2911.710938,410.071991 2893.222656,410.720184 
	C2871.589844,411.478577 2849.894287,411.418579 2828.256348,410.740540 
	C2811.749756,410.223267 2797.768311,395.659882 2797.085693,379.177216 
	C2796.534424,365.867889 2796.860352,352.523163 2796.745361,339.194550 
	C2796.683350,332.025665 2796.364990,324.858612 2794.506592,317.889465 
	C2789.138428,297.761475 2771.753662,285.190918 2750.544678,286.006622 
	C2731.869873,286.724915 2714.266357,302.017792 2711.122314,321.224487 
	C2708.065674,339.899841 2709.903320,358.795959 2709.951904,377.598328 
	C2709.976074,386.949371 2711.497070,396.149841 2713.485840,405.281311 
	C2717.767334,424.943359 2728.519531,440.264008 2744.773438,451.814667 
	C2769.211182,469.180939 2794.945312,484.578369 2819.955078,501.078156 
	C2839.696045,514.101807 2859.425049,527.094055 2877.394775,542.602844 
	C2905.520020,566.876160 2920.422607,597.810059 2925.073486,634.282043 
	C2927.673584,654.671265 2928.362793,675.117615 2928.118408,695.620300 
	C2927.836426,719.272034 2928.982666,742.940857 2927.200684,766.575256 
	C2921.698486,839.559875 2882.949951,887.906006 2815.001465,911.334351 
	C2747.849854,934.487915 2685.506836,922.134155 2630.698975,876.537537 
	C2604.064209,854.379150 2589.365479,824.889282 2582.985352,791.074646 
	C2579.947510,774.975586 2578.783447,758.729248 2578.858154,742.365906 
	C2578.921387,728.535156 2578.840332,714.703735 2578.874756,700.872742 
	C2578.930176,678.736633 2593.015625,663.570984 2615.212158,662.910156 
	C2635.023682,662.320374 2654.877441,662.349060 2674.692139,662.878662 
	C2696.231689,663.454407 2709.452148,678.199524 2709.653809,700.788452 
	C2709.817383,719.116089 2709.447998,737.461609 2710.142090,755.767822 
	C2710.902588,775.821289 2721.855713,789.625671 2739.960449,795.031860 
	C2765.591309,802.685303 2792.590820,786.417358 2795.364746,759.014282 
	C2798.463379,728.402039 2798.630615,697.442566 2793.390625,666.850586 
	C2790.398438,649.383301 2781.049072,635.466064 2767.691895,624.082581 
	C2761.084717,618.451782 2753.923828,613.600220 2746.680664,608.841187 
	C2714.683594,587.817810 2681.829346,568.086792 2650.729248,545.713379 
	C2631.115723,531.603333 2613.535400,515.413208 2601.004639,493.936523 
z"/>
<path fill="#F9F43A" opacity="1.000000" stroke="none" 
	d="
M2257.354980,671.999878 
	C2257.354980,516.687195 2257.371582,361.874512 2257.323975,207.061829 
	C2257.320068,194.139679 2260.346191,182.687973 2271.110107,174.383591 
	C2277.708252,169.293106 2285.286377,167.056656 2293.470947,167.049835 
	C2359.962158,166.994461 2426.453613,166.889664 2492.944092,167.094528 
	C2514.099365,167.159698 2528.617432,181.955261 2528.905029,203.146545 
	C2529.156006,221.640686 2529.128174,240.142868 2528.914062,258.637909 
	C2528.663330,280.274292 2513.932617,294.833344 2492.173584,294.960541 
	C2465.678223,295.115417 2439.180908,294.983398 2412.684570,295.003845 
	C2396.166992,295.016602 2388.072266,303.079437 2388.069092,319.494598 
	C2388.060547,363.822021 2388.058105,408.149445 2388.070557,452.476868 
	C2388.074951,468.111237 2395.969238,476.262787 2411.664551,476.390656 
	C2431.993896,476.556305 2452.325684,476.421417 2472.656250,476.439423 
	C2488.049316,476.453033 2500.106445,482.203766 2507.219971,496.524292 
	C2509.492432,501.099152 2510.609619,506.022675 2510.620605,510.981720 
	C2510.666748,531.963928 2511.772461,552.976074 2510.081787,573.922363 
	C2508.785156,589.983276 2495.123047,603.444763 2479.132568,603.916748 
	C2457.988037,604.540833 2436.816650,604.250610 2415.656982,604.374634 
	C2413.328125,604.388306 2410.988037,604.418091 2408.674072,604.650757 
	C2395.230957,606.002319 2388.119385,613.844604 2388.081543,627.480652 
	C2388.025391,647.644470 2388.066162,667.808533 2388.066162,687.972534 
	C2388.065918,713.302490 2388.051270,738.632446 2388.071777,763.962402 
	C2388.084473,779.394226 2396.357422,787.819214 2411.811035,787.875549 
	C2436.974121,787.967285 2462.167480,788.666870 2487.292969,787.691040 
	C2513.843506,786.659790 2530.304688,803.474976 2529.096436,829.343567 
	C2528.366455,844.973999 2528.977295,860.666443 2528.958252,876.330994 
	C2528.928223,901.127930 2514.206787,915.938354 2489.571289,915.941772 
	C2424.913330,915.950684 2360.255127,915.959717 2295.597168,915.935425 
	C2276.430176,915.928223 2263.368652,906.508484 2258.688721,889.335144 
	C2257.457764,884.817871 2257.352051,880.138367 2257.352295,875.471985 
	C2257.355957,807.814636 2257.354736,740.157288 2257.354980,671.999878 
z"/>
<path fill="#F9F43A" opacity="1.000000" stroke="none" 
	d="
M1756.570557,388.130798 
	C1756.469116,391.162750 1756.288452,393.820923 1756.288208,396.479126 
	C1756.274170,511.632446 1756.272705,626.785767 1756.285034,741.939087 
	C1756.285767,748.772095 1756.567505,755.589844 1757.990112,762.311462 
	C1762.238647,782.386047 1780.483398,797.216980 1800.614502,796.942383 
	C1820.792358,796.667053 1838.296997,781.425964 1842.104126,761.028625 
	C1843.153076,755.408630 1843.303223,749.768616 1843.314209,744.113892 
	C1843.367310,716.783875 1843.354126,689.453613 1843.320068,662.123474 
	C1843.315308,658.299316 1843.270630,654.472107 1842.503906,650.680664 
	C1840.469971,640.622803 1834.720337,633.568665 1825.421143,629.394470 
	C1821.329468,627.557800 1817.061401,626.098938 1813.031616,624.142761 
	C1801.864502,618.721741 1795.525879,609.495178 1795.074951,597.319092 
	C1794.193359,573.512268 1794.156860,549.663452 1795.084106,525.853271 
	C1795.694214,510.186035 1809.760864,496.398438 1825.455200,495.083893 
	C1827.611572,494.903259 1829.781982,494.809204 1831.945801,494.808167 
	C1866.941772,494.791382 1901.937866,494.736145 1936.933716,494.819977 
	C1956.006958,494.865631 1969.018433,504.756866 1973.253052,522.018494 
	C1974.017944,525.136353 1974.118530,528.291382 1974.118408,531.447876 
	C1974.116455,642.934753 1974.085449,754.421631 1974.075684,865.908508 
	C1974.075195,871.426941 1973.434326,876.864502 1972.503906,882.291199 
	C1967.947388,908.869690 1938.229736,926.504211 1908.947510,916.547058 
	C1902.789062,914.452942 1896.977295,911.515625 1891.312256,908.368286 
	C1877.549805,900.722168 1863.377686,899.778442 1848.409424,904.439758 
	C1836.348022,908.195923 1824.678711,913.166260 1812.323608,915.996338 
	C1779.943726,923.413635 1749.200439,918.180786 1719.589722,904.070923 
	C1681.404541,885.875122 1652.484741,858.739380 1637.429688,818.420715 
	C1629.543823,797.302063 1626.063965,775.265686 1626.003662,752.822327 
	C1625.772949,666.999756 1625.834595,581.176453 1625.785156,495.353394 
	C1625.778564,483.855133 1625.761230,472.356842 1625.666016,460.392517 
	C1625.038086,456.907898 1627.645996,456.428680 1629.384033,455.445435 
	C1645.597900,446.273376 1662.031128,437.498322 1678.327637,428.475403 
	C1700.151123,416.392303 1722.062500,404.468353 1743.899170,392.409088 
	C1747.803467,390.252960 1751.386230,386.640137 1756.570557,388.130798 
z"/>
<path fill="#F9F43A" opacity="1.000000" stroke="none" 
	d="
M776.341797,674.254028 
	C776.028992,562.682617 776.006226,451.357483 776.037842,340.032349 
	C776.045105,314.413940 778.769226,289.181030 787.595337,264.910248 
	C800.300354,229.972610 824.247681,204.791565 855.838623,186.194687 
	C924.653259,145.685074 1014.382446,154.262177 1073.623779,207.005341 
	C1101.939941,232.215469 1116.736816,264.289154 1122.009644,301.315002 
	C1124.059082,315.706055 1124.641235,330.176178 1124.655640,344.672089 
	C1124.721680,410.833679 1124.700439,476.995331 1124.786743,543.626770 
	C1123.909180,547.959229 1120.195679,547.931091 1117.499268,548.928040 
	C1099.096558,555.732178 1080.709839,562.579712 1062.327515,569.438538 
	C1043.321289,576.530090 1024.290405,583.555664 1005.271790,590.612976 
	C1001.580017,591.982971 997.948303,594.913330 993.301880,592.421387 
	C992.133423,589.121460 992.465027,586.099365 992.464355,583.115967 
	C992.445251,501.489075 992.484680,419.862183 992.409546,338.235352 
	C992.399048,326.813019 991.180542,315.471039 984.506836,305.697510 
	C975.453918,292.439728 962.440308,286.511414 946.689819,287.863678 
	C930.657410,289.240112 918.923523,297.584747 912.508789,312.603607 
	C909.392151,319.900818 908.533264,327.680084 908.535278,335.590820 
	C908.558838,428.378937 908.551697,521.167053 908.545898,613.955139 
	C908.545715,616.952271 908.643188,619.952332 908.331177,623.376648 
	C907.343567,627.819641 903.695435,628.374084 900.693848,629.501404 
	C879.984741,637.279419 859.246216,644.979736 838.506714,652.676392 
	C820.106628,659.504944 801.726440,666.385925 783.346619,673.268311 
	C781.199646,674.072144 779.113647,675.348572 776.341797,674.254028 
z"/>
<path fill="#F9F43A" opacity="1.000000" stroke="none" 
	d="
M452.441895,795.084839 
	C452.035034,793.087708 451.934692,791.257263 451.934631,789.426880 
	C451.927612,594.971375 451.953522,400.515900 451.869904,206.060455 
	C451.864441,193.343140 455.242065,182.435165 465.575836,174.371796 
	C472.142303,169.248077 479.748810,167.052994 487.937164,167.046677 
	C554.421875,166.995361 620.907043,166.895294 687.391235,167.090729 
	C708.237000,167.152008 722.621033,181.311935 723.127441,202.149979 
	C723.592773,221.300507 723.578613,240.478668 723.150208,259.630676 
	C722.673828,280.924988 708.099792,294.840790 686.627502,294.960541 
	C659.634460,295.111084 632.640015,294.957611 605.646301,295.018097 
	C594.215515,295.043701 586.323181,300.565704 583.532104,310.118500 
	C582.721436,312.892822 582.775635,315.719360 582.774353,318.538879 
	C582.754272,363.361938 582.740784,408.185028 582.771179,453.008087 
	C582.781616,468.414032 590.570435,476.281921 606.198486,476.394745 
	C626.359497,476.540314 646.522339,476.452728 666.684387,476.427795 
	C679.112000,476.412415 689.962708,479.878326 697.830017,490.180084 
	C702.205811,495.909973 704.832336,502.383423 704.893555,509.548553 
	C705.069946,530.206970 705.376709,550.879272 704.821411,571.524353 
	C704.339600,589.440918 690.482849,603.406128 672.537292,603.976135 
	C651.563721,604.642334 630.557312,604.260925 609.565491,604.384827 
	C606.574707,604.402527 603.562317,604.526611 600.599915,604.910339 
	C589.753540,606.315491 582.844177,614.590210 582.795105,626.575012 
	C582.689941,652.235352 582.759338,677.896484 582.760498,703.557251 
	C582.761108,717.386902 582.768433,731.216614 582.809875,745.512329 
	C581.374207,749.395325 577.862732,749.668884 575.042603,750.710938 
	C550.862915,759.646057 526.741211,768.737000 502.556885,777.659119 
	C489.138489,782.609436 475.731415,787.590393 462.352478,792.647400 
	C459.264771,793.814514 456.233551,795.316772 452.441895,795.084839 
z"/>
<path fill="#F9F43A" opacity="1.000000" stroke="none" 
	d="
M2048.300049,251.016342 
	C2092.926025,251.003357 2137.086182,250.975006 2181.246338,251.017151 
	C2195.324951,251.030594 2204.784912,258.896881 2206.704590,272.040558 
	C2207.566162,277.941132 2205.538086,283.229095 2202.719482,288.219055 
	C2198.300049,296.042786 2193.823486,303.837982 2189.183838,311.532349 
	C2183.521729,320.922180 2181.088623,331.014404 2181.092773,341.971375 
	C2181.163086,521.278381 2181.142578,700.585449 2181.142578,879.892456 
	C2181.142578,901.717407 2171.077148,914.040100 2149.351562,915.363220 
	C2126.105713,916.778870 2102.688477,917.100098 2079.447266,915.028931 
	C2066.144043,913.843445 2056.072998,906.752747 2051.709961,893.298218 
	C2050.404053,889.270874 2050.623291,885.073547 2050.622803,880.922302 
	C2050.611328,701.948547 2050.577393,522.974792 2050.688721,344.001099 
	C2050.696533,331.478058 2048.121094,320.011292 2041.346924,309.387238 
	C2036.699463,302.098541 2032.502686,294.511322 2028.330933,286.932892 
	C2019.222900,270.387024 2028.927246,252.614853 2048.300049,251.016342 
z"/>
<path fill="#F9F43A" opacity="1.000000" stroke="none" 
	d="
M1536.409790,508.398682 
	C1529.422241,527.483582 1517.686401,542.831360 1502.290283,555.754517 
	C1490.803833,565.396179 1491.079712,575.016968 1503.015381,584.937073 
	C1523.025146,601.567810 1536.646606,622.017029 1542.611816,647.458252 
	C1546.699097,664.890808 1548.542480,682.617737 1548.858154,700.443359 
	C1549.911743,759.928833 1549.274414,819.423401 1549.272949,878.913940 
	C1549.272461,901.564209 1534.512817,915.839233 1511.798096,915.931824 
	C1493.467651,916.006592 1475.136597,915.979065 1456.805908,915.939270 
	C1433.243286,915.888184 1418.765991,901.534119 1418.742798,877.968323 
	C1418.680786,814.977173 1418.732300,751.985840 1418.706543,688.994629 
	C1418.703003,680.494507 1418.435425,671.981262 1416.618164,663.645081 
	C1411.812622,641.600708 1396.140381,628.929504 1372.751221,628.144409 
	C1366.592041,627.937622 1360.418945,627.977661 1354.255615,628.091858 
	C1340.232300,628.351624 1331.767456,637.016724 1331.764404,651.094299 
	C1331.748291,726.417114 1331.747314,801.739990 1331.763550,877.062805 
	C1331.766968,892.815796 1326.079712,905.260010 1311.351562,912.466980 
	C1306.014893,915.078491 1300.245850,915.916626 1294.371704,915.930420 
	C1275.707764,915.974243 1257.043335,916.013123 1238.379639,915.929749 
	C1215.518677,915.827576 1200.890747,901.251953 1200.863037,878.380981 
	C1200.788452,816.890076 1200.823364,755.399109 1200.755859,693.441650 
	C1200.705566,690.425232 1202.845093,689.816284 1204.531860,688.881592 
	C1243.279907,667.410156 1282.120117,646.105103 1320.949585,624.782288 
	C1359.927246,603.378113 1398.892578,581.950439 1437.885376,560.573364 
	C1468.846191,543.599731 1499.818359,526.643494 1530.664673,509.460510 
	C1532.351562,508.520874 1533.992920,507.078888 1536.409790,508.398682 
z"/>
<path fill="#F9F43A" opacity="1.000000" stroke="none" 
	d="
M1201.202148,516.276855 
	C1200.861816,412.102661 1200.811646,308.147919 1200.872681,204.193268 
	C1200.885864,181.811188 1215.457642,167.100784 1237.701660,167.050583 
	C1285.347046,166.943054 1333.013794,166.192001 1380.633301,167.323029 
	C1430.909668,168.517151 1474.257324,187.409073 1509.128906,224.055573 
	C1531.759399,247.837997 1542.618042,277.173096 1547.048218,309.249481 
	C1550.530396,334.460114 1548.891479,359.810242 1549.477539,385.564026 
	C1549.183472,388.725342 1546.880737,389.170258 1544.901245,389.904175 
	C1505.491821,404.516876 1466.120972,419.233154 1426.726685,433.886658 
	C1424.182617,434.832916 1421.614502,436.579773 1418.429077,434.642334 
	C1417.252075,431.883423 1417.503418,429.361176 1417.501343,426.877625 
	C1417.480713,402.407288 1417.695190,377.934479 1417.394653,353.467804 
	C1417.262085,342.682129 1416.686890,331.837402 1413.042236,321.458893 
	C1408.023071,307.166809 1398.365845,297.554382 1384.104004,292.538879 
	C1380.307129,291.203644 1376.406860,290.471741 1372.356323,290.502899 
	C1366.530518,290.547729 1360.703491,290.472137 1354.877686,290.522308 
	C1341.187378,290.640198 1333.532349,298.248413 1333.523315,311.869690 
	C1333.491333,360.310944 1333.513428,408.752167 1333.506714,457.193420 
	C1333.506348,459.855652 1333.597168,462.520996 1333.276855,465.601166 
	C1332.550903,468.903320 1330.154785,469.737396 1327.797485,470.617371 
	C1290.768799,484.440643 1253.703003,498.164246 1216.662476,511.955353 
	C1211.733276,513.790527 1207.034302,516.521545 1201.202148,516.276855 
z"/>
<path fill="#FCFAC1" opacity="1.000000" stroke="none" 
	d="
M775.794800,674.276855 
	C787.424011,670.964844 798.192688,666.172974 809.215393,662.104187 
	C840.344177,650.613892 871.415894,638.969116 902.505615,627.373474 
	C903.900940,626.853027 905.253479,626.218201 906.842529,625.356323 
	C911.942688,621.914795 913.993652,622.829834 914.435364,628.405579 
	C914.593262,630.398926 914.512268,632.402405 914.512390,634.401367 
	C914.515198,673.219360 914.525757,712.037354 914.504333,750.855347 
	C914.499817,759.021912 915.918884,766.831177 920.552979,773.695312 
	C929.082642,786.329529 941.445251,791.430298 956.047607,788.994080 
	C969.914856,786.680542 980.162842,778.815735 984.241394,764.554993 
	C985.806702,759.081848 986.525940,753.508179 986.519348,747.783325 
	C986.463623,699.302551 986.471680,650.821655 986.499512,602.340820 
	C986.503845,594.877075 987.129395,594.048645 993.489807,592.892700 
	C1008.648254,588.450562 1022.892700,582.556885 1037.345215,577.238525 
	C1064.884644,567.104187 1092.381104,556.853577 1119.886719,546.627502 
	C1121.429565,546.053955 1122.892334,545.265503 1124.627686,544.336792 
	C1129.367432,542.542114 1130.132568,544.443420 1130.122192,548.733032 
	C1129.979858,607.281616 1129.982056,665.830750 1130.113892,724.379395 
	C1130.123901,728.840515 1129.735229,732.511902 1125.008545,734.795227 
	C1115.570679,741.066223 1105.700684,745.922791 1096.096924,751.242310 
	C1070.606201,765.361633 1045.041626,779.348389 1019.517334,793.407898 
	C998.219727,805.139160 976.897766,816.826538 955.599060,828.555908 
	C930.216675,842.534241 904.805847,856.460876 879.439270,870.468140 
	C868.797363,876.344543 858.122009,882.161499 847.481934,888.042053 
	C846.603088,888.527771 845.689026,888.930359 844.289551,888.973145 
	C836.718872,894.337463 832.464844,888.092957 828.148926,884.442749 
	C810.049622,869.135071 795.642212,850.918823 786.010803,829.088806 
	C779.338806,813.966614 775.198242,798.169373 772.998413,781.834900 
	C768.479004,748.277283 770.541382,714.523376 769.943726,680.846375 
	C769.866150,676.476501 772.566711,675.637329 775.794800,674.276855 
z"/>
<path fill="#FBF9C1" opacity="1.000000" stroke="none" 
	d="
M1418.340210,434.977234 
	C1435.125000,429.117706 1451.522827,423.179260 1467.880493,417.131714 
	C1493.451294,407.677887 1518.996704,398.155914 1544.544556,388.640076 
	C1546.092041,388.063690 1547.565308,387.288330 1549.318970,386.315491 
	C1554.264526,384.443298 1555.224731,386.434998 1555.105713,390.917053 
	C1554.801147,402.384552 1555.336914,413.877411 1554.928101,425.338440 
	C1554.060913,449.646393 1552.387451,473.837036 1546.325684,497.609070 
	C1544.808838,503.557404 1539.950439,504.654785 1536.794922,508.485107 
	C1534.911133,507.831207 1533.801758,509.216492 1532.581787,509.886841 
	C1422.615112,570.316711 1312.663330,630.773743 1202.715332,691.237549 
	C1202.136230,691.556091 1201.623657,691.996094 1200.888428,692.677246 
	C1195.008179,695.075867 1195.001465,695.075867 1195.001221,689.098022 
	C1194.999512,634.401306 1195.057861,579.704407 1194.892212,525.008179 
	C1194.878784,520.562073 1195.849121,517.637817 1200.553711,516.202576 
	C1214.528320,511.913788 1227.690918,506.402863 1241.065063,501.483246 
	C1270.028687,490.829193 1298.927734,479.999969 1327.847534,469.227051 
	C1329.083618,468.766602 1330.262329,468.152191 1331.705688,467.356812 
	C1336.398682,464.423676 1337.995361,465.059113 1338.302734,469.922394 
	C1338.627441,475.063599 1338.317139,480.225769 1338.434570,485.376617 
	C1338.677856,496.036835 1344.270142,501.515839 1354.949951,501.579620 
	C1360.933594,501.615356 1366.917725,501.560272 1372.901367,501.591919 
	C1390.200073,501.683380 1406.157104,491.922516 1409.851440,471.302521 
	C1411.597046,461.559814 1411.665039,451.801819 1411.586548,442.001434 
	C1411.551270,437.595612 1413.355957,435.048004 1418.340210,434.977234 
z"/>
<path fill="#FCFAC1" opacity="1.000000" stroke="none" 
	d="
M451.742889,795.070923 
	C494.737976,779.091003 537.387756,763.264954 580.033630,747.428162 
	C580.803284,747.142273 581.524597,746.726013 582.557739,746.174438 
	C587.031799,744.254761 588.420471,745.639526 588.114929,750.099121 
	C587.762634,755.240173 587.915649,760.427246 588.060974,765.588379 
	C588.347656,775.769165 594.713806,781.981689 604.852417,781.994629 
	C632.178040,782.029480 659.508667,781.692322 686.827698,782.118469 
	C706.506958,782.425415 721.444153,792.616516 727.218872,811.493530 
	C728.428040,815.445923 729.016113,819.562805 729.010559,823.743591 
	C728.986450,841.905151 729.012268,860.066711 728.997925,878.228271 
	C728.981567,898.997437 717.920959,914.029724 698.018921,920.087646 
	C693.421326,921.487122 688.571472,921.916565 683.782166,921.921021 
	C619.633606,921.980103 555.484802,922.045166 491.336517,921.902527 
	C474.811981,921.865784 460.820892,916.343750 451.854614,901.353882 
	C447.614380,894.264954 446.152985,886.454834 446.089386,878.461487 
	C445.889221,853.303528 446.141937,828.141724 445.896484,802.984558 
	C445.853119,798.536194 447.125305,796.091553 451.742889,795.070923 
z"/>
<path fill="#F9F43A" opacity="1.000000" stroke="none" 
	d="
M1813.333740,288.397736 
	C1794.914917,282.020599 1776.711426,288.389374 1764.794922,305.770721 
	C1764.648682,306.750977 1764.529297,306.988892 1764.132568,307.512390 
	C1754.165527,312.650909 1743.812378,315.830505 1733.700806,319.594208 
	C1699.888794,332.179535 1666.096924,344.819672 1632.247559,357.304382 
	C1630.391724,357.988831 1628.593994,358.987457 1626.169922,358.269104 
	C1625.431763,332.380646 1625.812378,306.793427 1632.069458,281.651978 
	C1642.782104,238.607269 1668.714844,207.537109 1706.631348,185.521042 
	C1776.390747,145.015717 1868.272705,155.102921 1926.302368,209.864548 
	C1934.820068,217.902603 1942.250854,226.832001 1948.926392,236.858856 
	C1948.859619,240.426041 1945.893066,240.637695 1943.741943,241.454514 
	C1925.719971,248.297440 1907.633057,254.968796 1889.559937,261.675537 
	C1867.436523,269.885223 1845.299316,278.057648 1823.188599,286.302002 
	C1820.119995,287.446198 1817.164795,289.233582 1813.333740,288.397736 
z"/>
<path fill="#F9F43A" opacity="1.000000" stroke="none" 
	d="
M844.157043,889.233154 
	C860.015930,879.994751 876.062561,870.914856 892.213379,862.024414 
	C967.995972,820.308960 1043.806030,778.643066 1119.617554,736.980286 
	C1121.046021,736.195251 1122.321533,734.993896 1124.465332,735.056030 
	C1124.497559,755.256592 1123.827881,775.352600 1119.619019,795.176941 
	C1109.599976,842.367676 1082.622437,877.033081 1040.288452,898.990906 
	C973.464722,933.651062 907.879333,929.982178 844.157043,889.233154 
z"/>
<path fill="#F8F6C2" opacity="1.000000" stroke="none" 
	d="
M1625.524170,358.198242 
	C1643.297974,351.675568 1660.779541,345.388153 1678.190552,338.910461 
	C1706.499146,328.378357 1734.761597,317.721680 1763.382202,307.011230 
	C1764.088257,306.779175 1764.414551,306.584595 1764.800537,306.050903 
	C1764.901733,305.781006 1764.807129,305.784729 1764.777832,305.748413 
	C1765.558228,305.801727 1766.368042,305.891296 1767.593750,305.993561 
	C1768.344727,308.423248 1767.456909,310.624237 1766.542358,312.723541 
	C1763.248535,320.284180 1761.972168,328.193665 1761.992432,336.382263 
	C1762.022705,348.656708 1761.860229,360.933624 1762.062744,373.204803 
	C1762.155396,378.821594 1762.631226,384.324890 1756.725098,388.128540 
	C1755.314087,386.954132 1754.196533,388.106964 1753.095215,388.712158 
	C1711.135498,411.767761 1669.179565,434.830261 1627.236694,457.916534 
	C1626.701050,458.211395 1626.340210,458.823761 1625.740479,459.607208 
	C1620.585327,461.571655 1619.849976,459.389130 1619.885864,454.736267 
	C1620.110962,425.417511 1620.093262,396.095520 1619.898315,366.776306 
	C1619.869385,362.424011 1620.579590,359.375671 1625.524170,358.198242 
z"/>
<path fill="#FCFAC1" opacity="1.000000" stroke="none" 
	d="
M137.804657,911.421448 
	C143.543182,910.433228 148.456009,907.880737 153.566818,905.983948 
	C226.247498,879.008179 298.903809,851.966797 371.561737,824.929810 
	C372.796051,824.470520 373.977570,823.869202 375.474365,823.146729 
	C379.758850,821.414185 381.223999,822.396362 381.131409,827.025574 
	C380.838104,841.684814 381.399689,856.366211 380.914825,871.015381 
	C380.015259,898.193237 367.516449,915.465271 340.910278,923.345520 
	C327.000885,927.465149 313.267853,924.894348 300.271912,918.605164 
	C296.374298,916.718994 292.419800,914.921875 288.656219,912.792603 
	C276.731506,906.046082 264.500885,906.002075 251.608688,909.844360 
	C240.140747,913.262146 229.169739,918.127747 217.517197,920.960327 
	C191.728760,927.229126 166.226379,926.411621 141.005432,918.099731 
	C137.911072,917.079956 134.517273,916.890137 131.512665,914.984619 
	C133.054047,912.634277 135.864441,913.150269 137.804657,911.421448 
z"/>
<path fill="#F9F43A" opacity="1.000000" stroke="none" 
	d="
M1964.773193,272.481628 
	C1970.619995,289.361938 1973.242432,306.617706 1973.836304,324.138977 
	C1974.310059,338.118835 1974.278198,352.126221 1974.082886,366.115967 
	C1973.781982,387.664276 1959.313354,401.876434 1937.670166,402.029297 
	C1918.845581,402.162262 1900.019287,402.101929 1881.193848,402.046783 
	C1858.161865,401.979340 1843.850830,387.910736 1843.364624,364.819702 
	C1843.196411,356.826477 1843.316040,348.827179 1843.214355,340.362244 
	C1842.665649,337.389771 1844.773071,336.858368 1846.266602,336.037354 
	C1877.355835,318.946136 1908.343506,301.669861 1939.559814,284.809937 
	C1946.007202,281.327667 1952.272583,277.509338 1958.833984,274.235535 
	C1960.602173,273.353210 1962.301270,272.179749 1964.773193,272.481628 
z"/>
<path fill="#F9F43A" opacity="1.000000" stroke="none" 
	d="
M2193.213379,88.770065 
	C2199.770264,95.079330 2205.838867,101.147270 2205.597900,110.971001 
	C2205.491699,115.290749 2203.775635,117.829506 2199.953125,119.363831 
	C2195.556152,121.128654 2190.968262,121.856140 2186.282715,121.858887 
	C2139.288574,121.886429 2092.294434,121.880394 2045.300415,121.846893 
	C2043.314941,121.845474 2041.332397,121.447525 2039.343872,121.293335 
	C2022.726440,120.004822 2023.479492,108.038635 2029.763794,97.748024 
	C2036.139282,87.308167 2046.453857,81.170181 2057.278076,76.145821 
	C2070.989746,69.781105 2085.538818,66.411583 2100.565186,65.047073 
	C2104.035156,64.731987 2109.441895,60.152225 2110.573486,56.922768 
	C2111.377686,54.627586 2109.331787,54.517338 2108.458008,53.589996 
	C2104.539551,49.430508 2104.057861,43.915260 2107.358887,39.466442 
	C2110.435791,35.319839 2116.204834,34.004757 2120.778564,36.407303 
	C2127.001465,39.676125 2128.554443,48.521950 2123.160645,53.329082 
	C2120.172607,55.992287 2121.075684,57.815365 2122.894775,59.859951 
	C2125.539795,62.832573 2128.313477,64.919083 2132.956787,65.365738 
	C2155.023193,67.488342 2175.665039,73.797424 2193.213379,88.770065 
z"/>
<path fill="#FBF9C1" opacity="1.000000" stroke="none" 
	d="
M1965.300537,272.379456 
	C1963.899292,273.115021 1962.617065,273.471100 1961.481445,274.094452 
	C1923.088257,295.170593 1884.707642,316.269470 1846.336426,337.385529 
	C1845.337280,337.935364 1844.464600,338.714630 1843.328613,339.640320 
	C1838.937500,341.828308 1837.964722,340.350769 1837.851440,335.972992 
	C1837.553955,324.481750 1835.791504,313.307831 1828.029297,303.997040 
	C1824.317749,299.545044 1819.234131,297.140778 1814.454468,294.262878 
	C1812.514893,293.095001 1810.435669,292.159241 1807.954712,290.877472 
	C1809.958862,289.913177 1811.269897,289.282379 1812.798340,288.409302 
	C1823.653809,285.408966 1833.677612,280.917206 1843.949219,277.135162 
	C1877.468018,264.793488 1910.940674,252.326172 1944.421143,239.880356 
	C1945.953247,239.310837 1947.388550,238.480789 1949.013916,237.445709 
	C1954.380493,235.716156 1956.942261,238.552826 1959.000000,242.860413 
	C1962.341431,249.855499 1965.596436,256.851166 1968.336304,264.129639 
	C1969.872803,268.211304 1969.407104,270.504578 1965.300537,272.379456 
z"/>
<path fill="#F9F43A" opacity="1.000000" stroke="none" 
	d="
M2161.947754,213.000000 
	C2161.947754,187.035995 2161.942627,161.571976 2161.951172,136.107971 
	C2161.953369,129.525085 2162.392578,129.105621 2169.120361,129.096512 
	C2176.276855,129.086807 2183.434326,129.169861 2190.589355,129.066681 
	C2194.409424,129.011612 2195.981689,130.711563 2195.976562,134.485580 
	C2195.931396,168.936829 2195.937256,203.388168 2195.967773,237.839447 
	C2195.970947,241.300888 2194.651855,243.105911 2190.966797,243.063828 
	C2182.979004,242.972565 2174.988770,242.967484 2167.001221,243.066940 
	C2163.390137,243.111908 2161.884277,241.537491 2161.922607,237.965088 
	C2162.010254,229.810913 2161.948730,221.655136 2161.947754,213.000000 
z"/>
<path fill="#F9F43A" opacity="1.000000" stroke="none" 
	d="
M2153.929199,189.000000 
	C2153.928955,205.144318 2153.942139,220.788635 2153.921875,236.432922 
	C2153.914062,242.416504 2153.298584,243.017380 2147.345703,243.033997 
	C2140.189209,243.053955 2133.028809,242.892029 2125.877930,243.094116 
	C2121.685791,243.212601 2119.853516,241.807739 2119.867188,237.375107 
	C2119.972168,203.257523 2119.967041,169.139343 2119.869629,135.021698 
	C2119.857422,130.783432 2121.325439,128.937653 2125.680420,129.043884 
	C2133.165283,129.226456 2140.660645,129.221527 2148.145752,129.046204 
	C2152.523193,128.943680 2153.998779,130.898376 2153.973877,135.076630 
	C2153.867920,152.883865 2153.928955,170.692123 2153.929199,189.000000 
z"/>
<path fill="#F9F43A" opacity="1.000000" stroke="none" 
	d="
M2609.331055,183.625046 
	C2610.381104,192.312393 2607.537354,199.388443 2602.430908,205.681229 
	C2592.263916,218.210312 2582.030273,230.685303 2571.834717,243.191528 
	C2568.701172,247.035233 2564.883057,248.809418 2559.963867,247.098022 
	C2555.168945,245.429871 2552.813965,242.018890 2552.744385,236.912872 
	C2552.513428,219.943710 2551.969971,202.974411 2552.032959,186.006958 
	C2552.089844,170.689148 2563.790039,158.866302 2578.954346,158.050461 
	C2594.089844,157.236176 2607.342773,168.245728 2609.331055,183.625046 
z"/>
<path fill="#F9F43A" opacity="1.000000" stroke="none" 
	d="
M2036.163452,205.606934 
	C2035.841553,182.254272 2035.853149,159.110413 2035.880371,135.966537 
	C2035.887939,129.572220 2036.370728,129.088303 2042.670166,129.071533 
	C2049.496826,129.053375 2056.323486,129.051712 2063.150146,129.071976 
	C2069.233154,129.090012 2069.899170,129.774002 2069.903564,136.082123 
	C2069.916748,154.730682 2069.908936,173.379242 2069.913086,192.493927 
	C2069.453613,194.644684 2067.984619,195.178955 2066.607910,195.723114 
	C2057.934082,199.151886 2049.173584,202.352509 2040.423584,205.580078 
	C2039.155273,206.047913 2037.838745,206.223785 2036.163452,205.606934 
z"/>
<path fill="#F9F43A" opacity="1.000000" stroke="none" 
	d="
M2078.412598,190.188614 
	C2078.071533,171.630219 2078.107422,153.310242 2077.966553,134.991592 
	C2077.934082,130.759598 2079.483887,128.909302 2083.831299,129.018478 
	C2091.154785,129.202408 2098.491455,129.230850 2105.812988,129.008667 
	C2110.310059,128.872177 2112.099854,130.548004 2112.043701,135.121506 
	C2111.875732,148.776382 2111.990967,162.434723 2112.041992,176.560196 
	C2112.184326,178.790421 2110.733154,179.221893 2109.574707,179.676239 
	C2100.157471,183.370544 2090.690430,186.936478 2081.175293,190.372116 
	C2080.391602,190.655090 2079.547852,190.665863 2078.412598,190.188614 
z"/>
<path fill="#FAF8C1" opacity="1.000000" stroke="none" 
	d="
M2077.768799,190.102386 
	C2089.276611,185.828064 2100.453125,181.706390 2111.858887,177.306702 
	C2113.962646,177.859283 2116.160645,174.433609 2117.800781,177.360947 
	C2119.030029,179.554977 2117.673340,187.797806 2116.040283,188.935989 
	C2114.833008,189.777496 2113.566162,190.533508 2112.145996,191.623520 
	C2104.932617,197.546539 2096.569336,200.904480 2088.843750,205.344467 
	C2085.596191,207.210831 2082.650879,209.882751 2078.332764,210.189270 
	C2075.416260,211.505630 2072.842285,212.961273 2070.094727,214.718414 
	C2063.975586,219.802643 2056.965088,222.812515 2050.388428,226.513168 
	C2045.816406,229.085892 2041.402466,232.033371 2036.090820,233.937866 
	C2030.005981,235.498093 2030.005737,235.498093 2030.005127,229.208298 
	C2030.004639,224.238403 2030.374268,219.232697 2029.896973,214.309052 
	C2029.452637,209.723938 2031.052856,207.073624 2035.575439,205.605530 
	C2047.278442,202.198486 2058.151855,197.400528 2069.588135,193.103821 
	C2072.423828,192.058395 2074.930664,191.156723 2077.768799,190.102386 
z"/>
<path fill="#F9F43A" opacity="1.000000" stroke="none" 
	d="
M2077.999023,210.513611 
	C2089.072998,203.995132 2100.155518,197.940201 2111.602051,191.902344 
	C2111.970459,206.727386 2111.987061,221.535370 2111.974609,236.343323 
	C2111.969482,242.510727 2111.474121,243.016937 2105.534424,243.034286 
	C2098.213623,243.055679 2090.889648,242.911667 2083.573242,243.088043 
	C2079.450684,243.187408 2077.917480,241.434830 2077.975830,237.431274 
	C2078.104492,228.614960 2078.010498,219.795395 2077.999023,210.513611 
z"/>
<path fill="#F9F43A" opacity="1.000000" stroke="none" 
	d="
M2035.786621,234.388947 
	C2040.622925,229.666016 2046.705933,227.371429 2052.236816,224.159332 
	C2057.792236,220.932877 2063.540771,218.039276 2069.562744,215.009857 
	C2069.916748,222.513199 2069.829102,230.007721 2069.942383,237.499222 
	C2070.003418,241.534134 2068.319336,243.204544 2064.243652,243.092636 
	C2057.588135,242.909836 2050.923584,243.044846 2044.262939,243.043839 
	C2035.930542,243.042572 2035.930542,243.041733 2035.786621,234.388947 
z"/>
<path className='animate-ping' fill="#F8F6C2" opacity="1.000000" stroke="none" 
	d="
M1767.997559,305.996490 
	C1768.096558,305.964905 1768.198242,305.937164 1768.154785,305.957825 
	C1768.009766,306.006226 1768.000000,306.000305 1767.997559,305.996490 
z"/>
<path fill="transparent" opacity="1.000000" stroke="none" 
	d="
M993.907471,592.563049 
	C988.838867,594.236816 987.858887,597.502380 987.879578,602.494385 
	C988.084717,651.972717 988.087708,701.452698 987.924316,750.931396 
	C987.892639,760.520203 985.602844,769.625366 979.381348,777.434631 
	C970.305237,788.827026 952.520691,794.529663 938.461975,789.169067 
	C921.470703,782.690247 913.015503,770.379639 912.990540,752.129211 
	C912.934448,711.146484 912.907776,670.163391 913.037109,629.181030 
	C913.050476,624.941528 912.240601,623.107544 907.454712,625.050781 
	C907.006653,623.580017 906.908447,622.084167 906.908325,620.588257 
	C906.901367,526.646667 906.913696,432.705048 906.884460,338.763428 
	C906.881714,329.888977 907.433777,321.119629 910.641968,312.738556 
	C917.239014,295.504669 934.730713,284.714264 953.817871,286.037628 
	C972.221558,287.313599 987.932251,300.843842 991.928589,318.920685 
	C993.480591,325.940613 993.896301,333.069397 993.894531,340.248749 
	C993.873779,424.196564 993.884399,508.144409 993.907471,592.563049 
z"/>
<path fill="transparent" opacity="1.000000" stroke="none" 
	d="
M1418.733398,434.628845 
	C1413.332642,436.195007 1412.735352,439.897217 1412.912964,444.677521 
	C1413.338379,456.135803 1412.744019,467.465607 1409.347046,478.642822 
	C1404.320801,495.180878 1387.415283,502.786621 1375.616333,502.992828 
	C1367.958374,503.126648 1360.296143,503.080688 1352.636475,503.025635 
	C1343.922363,502.963013 1337.283081,496.419403 1337.061890,487.589752 
	C1336.920166,481.931458 1336.818359,476.255646 1337.110107,470.608948 
	C1337.299438,466.943817 1336.254395,465.703918 1332.336182,467.073090 
	C1331.881348,462.778534 1331.766113,458.452850 1331.764893,454.127197 
	C1331.752197,406.997192 1331.745605,359.867218 1331.764160,312.737213 
	C1331.770386,296.972382 1339.927246,288.726196 1355.742798,288.739594 
	C1366.013184,288.748322 1376.415283,287.674713 1386.337524,291.616028 
	C1407.005981,299.825989 1415.832886,316.210144 1417.926270,337.267151 
	C1419.296997,351.056061 1418.619873,364.884552 1418.695312,378.695953 
	C1418.796143,397.181030 1418.721191,415.667023 1418.733398,434.628845 
z"/>
<path fill="transparent" opacity="1.000000" stroke="none" 
	d="
M1764.594727,305.804688 
	C1764.693481,306.095642 1764.485352,306.410309 1763.999023,306.814911 
	C1763.909912,306.546051 1764.098755,306.187225 1764.594727,305.804688 
z"/>
</svg>