<svg version="1.1" id="Layer_1" xmlns="http://www.w3.org/2000/svg" xmlns:xlink="http://www.w3.org/1999/xlink" x="0px" y="0px"
	 width="100%" viewBox="0 0 3568 1176" enable-background="new 0 0 3568 1176" xml:space="preserve">
<path fill="#DC4DFF" opacity="1.000000" stroke="none" 
	d="
M3569.246338,903.659912 
	C3570.000000,995.324402 3570.000000,1086.648804 3570.000000,1177.979980 
	C2380.791748,1177.986572 1191.583740,1177.986572 2.187781,1177.986572 
	C2.187781,786.163574 2.187781,394.327057 2.187781,2.245259 
	C1191.333252,2.245259 2380.666748,2.245259 3570.000000,2.245259 
	C3570.000000,122.815529 3570.000000,243.470444 3570.000000,365.062683 
	C3569.499512,366.223267 3568.999023,366.446533 3567.730713,366.377716 
	C3560.716553,356.945435 3563.199463,346.152649 3561.679199,336.189362 
	C3555.047607,292.729340 3539.273926,253.721985 3506.074707,223.888443 
	C3466.897949,188.683197 3420.823730,169.138016 3367.765625,166.405502 
	C3332.169189,164.572266 3297.983398,169.959259 3265.395752,184.269440 
	C3198.598633,213.602005 3157.423584,263.153625 3148.758789,336.662506 
	C3144.753418,370.642456 3143.450684,404.808350 3145.928711,439.232147 
	C3147.768555,464.789337 3148.388184,490.325012 3153.236816,515.628296 
	C3162.508789,564.016663 3190.282715,599.598572 3229.195801,627.709595 
	C3271.883789,658.547668 3317.352539,685.201843 3360.773438,714.937622 
	C3384.552979,731.222290 3403.187744,751.370300 3409.028809,780.848267 
	C3410.582275,788.687378 3412.207764,796.578674 3412.336182,804.538696 
	C3412.791748,832.861694 3413.187988,861.207947 3412.293701,889.513977 
	C3411.080322,927.910950 3375.196533,954.321960 3338.630859,944.457031 
	C3314.096924,937.838074 3298.348145,917.429138 3297.607422,890.602051 
	C3297.064941,870.948242 3297.445557,851.278503 3297.463135,831.616211 
	C3297.468750,825.246704 3296.825928,819.005615 3295.455078,812.789124 
	C3291.345459,794.152161 3278.592041,783.059082 3259.574219,782.717712 
	C3234.585449,782.269165 3209.581787,782.268311 3184.593018,782.713196 
	C3164.273438,783.074951 3149.480713,796.445374 3146.462158,816.734131 
	C3143.308838,837.928223 3144.182129,859.165344 3145.853516,880.461243 
	C3147.154297,897.032593 3147.368408,913.623413 3150.093994,930.145630 
	C3159.770508,988.803955 3191.652832,1031.562012 3242.513184,1060.830566 
	C3278.522705,1081.553101 3317.660400,1092.942505 3359.050293,1091.040283 
	C3431.353516,1087.717529 3492.211182,1060.309692 3534.234863,998.823853 
	C3551.500244,973.562439 3559.295410,944.605591 3563.363525,914.565369 
	C3563.806152,911.298523 3563.499756,907.843506 3566.338867,904.461182 
	C3567.461182,903.708313 3567.976807,903.514099 3569.246338,903.659912 
z"/>
<path fill="#DC4DFF" opacity="1.000000" stroke="none" 
	d="
M3569.250977,427.638977 
	C3570.000000,541.375122 3570.000000,654.750244 3570.000000,769.062683 
	C3569.496094,770.222229 3568.992432,770.444397 3567.718994,770.370056 
	C3561.200684,762.647034 3562.879883,753.498108 3561.776367,745.189636 
	C3557.715820,714.616394 3548.730713,686.056091 3530.212402,661.046326 
	C3515.593506,641.303162 3496.836670,625.911621 3477.013916,611.750427 
	C3439.606445,585.026917 3400.344971,561.116577 3361.812500,536.102295 
	C3344.677002,524.978149 3328.156006,512.995544 3316.239014,496.241028 
	C3303.319092,478.076263 3298.690674,456.738708 3297.734863,434.899323 
	C3296.745117,412.281006 3297.024414,389.590088 3297.656738,366.947418 
	C3298.391113,340.648560 3316.699951,318.135132 3341.811768,311.689331 
	C3369.206787,304.657410 3398.113037,319.806946 3408.032715,346.385498 
	C3411.454590,355.554230 3412.452637,365.027618 3412.661621,374.795105 
	C3413.066895,393.736694 3410.666504,412.793488 3414.318604,431.609863 
	C3418.112305,451.154449 3430.359863,462.460144 3449.999512,463.130707 
	C3475.297607,463.994415 3500.667725,464.275757 3525.937012,463.013458 
	C3542.353516,462.193329 3554.772217,453.520660 3561.298096,437.731110 
	C3562.565674,434.664551 3563.450439,431.413940 3566.254395,428.261719 
	C3567.439697,427.594482 3567.970947,427.436218 3569.250977,427.638977 
z"/>
<path fill="#DC4DFF" opacity="1.000000" stroke="none" 
	d="
M3569.031006,787.767212 
	C3570.000000,821.375122 3570.000000,854.750244 3570.000000,889.062683 
	C3569.355225,890.153748 3568.710205,890.307434 3567.225098,889.930481 
	C3563.721436,886.851318 3563.628418,883.433594 3563.575195,880.166626 
	C3563.127686,852.725769 3563.140381,825.283020 3563.565430,797.841797 
	C3563.605957,795.219482 3563.765869,792.536377 3565.745361,789.366333 
	C3566.937256,788.241882 3567.499512,787.888123 3569.031006,787.767212 
z"/>
<path fill="#DC4DFF" opacity="1.000000" stroke="none" 
	d="
M3570.000000,427.062683 
	C3570.000000,428.000000 3569.142822,427.985504 3568.715576,428.019073 
	C3565.204590,426.632263 3564.058350,423.963959 3563.887207,420.832428 
	C3563.001709,404.626709 3562.825439,388.418945 3564.016357,372.218018 
	C3564.167236,370.160675 3565.090820,368.423676 3567.439453,366.456604 
	C3568.328613,365.941528 3569.163330,365.999786 3569.581543,365.999878 
	C3570.000000,386.041779 3570.000000,406.083588 3570.000000,427.062683 
z"/>
<path fill="#DC4DFF" opacity="1.000000" stroke="none" 
	d="
M3570.000000,787.100037 
	C3570.000000,788.000000 3569.161133,787.977295 3568.755859,787.868530 
	C3562.005615,782.818359 3562.843994,777.081543 3567.395996,770.469727 
	C3568.293457,769.906494 3569.143066,770.020996 3569.571533,770.010498 
	C3570.000000,775.400024 3570.000000,780.800049 3570.000000,787.100037 
z"/>
<path fill="#DC4DFF" opacity="1.000000" stroke="none" 
	d="
M3567.524902,890.830872 
	C3568.398438,890.254761 3569.186035,890.045105 3569.593018,890.022583 
	C3570.000000,894.083313 3570.000000,898.166687 3570.000000,903.125000 
	C3570.000000,904.000000 3569.155518,903.994934 3568.737305,904.051392 
	C3563.339355,900.455078 3563.354004,896.146545 3567.524902,890.830872 
z"/>
<path fill="#F9F43A" opacity="1.000000" stroke="none" 
	d="
M140.675568,1080.939941 
	C113.165390,1070.015381 88.849342,1055.313354 67.679291,1035.374023 
	C35.490978,1005.056946 18.341072,967.311584 12.036185,924.110474 
	C9.529475,906.934570 8.572451,889.642761 8.571215,872.297668 
	C8.559629,709.673218 8.536104,547.048767 8.595284,384.424286 
	C8.603783,361.068573 10.302133,337.872009 15.345961,314.948700 
	C25.792273,267.472015 51.278183,230.294128 90.957115,202.497467 
	C176.502808,142.569305 293.404083,148.154541 371.924591,215.994720 
	C405.359772,244.882034 424.289398,281.704254 432.049896,324.815338 
	C437.583710,355.556824 436.900208,386.556641 435.991882,417.511078 
	C435.399139,437.709991 420.577209,453.292938 400.750305,456.354950 
	C396.161530,457.063660 391.472687,457.394196 386.827209,457.419861 
	C366.499786,457.532135 346.171295,457.436127 325.843384,457.487549 
	C319.477875,457.503662 313.151062,457.052338 307.039490,455.329865 
	C288.680267,450.155487 276.911102,434.170319 276.317474,413.259552 
	C275.958282,400.605652 276.233582,387.934570 276.151978,375.271667 
	C276.115479,369.609070 275.618896,364.013794 274.593567,358.394348 
	C268.768524,326.469666 241.719879,313.817383 220.553253,314.725891 
	C194.107437,315.860992 172.835709,336.934906 170.110504,364.095490 
	C169.513168,370.049072 169.467041,376.075745 169.465881,382.068787 
	C169.434082,546.359497 169.428833,710.650208 169.483582,874.940918 
	C169.485916,881.926147 169.455887,889.014404 170.549408,895.878113 
	C174.937256,923.418945 198.091888,942.818970 224.883774,941.897278 
	C251.109268,940.994934 272.481201,919.924988 275.668335,891.696167 
	C276.115631,887.734253 276.164703,883.712280 276.169373,879.717834 
	C276.209778,845.060181 276.211365,810.402527 276.186523,775.744873 
	C276.182953,770.753235 276.032288,765.795349 274.769379,760.871521 
	C272.033478,750.204834 265.866425,742.345642 256.081970,737.444763 
	C251.927155,735.363647 247.538177,733.730957 243.198181,732.042114 
	C226.100266,725.388977 216.960709,712.490112 216.485931,694.605286 
	C215.761078,667.299866 215.665726,639.942200 216.484039,612.642151 
	C217.190521,589.073608 233.613434,573.263550 257.186859,571.445190 
	C260.172119,571.214905 263.176147,571.143188 266.171509,571.141724 
	C306.161133,571.122375 346.168762,571.870544 386.134827,570.900330 
	C419.814941,570.082703 436.920258,591.450806 436.726929,621.145630 
	C435.969788,737.442688 436.431213,853.747681 436.488831,970.979980 
	C437.101837,979.102173 431.379150,980.557922 426.546021,982.339355 
	C374.165375,1001.646057 321.939911,1021.371216 269.560333,1040.677246 
	C231.209610,1054.812500 193.164795,1069.778198 154.534088,1083.152588 
	C149.836700,1084.778931 144.991119,1087.086792 140.675568,1080.939941 
z"/>
<path fill="#F9F43A" opacity="1.000000" stroke="none" 
	d="
M3568.229492,889.312988 
	C3568.263916,894.301575 3568.129639,898.348328 3568.156982,903.251465 
	C3565.468018,955.396057 3547.908447,1000.239929 3509.772949,1035.732788 
	C3479.042236,1064.333862 3442.799072,1082.776367 3401.665527,1090.810303 
	C3330.434570,1104.723145 3265.957275,1089.013550 3209.307861,1043.716797 
	C3170.679199,1012.829224 3150.736572,971.193665 3144.076904,922.760132 
	C3139.425537,888.936829 3140.537598,854.891846 3141.306641,820.947266 
	C3141.876465,795.788940 3159.404053,778.555115 3184.583740,777.726013 
	C3209.876465,776.893311 3235.237061,776.971069 3260.533691,777.751648 
	C3282.521240,778.429993 3297.650391,793.037537 3300.885010,814.860535 
	C3301.468262,818.794922 3301.631104,822.819946 3301.650635,826.804810 
	C3301.740479,845.132446 3301.666748,863.460815 3301.748291,881.788513 
	C3301.774902,887.777100 3301.996826,893.738220 3303.225830,899.676025 
	C3308.497559,925.142151 3327.626221,941.513855 3352.874512,941.931274 
	C3377.905029,942.345093 3400.013428,925.574585 3405.963867,901.637207 
	C3407.333984,896.125427 3408.211426,890.545227 3408.189209,884.840637 
	C3408.092529,859.849609 3408.214111,834.855469 3407.815918,809.869446 
	C3407.689453,801.914734 3406.556885,793.923218 3405.266357,786.049866 
	C3401.374512,762.302856 3389.448975,743.227417 3370.850098,728.142639 
	C3362.812988,721.624207 3354.292236,715.809998 3345.614990,710.198242 
	C3314.844971,690.298828 3284.064453,670.415527 3253.348633,650.432678 
	C3238.817627,640.979187 3224.909424,630.669189 3211.400391,619.787292 
	C3173.712158,589.428528 3152.745605,549.869019 3145.968018,502.303802 
	C3143.615234,485.794739 3141.897705,469.257294 3141.514404,452.574249 
	C3140.749023,419.254028 3139.882080,385.907104 3142.137695,352.640747 
	C3145.311279,305.837616 3159.332520,263.134888 3192.602051,228.495331 
	C3219.035156,200.973953 3250.879395,181.805862 3287.355469,171.273438 
	C3364.295166,149.057175 3435.144043,162.224289 3498.547852,211.332428 
	C3538.592285,242.348038 3559.093262,284.706299 3565.956299,334.245819 
	C3567.330078,344.160614 3568.191162,354.102844 3568.207031,365.030090 
	C3568.230713,386.023132 3568.132812,406.104706 3568.161621,427.119476 
	C3567.894531,449.609528 3546.537598,467.381439 3525.687744,468.010193 
	C3509.717041,468.491821 3493.724121,468.276184 3477.741211,468.310638 
	C3468.417480,468.330750 3459.079834,468.545959 3449.773193,468.124542 
	C3428.614502,467.166412 3412.792725,453.044708 3409.302490,432.138702 
	C3408.540039,427.571716 3408.392578,422.867554 3408.341797,418.222473 
	C3408.159424,401.573669 3408.688965,384.897736 3407.920898,368.279602 
	C3406.951904,347.314117 3398.510986,330.319214 3378.838379,320.500824 
	C3345.433594,303.829010 3306.195557,324.671875 3302.822998,363.030151 
	C3300.004639,395.080902 3299.277344,427.569031 3305.987305,459.545441 
	C3310.599365,481.525635 3321.317627,499.772919 3339.001465,513.848267 
	C3347.091064,520.287231 3355.542725,526.186646 3364.203857,531.807800 
	C3395.201172,551.925476 3426.265381,571.941040 3457.169434,592.200989 
	C3474.440430,603.523499 3491.046631,615.753113 3506.789307,629.184143 
	C3541.424805,658.732605 3560.180420,696.525452 3565.912842,741.259644 
	C3567.055420,750.177368 3568.241699,759.087891 3568.191406,769.007690 
	C3568.281494,775.266235 3568.269287,780.626038 3568.303711,786.872803 
	C3568.254639,807.014221 3568.132324,826.268555 3568.071533,845.523010 
	C3568.026367,859.805664 3568.061279,874.088501 3568.229492,889.312988 
z"/>
<path fill="#F9F43A" opacity="1.000000" stroke="none" 
	d="
M3079.853516,273.786682 
	C3081.974365,306.292694 3061.672852,327.312469 3028.215576,326.104919 
	C2998.261719,325.023834 2968.238281,325.871002 2938.245361,325.892517 
	C2933.591309,325.895874 2928.955078,325.812439 2924.437500,327.484100 
	C2914.851074,331.031342 2908.879150,337.526733 2907.512207,347.790680 
	C2907.030518,351.408142 2906.888916,355.093903 2906.886230,358.748718 
	C2906.847656,411.069550 2906.859863,463.390381 2906.861328,515.711243 
	C2906.861328,517.377441 2906.828369,519.045715 2906.895264,520.709595 
	C2907.625244,538.835510 2916.891357,548.175293 2935.193115,548.444336 
	C2955.184082,548.738281 2975.182373,548.527527 2995.177490,548.536133 
	C2999.176514,548.537842 3003.175537,548.524414 3007.174561,548.538635 
	C3040.816162,548.658264 3057.504395,565.356323 3057.586670,599.047424 
	C3057.633301,618.042786 3057.610840,637.038330 3057.579346,656.033813 
	C3057.574463,659.027893 3057.536621,662.041687 3057.206543,665.012268 
	C3054.413818,690.140564 3037.959717,705.394836 3012.575928,705.750916 
	C2988.919678,706.082886 2965.254883,705.827881 2941.593994,705.845520 
	C2938.262451,705.848022 2934.916504,705.749878 2931.601562,706.009155 
	C2917.917236,707.079712 2908.855957,715.767273 2907.275391,729.365234 
	C2906.892090,732.661804 2906.877197,736.013672 2906.875732,739.340210 
	C2906.852539,791.994324 2906.859375,844.648376 2906.859375,897.302490 
	C2906.859375,897.968994 2906.856934,898.635559 2906.862793,899.302002 
	C2907.061768,921.789062 2915.864014,930.629761 2938.614746,930.724731 
	C2968.273682,930.848572 2997.933594,930.730103 3027.593262,930.787781 
	C3031.913574,930.796204 3036.258057,930.983337 3040.549316,931.462891 
	C3062.711914,933.939331 3078.468262,949.127380 3079.384521,971.319214 
	C3080.414795,996.266846 3080.489990,1021.327698 3079.386719,1046.268799 
	C3078.278076,1071.333740 3059.360596,1087.863770 3033.472412,1087.941162 
	C2977.153076,1088.109497 2920.832764,1088.000366 2864.512939,1088.001709 
	C2840.518799,1088.002319 2816.524414,1087.955688 2792.530273,1088.014893 
	C2784.741943,1088.034058 2777.235352,1086.844360 2770.272705,1083.272461 
	C2758.296143,1077.128174 2750.776611,1067.433960 2747.791992,1054.288208 
	C2746.380371,1048.070312 2746.312500,1041.745728 2746.312988,1035.398926 
	C2746.336914,764.130310 2746.336914,492.861755 2746.314697,221.593155 
	C2746.314209,215.248199 2746.416748,208.934036 2747.719971,202.693756 
	C2751.333252,185.396210 2764.906494,172.340027 2782.355225,169.728729 
	C2787.275879,168.992325 2792.301514,168.651443 2797.279297,168.647232 
	C2874.594238,168.581757 2951.908936,168.599548 3029.223877,168.610336 
	C3031.887451,168.610703 3034.564209,168.593628 3037.212891,168.829514 
	C3063.965088,171.212326 3079.496826,187.865128 3079.798828,214.832077 
	C3080.015381,234.159073 3079.849365,253.490341 3079.853516,273.786682 
z"/>
<path fill="#F9F43A" opacity="1.000000" stroke="none" 
	d="
M2131.033691,441.430573 
	C2131.595703,585.617188 2131.602783,729.272217 2131.653320,872.927246 
	C2131.656494,881.905823 2131.421631,890.878723 2133.548340,899.771606 
	C2139.479492,924.574707 2160.606201,941.976379 2185.113037,941.917664 
	C2209.733643,941.858704 2230.740479,924.393860 2236.355469,899.517761 
	C2237.689209,893.609375 2238.177246,887.675903 2238.180664,881.667847 
	C2238.200439,846.004089 2238.314941,810.339966 2238.173340,774.676819 
	C2238.084717,752.363342 2230.781738,742.057495 2209.930420,733.771545 
	C2186.584473,724.494324 2178.391357,712.574890 2178.303955,687.422424 
	C2178.225098,664.757874 2178.322998,642.092651 2178.258301,619.427979 
	C2178.241943,613.723999 2178.708984,608.094788 2180.142334,602.585632 
	C2184.477295,585.926941 2198.518066,573.709534 2215.614258,571.810852 
	C2219.909424,571.333862 2224.258301,571.164307 2228.583008,571.159180 
	C2268.579834,571.111755 2308.576660,571.106750 2348.573486,571.154663 
	C2355.556641,571.163025 2362.572266,571.081909 2369.321045,573.453796 
	C2386.385742,579.451172 2396.099365,591.408936 2398.233643,609.347290 
	C2398.782715,613.962280 2398.779541,618.660583 2398.780518,623.320557 
	C2398.806885,753.310181 2398.815186,883.299744 2398.768066,1013.289368 
	C2398.765137,1021.615967 2398.537598,1029.958862 2397.990723,1038.266235 
	C2395.292725,1079.255493 2356.679199,1098.177490 2325.656494,1090.692871 
	C2320.113281,1089.355591 2314.810059,1087.451660 2309.686768,1085.020630 
	C2304.571777,1082.593628 2299.473633,1080.122681 2294.452881,1077.507324 
	C2279.548584,1069.743042 2264.093262,1068.053345 2248.005859,1073.134033 
	C2239.437012,1075.840210 2230.791016,1078.351318 2222.365234,1081.454224 
	C2180.004150,1097.054199 2138.204834,1095.501709 2096.718506,1078.080322 
	C2057.325684,1061.538086 2024.382812,1037.118652 2001.248413,1000.626099 
	C1985.989258,976.556030 1978.002197,949.925110 1974.002197,921.924500 
	C1971.449097,904.052612 1971.096313,886.067078 1971.091064,868.065857 
	C1971.058105,756.074768 1971.056519,644.083618 1971.005127,531.173096 
	C1968.918823,524.340881 1972.896973,521.722107 1977.069336,519.374756 
	C2003.082764,504.740540 2029.389526,490.637146 2055.449463,476.085724 
	C2073.401123,466.061859 2091.520264,456.340210 2109.506348,446.377106 
	C2115.777832,442.903137 2121.940430,436.619934 2131.033691,441.430573 
z"/>
<path fill="#F9F43A" opacity="1.000000" stroke="none" 
	d="
M928.775879,790.459229 
	C928.172974,737.908875 928.101135,685.945068 928.087769,633.981201 
	C928.066406,550.704224 928.125122,467.427246 928.061096,384.150330 
	C928.040039,356.732422 930.321777,329.639557 937.721252,303.102753 
	C947.782715,267.019135 967.350403,237.175949 996.032471,213.192276 
	C1080.623535,142.458145 1209.177246,143.976807 1292.039185,216.611588 
	C1326.107300,246.474747 1344.979492,284.376953 1352.053833,328.657684 
	C1355.004028,347.123352 1356.044922,365.701782 1356.027100,384.391815 
	C1355.950073,465.670044 1356.009521,546.948425 1356.075073,629.169678 
	C1356.921265,636.469727 1351.874268,637.728760 1347.692627,639.430115 
	C1321.852051,649.944153 1295.408569,658.857971 1269.349976,668.799194 
	C1249.184692,676.492249 1228.922363,683.929626 1208.589844,691.174194 
	C1203.761597,692.894470 1199.064331,694.418457 1193.906738,690.041565 
	C1190.318481,682.708618 1191.391968,675.609558 1191.384766,668.694946 
	C1191.286987,574.771606 1191.301514,480.848175 1191.365112,386.924835 
	C1191.371338,377.895172 1190.731567,368.981506 1189.105225,360.106506 
	C1184.784790,336.531982 1165.798218,319.901581 1142.566040,319.441437 
	C1120.150757,318.997467 1100.709473,334.959198 1095.667236,358.140472 
	C1093.468506,368.249420 1092.609131,378.487518 1092.618164,388.876007 
	C1092.711060,495.122620 1092.687988,601.369324 1092.659790,707.616028 
	C1092.658203,713.934509 1093.016357,720.280945 1091.529541,727.376099 
	C1090.534180,733.869751 1086.858765,736.719910 1081.801025,738.577148 
	C1035.043457,755.747070 988.506836,773.512451 941.731079,790.633728 
	C937.730652,792.098022 933.558533,793.843018 928.775879,790.459229 
z"/>
<path fill="#F9F43A" opacity="1.000000" stroke="none" 
	d="
M530.813599,938.409241 
	C530.227661,934.492493 530.141968,931.161255 530.141846,927.829956 
	C530.135742,692.240723 530.135803,456.651520 530.139404,221.062302 
	C530.139526,214.402588 530.044556,207.765442 531.751465,201.205215 
	C536.173767,184.209198 549.259766,172.129425 566.579529,169.660400 
	C571.505310,168.958206 576.527710,168.649094 581.506287,168.645111 
	C658.480896,168.583664 735.455627,168.602295 812.430298,168.602554 
	C813.429993,168.602554 814.429810,168.592331 815.429321,168.608170 
	C846.467773,169.100357 863.366455,186.141281 863.568848,217.370178 
	C863.698425,237.362762 863.615845,257.356934 863.568970,277.350250 
	C863.561951,280.339539 863.401001,283.350128 863.020142,286.313446 
	C859.933167,310.332367 843.621826,325.067871 819.278076,325.824585 
	C814.284302,325.979828 809.282104,325.874786 804.283813,325.875641 
	C776.626221,325.880371 748.968689,325.892273 721.311096,325.872162 
	C716.292114,325.868500 711.320618,325.988464 706.596741,328.016968 
	C698.737244,331.391968 693.596252,337.037567 691.592773,345.471039 
	C690.500244,350.070038 690.537659,354.719269 690.538086,359.384827 
	C690.542786,411.367737 690.540405,463.350647 690.543579,515.333557 
	C690.543701,517.665833 690.464233,520.005554 690.614868,522.329285 
	C691.671753,538.632446 701.054077,548.128723 717.524780,548.386414 
	C741.844238,548.766846 766.174072,548.448425 790.498474,548.591675 
	C795.807129,548.622925 801.180969,548.937988 806.405579,549.824768 
	C823.962158,552.804626 837.714844,567.115479 840.172852,584.750061 
	C840.768921,589.026489 841.063538,593.377319 841.084412,597.695923 
	C841.179382,617.355713 841.146057,637.016113 841.116455,656.676331 
	C841.107422,662.679993 840.824890,668.693542 839.236145,674.510498 
	C834.048096,693.505859 818.107361,705.437256 796.609741,705.740479 
	C772.955444,706.074219 749.293091,705.826294 725.634216,705.843872 
	C722.302673,705.846313 718.959595,705.752686 715.641602,705.984985 
	C701.888489,706.947998 692.801819,715.418213 690.962769,729.033081 
	C690.563538,731.988647 690.559143,735.012329 690.558228,738.004700 
	C690.543701,783.989380 690.559692,829.974121 690.619507,876.882202 
	C691.274475,884.681824 685.697388,885.765076 681.219727,887.491272 
	C642.116455,902.566040 602.661316,916.702515 563.452515,931.498230 
	C556.610474,934.080078 549.910156,937.076904 542.823242,938.995728 
	C538.996765,940.031799 535.177124,941.688599 530.813599,938.409241 
z"/>
<path fill="#F9F43A" opacity="1.000000" stroke="none" 
	d="
M2512.287354,1082.086548 
	C2496.875000,1073.378662 2492.305176,1060.167236 2492.317139,1043.916504 
	C2492.467773,837.590210 2492.416016,631.263611 2492.415771,424.937103 
	C2492.415771,411.604218 2492.033691,398.257477 2492.516846,384.942139 
	C2493.055176,370.110321 2489.514648,356.653900 2481.675537,344.091949 
	C2476.211426,335.334778 2471.488525,326.116333 2466.068115,317.330078 
	C2452.375732,295.135345 2469.297363,271.382263 2492.120361,271.678375 
	C2545.776123,272.374420 2599.448975,272.149384 2653.111084,271.767334 
	C2672.397461,271.630005 2686.629883,286.937561 2683.983398,305.075745 
	C2683.245361,310.135590 2680.989990,314.561401 2678.491455,318.901428 
	C2673.172119,328.140869 2667.968506,337.450439 2662.471924,346.583466 
	C2655.931396,357.450958 2652.813721,369.162842 2652.916992,381.795868 
	C2652.949707,385.795410 2652.910645,389.795532 2652.910645,393.795380 
	C2652.909912,607.454956 2652.909912,821.114563 2652.909668,1034.774170 
	C2652.909668,1038.440674 2652.935303,1042.107544 2652.900146,1045.773804 
	C2652.661133,1070.609009 2638.069580,1086.246094 2613.059082,1087.667725 
	C2601.095947,1088.347900 2589.068604,1087.929932 2577.070312,1087.957397 
	C2564.070801,1087.987061 2551.071045,1087.919800 2538.071777,1087.964966 
	C2529.272705,1087.995483 2520.841309,1086.487061 2512.287354,1082.086548 
z"/>
<path fill="#F9F43A" opacity="1.000000" stroke="none" 
	d="
M1859.842773,589.339539 
	C1853.823120,609.321411 1842.305298,625.375244 1827.210571,639.030640 
	C1823.259766,642.604797 1819.092529,646.012085 1815.587036,649.991455 
	C1807.482666,659.191101 1807.504639,667.548462 1815.434448,676.771606 
	C1818.027954,679.788025 1820.975708,682.556274 1824.040527,685.102173 
	C1851.828979,708.186279 1866.368530,738.389160 1872.115356,773.493530 
	C1876.331177,799.244751 1877.323975,825.216614 1877.443726,851.201416 
	C1877.732544,913.861023 1877.562500,976.522705 1877.589233,1039.183594 
	C1877.592529,1046.908081 1876.966919,1054.590454 1873.817627,1061.701172 
	C1866.869873,1077.388428 1854.591064,1086.937988 1837.578491,1087.514893 
	C1810.616455,1088.429199 1783.575806,1088.463745 1756.615234,1087.525146 
	C1735.702759,1086.797241 1720.111938,1070.872803 1717.599854,1050.042603 
	C1717.003418,1045.097534 1716.777832,1040.079956 1716.774414,1035.095459 
	C1716.723755,960.435608 1716.761230,885.775818 1716.714478,811.115967 
	C1716.707397,799.793152 1716.672119,788.470642 1714.102905,777.308899 
	C1708.711182,753.886047 1693.428833,739.588867 1669.710815,735.902222 
	C1659.100952,734.253052 1648.430176,734.503235 1637.780640,734.800049 
	C1619.048584,735.322144 1609.778442,748.608093 1609.855591,764.362854 
	C1610.301392,855.352356 1610.079346,946.345093 1610.051514,1037.336792 
	C1610.049683,1043.316650 1610.219116,1049.287964 1608.641602,1055.202148 
	C1603.697388,1073.737305 1589.202148,1086.978394 1570.100952,1087.552979 
	C1543.132812,1088.364258 1516.091187,1088.522583 1489.138062,1087.482666 
	C1467.148682,1086.634155 1451.065674,1068.994263 1449.824341,1046.963867 
	C1449.599609,1042.975098 1449.639038,1038.968506 1449.637939,1034.970215 
	C1449.616943,962.643921 1449.608643,890.317688 1449.531006,817.065186 
	C1448.115967,810.120850 1452.467896,807.928711 1456.575439,805.627258 
	C1489.644897,787.098145 1522.984497,769.058350 1556.147339,750.698303 
	C1612.865723,719.297058 1669.786133,688.262756 1726.505005,656.860901 
	C1766.938232,634.475342 1807.597290,612.493835 1847.999390,590.047241 
	C1851.541016,588.079651 1855.262817,586.536133 1859.842773,589.339539 
z"/>
<path fill="#F9F43A" opacity="1.000000" stroke="none" 
	d="
M1450.349609,596.619019 
	C1449.762207,586.345825 1449.643555,576.690491 1449.642456,567.035095 
	C1449.629883,451.148193 1449.628296,335.261292 1449.651123,219.374405 
	C1449.652466,212.401123 1449.409302,205.417923 1451.766235,198.630127 
	C1457.411499,182.371338 1468.701416,172.733429 1485.541748,169.723755 
	C1490.099609,168.909164 1494.811157,168.658218 1499.452637,168.652237 
	C1553.067017,168.583084 1606.681396,168.556320 1660.295654,168.627731 
	C1716.999878,168.703278 1767.630737,186.086288 1811.253662,222.597946 
	C1847.722900,253.122147 1867.042969,293.019501 1874.006836,339.513367 
	C1878.718018,370.967712 1877.331909,402.629059 1877.683350,435.181488 
	C1877.663940,443.111725 1871.994019,444.387146 1867.131836,446.251373 
	C1833.979736,458.962738 1800.564087,470.970184 1767.353760,483.528534 
	C1754.941284,488.222260 1742.641724,493.242554 1729.980835,497.256256 
	C1724.929321,498.857666 1719.784668,500.799622 1714.164551,496.441223 
	C1710.577271,490.590179 1711.440063,484.802917 1711.411133,479.227142 
	C1711.247192,447.613647 1711.384277,415.999237 1711.320190,384.385193 
	C1711.226562,338.260529 1679.584595,316.468445 1633.246216,323.668945 
	C1623.041992,325.254547 1616.939575,332.154785 1615.276855,342.552979 
	C1614.484985,347.505615 1614.679199,352.511810 1614.676514,357.499451 
	C1614.647583,410.411469 1614.681274,463.323456 1614.641846,516.235474 
	C1614.637695,521.880371 1614.989624,527.562073 1613.349976,533.938782 
	C1611.938232,542.049683 1605.613525,543.738342 1600.229736,545.758484 
	C1570.141479,557.048584 1539.933716,568.019775 1509.863892,579.362671 
	C1494.673828,585.092651 1479.493652,590.850159 1464.168579,596.217773 
	C1459.791016,597.750977 1455.540039,599.923035 1450.349609,596.619019 
z"/>
<path fill="#36DF8E" opacity="1.000000" stroke="none" 
	d="
M927.612915,790.314331 
	C944.280945,785.641296 959.455750,778.897339 974.996826,773.208313 
	C1010.168335,760.333618 1045.218262,747.126892 1080.303467,734.017212 
	C1082.771729,733.095032 1085.124146,731.862793 1088.079834,730.268433 
	C1095.352905,725.806335 1098.598755,729.166687 1099.961182,735.470459 
	C1100.947144,740.032227 1100.638916,744.758606 1100.643921,749.420715 
	C1100.687500,790.057434 1100.676758,830.694153 1100.646484,871.330872 
	C1100.638794,881.734009 1101.792725,891.982788 1104.928467,901.868469 
	C1110.226196,918.569763 1126.895630,929.972595 1143.789307,928.904968 
	C1162.327026,927.733459 1177.052490,915.470032 1180.734741,897.822021 
	C1182.572388,889.014954 1183.415771,880.098694 1183.396240,871.043213 
	C1183.283569,819.081726 1183.325928,767.119873 1183.348511,715.158142 
	C1183.350708,710.162720 1183.294434,705.163696 1183.737427,700.179382 
	C1184.303833,693.805786 1186.830688,689.301758 1194.936401,689.725098 
	C1200.936035,690.131104 1205.313110,687.460876 1209.932861,685.754761 
	C1254.734863,669.209229 1299.498413,652.559082 1344.251221,635.880737 
	C1347.959229,634.498901 1351.897095,633.570862 1355.636719,630.609131 
	C1361.226196,629.629272 1364.653320,630.975037 1363.997314,637.065369 
	C1363.820312,638.710205 1363.992310,640.391846 1363.992310,642.056580 
	C1363.993286,711.643738 1363.911743,781.231140 1364.120728,850.817688 
	C1364.141357,857.665466 1363.275879,863.290222 1356.299072,867.271362 
	C1347.580811,879.729492 1333.730713,883.361206 1322.050415,889.890991 
	C1257.107056,926.197144 1191.667725,961.610596 1126.583130,997.668640 
	C1092.876709,1016.342712 1058.981689,1034.684448 1025.297852,1053.404663 
	C1021.931580,1055.275513 1018.302307,1055.273071 1014.019287,1056.038086 
	C1011.983093,1056.336914 1010.412842,1056.190430 1009.427856,1056.880005 
	C1005.019348,1059.966309 1001.690491,1058.327759 997.907593,1055.368286 
	C959.718079,1025.492432 935.436340,987.065125 926.029785,939.377991 
	C922.226990,920.099426 920.148376,900.646973 920.108948,880.994019 
	C920.056274,854.741516 920.187622,828.488037 919.975403,802.237122 
	C919.929932,796.609131 921.204529,792.473083 927.612915,790.314331 
z"/>
<path fill="#36DF8E" opacity="1.000000" stroke="none" 
	d="
M1449.166748,596.334412 
	C1468.548096,590.335327 1486.596680,582.803894 1504.928345,576.060730 
	C1536.028198,564.620911 1567.073242,553.031372 1598.123657,541.457642 
	C1601.841309,540.071899 1605.449707,538.393188 1609.665039,536.391846 
	C1617.400391,531.420837 1620.752075,535.125610 1622.008057,541.851746 
	C1623.169678,548.071838 1622.388184,554.471497 1622.830322,560.776672 
	C1623.391724,568.783936 1627.363892,574.255249 1635.539551,574.903137 
	C1646.799072,575.795410 1658.204102,576.419495 1669.385010,574.450317 
	C1689.316040,570.940063 1701.964111,555.303284 1703.221680,533.304138 
	C1703.734375,524.337280 1703.010132,515.331360 1703.794067,506.370453 
	C1704.394775,499.504944 1707.437256,495.037140 1715.996338,495.754242 
	C1719.935547,496.277466 1722.699829,495.034943 1725.498169,493.994568 
	C1774.131470,475.912872 1822.765137,457.831726 1871.382080,439.705841 
	C1873.228271,439.017548 1874.907227,437.881042 1877.207397,436.539001 
	C1882.031372,435.861847 1885.679199,436.001709 1885.698486,441.992676 
	C1885.831665,483.315155 1885.347778,524.560364 1876.751953,565.273132 
	C1874.611572,575.411133 1871.630859,584.468811 1860.919922,589.577148 
	C1856.906860,590.231140 1854.137085,592.180359 1851.241333,593.772644 
	C1719.802368,666.047058 1588.371338,738.336243 1456.955444,810.652771 
	C1454.643555,811.924927 1452.526978,813.552063 1449.891846,815.576294 
	C1442.029663,816.941833 1441.834595,816.943542 1441.779541,810.652771 
	C1441.651611,796.034729 1441.727295,781.414856 1441.727051,766.795715 
	C1441.726318,714.299683 1441.783569,661.803589 1441.650269,609.307861 
	C1441.635620,603.559998 1442.107788,598.660828 1449.166748,596.334412 
z"/>
<path fill="#36DF8E" opacity="1.000000" stroke="none" 
	d="
M529.662354,938.265076 
	C546.655945,933.514526 562.153076,926.696777 577.997986,920.878235 
	C612.838623,908.083984 647.598999,895.071228 682.376404,882.105591 
	C684.842590,881.186218 687.180725,879.923401 690.124451,878.312927 
	C696.018494,877.245850 698.760742,879.205078 698.428284,885.028931 
	C698.124939,890.343079 698.295288,895.692078 698.423828,901.021667 
	C698.790344,916.210938 704.764526,922.374146 719.765442,922.448303 
	C749.092957,922.593323 778.421753,922.550964 807.749695,922.468140 
	C814.435242,922.449280 821.053650,922.897339 827.667847,923.786987 
	C848.199219,926.548523 864.840820,941.343933 869.509583,961.526794 
	C870.777161,967.006104 871.527588,972.722290 871.595093,978.340820 
	C871.839417,998.667664 871.838562,1019.000671 871.631714,1039.328369 
	C871.525757,1049.736206 869.756348,1059.875244 864.545837,1069.155884 
	C855.322388,1085.583740 841.153442,1094.195557 822.564453,1095.808228 
	C819.583740,1096.066895 816.569641,1095.984497 813.570984,1095.984741 
	C735.584656,1095.992676 657.598389,1095.976685 579.612061,1096.013306 
	C571.906616,1096.016968 564.306885,1095.611938 556.925049,1093.113892 
	C536.994751,1086.369507 522.943176,1068.496094 522.425720,1046.214844 
	C521.667542,1013.571167 522.268982,980.897583 522.035400,948.238647 
	C521.996826,942.845642 524.802551,940.473450 529.662354,938.265076 
z"/>
<path fill="#F9F43A" opacity="1.000000" stroke="none" 
	d="
M1971.511230,402.180542 
	C1970.923950,372.490723 1971.248901,343.578339 1977.585205,315.011047 
	C1988.270508,266.835999 2014.065796,229.161972 2054.695801,201.361908 
	C2137.240479,144.882645 2246.310059,147.889801 2325.516846,208.948227 
	C2341.477295,221.251724 2355.295654,235.571350 2366.699219,253.102448 
	C2367.468750,260.806519 2361.820801,262.393555 2356.979248,264.177887 
	C2327.395020,275.081299 2297.901367,286.227844 2268.318604,297.132446 
	C2252.124756,303.101593 2236.023926,309.327301 2219.768066,315.109528 
	C2213.197021,317.446838 2206.584473,322.343170 2198.497803,317.051605 
	C2176.177246,311.319885 2158.405273,317.983887 2143.759277,335.479370 
	C2143.165039,343.628723 2137.260010,345.869659 2131.697998,347.963013 
	C2096.284424,361.291107 2060.742920,374.275970 2025.304932,387.540253 
	C2011.318115,392.775452 1997.492188,398.461792 1983.213623,402.902710 
	C1979.429565,404.079559 1975.659424,405.905212 1971.511230,402.180542 
z"/>
<path fill="#F9F43A" opacity="1.000000" stroke="none" 
	d="
M1013.802307,1056.592041 
	C1015.252197,1052.651367 1018.942200,1051.565552 1022.098267,1049.828247 
	C1100.929077,1006.435669 1179.781860,963.082886 1258.634888,919.730652 
	C1287.547974,903.834778 1316.464966,887.945984 1345.400879,872.091919 
	C1348.299927,870.503601 1350.970581,868.370056 1355.131836,867.877869 
	C1356.569702,896.926086 1354.212891,925.663208 1346.320068,953.812683 
	C1335.222656,993.391907 1312.953857,1025.262451 1280.126831,1049.787598 
	C1201.796509,1108.308472 1097.164429,1111.138550 1013.802307,1056.592041 
z"/>
<path fill="#36DF8E" opacity="1.000000" stroke="none" 
	d="
M1970.452148,401.993500 
	C1973.910522,401.879486 1976.331787,400.662537 1978.812988,399.740387 
	C2029.618530,380.856781 2080.426758,361.980225 2131.216309,343.054321 
	C2135.223877,341.560913 2139.575928,340.530182 2142.798340,336.354126 
	C2146.390869,338.016022 2148.177002,340.222717 2146.239990,344.142853 
	C2139.212891,358.363647 2139.470947,373.677856 2139.687500,388.999878 
	C2139.847168,400.287079 2139.217529,411.608459 2139.893555,422.857269 
	C2140.351074,430.471527 2138.545166,436.349884 2131.923828,441.339111 
	C2127.574951,441.233398 2124.552246,443.590820 2121.390625,445.325012 
	C2073.544189,471.570404 2025.716797,497.851227 1977.893921,524.140076 
	C1975.582397,525.410706 1973.043457,526.447998 1971.378174,529.654297 
	C1965.887695,530.313110 1963.323486,528.511719 1963.355591,522.725464 
	C1963.559448,485.984711 1963.538574,449.241821 1963.357666,412.500763 
	C1963.332397,407.376953 1965.601929,404.523651 1970.452148,401.993500 
z"/>
<path fill="#36DF8E" opacity="1.000000" stroke="none" 
	d="
M140.198425,1080.890381 
	C144.262222,1081.822754 147.957870,1080.832642 151.796631,1079.402710 
	C243.687531,1045.176514 335.604919,1011.021362 427.501343,976.809875 
	C430.279236,975.775696 432.884186,974.276917 436.053772,972.452515 
	C441.674286,971.521790 444.499115,973.065430 444.385559,979.056030 
	C444.025726,998.038574 444.601318,1017.048218 443.895203,1036.013062 
	C441.980774,1087.428101 393.316010,1109.318848 355.569489,1096.890137 
	C348.250153,1094.479980 341.266449,1091.277100 334.645355,1087.463135 
	C317.033051,1077.317627 299.041809,1076.006104 279.903778,1082.930664 
	C266.773193,1087.681519 253.694229,1092.771118 240.005188,1095.854004 
	C210.476334,1102.504395 181.187897,1101.809814 152.181381,1092.863403 
	C146.800720,1091.203857 141.393387,1089.630981 136.208206,1088.080688 
	C135.244995,1084.063965 140.097961,1084.389160 140.198425,1080.890381 
z"/>
<path fill="#F9F43A" opacity="1.000000" stroke="none" 
	d="
M2387.543945,299.247467 
	C2393.492920,315.648285 2396.291260,332.046356 2397.612305,348.637756 
	C2399.330078,370.213470 2399.313232,391.878510 2398.618896,413.491791 
	C2397.781738,439.542847 2382.349609,455.948669 2356.222168,457.088196 
	C2331.314941,458.174530 2306.284912,458.190247 2281.379150,457.086823 
	C2254.218262,455.883423 2238.664307,438.304993 2238.255371,410.800690 
	C2238.122070,401.817841 2238.189209,392.832031 2238.073242,382.913269 
	C2236.558350,376.182770 2241.208496,374.587402 2244.776123,372.456879 
	C2267.900635,358.647552 2291.870605,346.351715 2315.375732,333.220795 
	C2333.656006,323.008820 2352.019287,312.938965 2370.408203,302.921753 
	C2375.498779,300.148804 2380.426270,295.831879 2387.543945,299.247467 
z"/>
<path fill="#F9F43A" opacity="1.000000" stroke="none" 
	d="
M2565.879150,32.221443 
	C2564.192139,29.685316 2562.405762,28.053268 2561.336670,26.040260 
	C2558.348389,20.412996 2559.878662,13.731487 2564.734131,9.870088 
	C2569.531982,6.054545 2576.754395,6.218801 2581.309326,10.246932 
	C2586.017334,14.410400 2587.096436,20.971813 2583.905273,26.599289 
	C2583.258545,27.739992 2582.415771,28.849365 2581.429443,29.702845 
	C2578.257812,32.447704 2579.570801,34.960415 2581.709961,37.407192 
	C2585.050537,41.228470 2588.748291,43.564476 2594.341064,43.971786 
	C2613.803223,45.389160 2632.292725,50.713470 2649.542480,59.992439 
	C2659.910156,65.569481 2669.131348,72.583733 2676.488525,81.890045 
	C2680.091309,86.447044 2682.424805,91.403931 2682.579834,97.378212 
	C2682.806885,106.129272 2680.701416,109.391052 2672.065918,111.579315 
	C2666.577393,112.970055 2660.922852,113.416779 2655.222656,113.412384 
	C2600.261963,113.370064 2545.301025,113.394234 2490.340332,113.379372 
	C2483.324463,113.377472 2476.380615,112.876236 2469.734131,110.268456 
	C2464.832764,108.345299 2462.429443,105.056847 2462.469238,99.610458 
	C2462.525391,91.922073 2464.950195,85.301353 2469.879150,79.454643 
	C2476.870117,71.162666 2485.507568,65.015770 2495.011230,60.022007 
	C2512.023682,51.082668 2530.229248,45.775711 2549.285156,44.177979 
	C2557.560303,43.484161 2563.047363,40.527000 2565.879150,32.221443 
z"/>
<path fill="#36DF8E" opacity="1.000000" stroke="none" 
	d="
M2388.507812,299.310455 
	C2384.230713,300.164734 2381.214355,302.405731 2378.033203,304.153564 
	C2333.358154,328.698639 2288.710205,353.293243 2244.066650,377.895294 
	C2242.322510,378.856415 2240.685791,380.012360 2238.490234,381.528259 
	C2230.606445,383.214325 2230.484375,383.218781 2230.248535,376.766388 
	C2230.005615,370.123566 2229.871094,363.534515 2228.222168,356.991913 
	C2224.950928,344.012421 2217.962158,334.096313 2205.913818,327.920868 
	C2202.960205,326.406921 2200.139648,324.631744 2197.269043,322.957458 
	C2194.061523,321.086578 2195.801758,319.217438 2197.641357,316.892731 
	C2201.690186,316.428223 2205.164307,315.492004 2208.626465,314.203308 
	C2258.721924,295.556763 2308.840820,276.972504 2358.936279,258.325348 
	C2361.403320,257.406982 2363.706787,256.048615 2366.578125,254.301544 
	C2374.505859,252.281830 2378.638672,255.707672 2381.620850,262.387939 
	C2385.285889,270.596771 2389.106445,278.722900 2392.513672,287.057495 
	C2394.669922,292.332214 2393.837402,295.991302 2388.507812,299.310455 
z"/>
<path fill="#F9F43A" opacity="1.000000" stroke="none" 
	d="
M2577.019775,178.906219 
	C2577.713867,162.829819 2577.689453,147.497162 2577.799316,132.165482 
	C2577.865967,122.885742 2578.406982,122.319466 2587.212402,122.195602 
	C2595.543457,122.078407 2603.878662,122.248253 2612.210693,122.161583 
	C2617.186768,122.109818 2619.640137,124.391853 2619.605957,129.369370 
	C2619.592041,131.369019 2619.634766,133.368958 2619.634766,135.368774 
	C2619.636719,173.367233 2619.638184,211.365692 2619.631104,249.364151 
	C2619.630859,251.695999 2619.677002,254.037109 2619.493896,256.357513 
	C2619.221924,259.800262 2617.445801,261.973389 2613.794434,261.992859 
	C2603.795410,262.046234 2593.795898,262.029144 2583.796631,262.029449 
	C2579.597168,262.029572 2577.845703,259.684631 2577.819580,255.719284 
	C2577.803955,253.386185 2577.777832,251.053085 2577.776611,248.719986 
	C2577.766846,231.720703 2577.762451,214.721405 2577.723145,196.774551 
	C2572.843994,190.797256 2572.492432,185.397430 2577.019775,178.906219 
z"/>
<path fill="#F9F43A" opacity="1.000000" stroke="none" 
	d="
M3130.749756,159.952911 
	C3154.258301,151.121490 3182.392822,170.096054 3178.302246,198.433502 
	C3177.417236,204.562714 3174.899658,209.962906 3171.115234,214.672424 
	C3158.390381,230.507828 3145.485352,246.198547 3132.656494,261.950317 
	C3128.735107,266.764679 3123.988037,269.195251 3117.741943,266.987701 
	C3111.591064,264.813751 3108.957031,260.038452 3108.860352,253.860062 
	C3108.528076,232.548325 3107.756104,211.219147 3108.306885,189.926483 
	C3108.675049,175.690735 3116.980225,165.901108 3130.749756,159.952911 
z"/>
<path fill="#F9F43A" opacity="1.000000" stroke="none" 
	d="
M2634.819580,122.295036 
	C2644.734863,122.214722 2653.714844,122.065468 2662.688232,122.243996 
	C2669.658691,122.382668 2670.522217,123.397148 2670.912842,130.446091 
	C2671.041260,132.766891 2670.958740,135.099854 2670.958984,137.427261 
	C2670.960449,174.334000 2670.965576,211.240753 2670.949463,248.147491 
	C2670.947998,251.135300 2670.954590,254.138016 2670.672119,257.106659 
	C2670.383545,260.139832 2668.599365,261.948273 2665.418213,261.954468 
	C2655.112549,261.974457 2644.806152,261.998688 2634.501221,261.911591 
	C2631.295410,261.884491 2629.773438,259.832672 2629.546143,256.800873 
	C2629.397461,254.815323 2629.395264,252.815842 2629.395020,250.822601 
	C2629.387451,211.588409 2629.349121,172.354111 2629.452148,133.120193 
	C2629.462646,129.106323 2627.863525,124.063133 2634.819580,122.295036 
z"/>
<path fill="#F9F43A" opacity="1.000000" stroke="none" 
	d="
M2474.898193,214.620804 
	C2474.377441,186.973022 2474.304443,160.015198 2474.336182,133.057480 
	C2474.348389,122.795502 2474.957764,122.243683 2484.988525,122.150208 
	C2492.309814,122.081970 2499.634033,122.041527 2506.953857,122.163467 
	C2515.409424,122.304321 2516.125977,122.915039 2516.170654,131.284653 
	C2516.285889,152.917297 2516.223877,174.550903 2516.276611,197.124512 
	C2517.213135,201.464279 2515.654297,204.034393 2512.902832,205.440521 
	C2502.983398,210.509918 2492.520264,214.257050 2481.777344,217.154922 
	C2479.542969,217.757614 2477.250977,216.862701 2474.898193,214.620804 
z"/>
<path fill="#36DF8E" opacity="1.000000" stroke="none" 
	d="
M2473.912109,214.481049 
	C2478.975830,214.549500 2482.858398,212.355545 2486.842285,210.767685 
	C2496.398926,206.958496 2506.499756,204.483383 2515.882324,198.615997 
	C2519.396973,198.394333 2522.265869,197.641312 2525.738525,196.122742 
	C2528.985840,190.792847 2533.103271,187.589081 2538.588135,186.563232 
	C2548.177979,184.769577 2556.178711,176.937302 2567.493408,179.575653 
	C2570.888184,179.377563 2573.594482,178.797455 2576.991211,178.189697 
	C2578.756836,183.457581 2578.184570,188.797485 2577.900879,194.975464 
	C2574.019043,196.160049 2570.957031,197.640869 2568.307617,201.139923 
	C2556.428955,212.783325 2543.115967,220.648071 2526.709961,224.077454 
	C2522.438721,224.489105 2519.406006,226.071671 2516.471436,229.138702 
	C2504.906006,241.579132 2491.435303,249.430573 2474.707520,252.359192 
	C2466.637939,253.625397 2466.497314,253.629303 2466.317139,247.156097 
	C2466.134277,240.578461 2466.659424,233.961441 2466.148926,227.418274 
	C2465.670654,221.289612 2467.953369,217.378983 2473.912109,214.481049 
z"/>
<path fill="#F9F43A" opacity="1.000000" stroke="none" 
	d="
M2568.124023,179.025879 
	C2555.077637,186.058197 2541.342285,190.510010 2527.110352,195.638504 
	C2526.364990,174.260712 2526.205078,152.665756 2526.265381,131.071396 
	C2526.286865,123.351974 2527.361328,122.340347 2534.795654,122.177925 
	C2542.766357,122.003769 2550.744873,122.039848 2558.717285,122.160469 
	C2567.148438,122.288017 2567.902344,122.953629 2567.978027,131.245773 
	C2568.120361,146.860840 2568.048584,162.477859 2568.124023,179.025879 
z"/>
<path fill="#F9F43A" opacity="1.000000" stroke="none" 
	d="
M2526.076172,224.838943 
	C2538.679443,215.041473 2552.128418,207.563919 2567.178223,201.648193 
	C2567.960449,218.624481 2568.064209,235.574722 2567.984131,252.524094 
	C2567.942139,261.425476 2567.322998,261.948914 2558.221191,262.057404 
	C2550.578125,262.148499 2542.930908,262.178986 2535.289062,262.044647 
	C2527.078613,261.900269 2526.380859,261.188141 2526.245117,252.701752 
	C2526.101807,243.730179 2526.180908,234.755051 2526.076172,224.838943 
z"/>
<path fill="#F9F43A" opacity="1.000000" stroke="none" 
	d="
M2474.139404,252.813873 
	C2487.121826,243.792618 2500.505371,236.136200 2515.302734,229.660095 
	C2516.101074,237.616684 2516.304443,245.613449 2516.168213,253.604462 
	C2516.041748,261.031494 2515.267334,261.875946 2508.321777,262.029541 
	C2499.663574,262.221039 2490.991211,261.860107 2482.338379,262.143921 
	C2476.093018,262.348785 2473.976318,259.278503 2474.139404,252.813873 
z"/>
<path fill="#DC4DFF" opacity="1.000000" stroke="none" 
	d="
M1195.700195,689.149658 
	C1189.060303,692.441467 1187.553589,697.297791 1187.581055,704.079102 
	C1187.810425,760.675049 1187.683472,817.272461 1187.739502,873.869324 
	C1187.746826,881.215393 1187.283447,888.485229 1186.111816,895.737854 
	C1182.406860,918.672546 1164.692261,933.995117 1141.856812,933.911072 
	C1119.658813,933.829346 1101.821777,918.567139 1098.139893,896.285217 
	C1096.947266,889.067749 1096.299194,881.791138 1096.316284,874.426453 
	C1096.417480,830.813782 1096.367188,787.200684 1096.357910,743.587769 
	C1096.357300,740.592468 1096.261230,737.597290 1096.234985,734.601807 
	C1096.199829,730.576538 1093.702637,729.611694 1089.456299,729.765625 
	C1088.588989,633.111572 1088.547119,536.460938 1088.509644,439.810333 
	C1088.501953,420.146759 1088.505249,400.483185 1088.514160,380.819611 
	C1088.518188,372.136017 1089.025635,363.476257 1091.111084,355.026520 
	C1097.212769,330.302887 1119.375488,313.355652 1143.770630,314.596069 
	C1169.828979,315.921021 1189.839233,333.733673 1193.944824,359.351959 
	C1195.265381,367.592316 1195.641479,375.898376 1195.638062,384.253021 
	C1195.596558,485.570404 1195.625854,586.887817 1195.700195,689.149658 
z"/>
<path fill="#DC4DFF" opacity="1.000000" stroke="none" 
	d="
M1716.792358,494.920410 
	C1710.014893,499.133331 1707.940430,504.411011 1708.298218,511.952759 
	C1708.801025,522.547363 1708.970703,533.244995 1706.503052,543.761902 
	C1701.289062,565.983521 1686.297485,578.987671 1663.695190,580.183105 
	C1654.728516,580.657349 1645.711792,580.621094 1636.733398,580.334290 
	C1624.810425,579.953247 1618.400757,573.329529 1618.098022,561.529602 
	C1617.927368,554.874084 1617.946655,548.211182 1618.011475,541.552917 
	C1618.052979,537.292908 1616.107788,535.432861 1611.058594,535.915283 
	C1610.173462,472.614502 1610.040649,409.295563 1610.135254,345.976990 
	C1610.160522,329.078217 1620.679321,318.473480 1637.498291,318.094116 
	C1647.140259,317.876709 1656.876953,317.071014 1666.440308,318.729767 
	C1694.262939,323.555573 1713.133545,345.061829 1715.942627,375.035645 
	C1716.563354,381.658905 1716.696045,388.346161 1716.712280,395.004791 
	C1716.792725,427.997772 1716.758789,460.990997 1716.792358,494.920410 
z"/>
</svg>