<?xml version="1.0" encoding="UTF-8"?>
<svg id="Layer_2" data-name="Layer 2" xmlns="http://www.w3.org/2000/svg" viewBox="0 0 46.92 217.41">
  <defs>
    <style>
      .cls-1 {
        fill: #ff7900;
        stroke-width: 0px;
      }
    </style>
  </defs>
  <g id="Layer_1-2" data-name="Layer 1">
    <g>
      <rect class="cls-1" x="6.17" y="78.77" width="34" height="120.02"/>
      <path class="cls-1" d="M24.85,117.38l20.94-48.5c.54-1.25-.38-2.64-1.74-2.64H2.18c-1.36,0-2.28,1.39-1.74,2.64l20.94,48.5c.66,1.52,2.82,1.52,3.47,0Z"/>
      <rect class="cls-1" x="3.97" y="171.24" width="38.81" height="46.14" rx="1.49" ry="1.49"/>
      <path class="cls-1" d="M7.77,192.69l4.04,22.5c.21,1.15-.68,2.21-1.85,2.21H1.88c-1.17,0-2.05-1.06-1.85-2.21l4.04-22.5c.37-2.06,3.33-2.06,3.7,0Z"/>
      <path class="cls-1" d="M42.56,191.37l4.34,24.12c.18,1-.59,1.92-1.61,1.92h-8.67c-1.02,0-1.79-.92-1.61-1.92l4.34-24.12c.32-1.79,2.89-1.79,3.22,0Z"/>
      <rect class="cls-1" x="7.73" y="57.41" width="31.45" height="17.91"/>
      <path class="cls-1" d="M39.62,26.77v27.17c0,.85-.66,1.55-1.51,1.55H8.24c-.85,0-1.55-.7-1.55-1.55v-2.44l15.43-9.56c.33-.18.07-.7-.3-.55l-15.13,7.05v-21.67c0-.85.7-1.55,1.55-1.55h29.86c.85,0,1.51.7,1.51,1.55Z"/>
      <rect class="cls-1" x="4.6" y="56.53" width="37.39" height="3.59" rx=".99" ry=".99"/>
      <rect class="cls-1" x="3.55" y="21.77" width="38.97" height="2.56" rx=".62" ry=".62"/>
      <path class="cls-1" d="M23.22,7.09c10.5.04,14.44,6.48,18.56,16.02l-37.23-.24h0C7.81,13.62,12.78,7.05,23.22,7.09Z"/>
      <circle class="cls-1" cx="23.15" cy="2.37" r="2.37"/>
      <path class="cls-1" d="M22.94,2.82l-2.44,4.23c-.07.12.02.27.16.27h4.88c.14,0,.23-.15.16-.27l-2.44-4.23c-.07-.12-.25-.12-.32,0Z"/>
      <rect class="cls-1" x="6.69" y="36.65" width="28.11" height="15.55"/>
    </g>
  </g>
</svg>