<?xml version="1.0" encoding="iso-8859-1"?>
<!-- Uploaded to: SVG Repo, www.svgrepo.com, Generator: SVG Repo Mixer Tools -->
<svg fill="#0f172a" height="800px" width="800px" version="1.1" id="Layer_1" xmlns="http://www.w3.org/2000/svg" xmlns:xlink="http://www.w3.org/1999/xlink" 
	 viewBox="0 0 258.048 258.048" xml:space="preserve">
<g>
	<g>
		<g>
			<path d="M129.027,223.024c-2.948,0-5.348,2.316-5.348,5.164v9.408h10.696v-9.408C134.371,225.34,131.975,223.024,129.027,223.024
				z M132.111,235.32h-0.004h-6.164v-7.136c0-1.596,1.384-2.892,3.084-2.892s3.084,1.296,3.084,2.892V235.32z"/>
			<path d="M129.027,181.868c-2.948,0-5.348,2.316-5.348,5.16v9.408h10.696v-9.408C134.371,184.184,131.975,181.868,129.027,181.868
				z M132.111,194.168h-0.004h-6.164v-7.136c0-1.592,1.384-2.892,3.084-2.892s3.084,1.296,3.084,2.892V194.168z"/>
			<path d="M134.375,145.176c-0.004-2.848-2.4-5.164-5.348-5.164s-5.348,2.316-5.348,5.164v9.408h10.696V145.176z M132.111,152.312
				h-0.004h-6.164v-7.136c0-1.596,1.384-2.892,3.084-2.892s3.084,1.296,3.084,2.892V152.312z"/>
			<path d="M134.375,105.604c-0.004-2.844-2.4-5.16-5.348-5.16s-5.348,2.316-5.348,5.16v9.408h10.696V105.604z M132.111,112.74
				h-0.004h-6.164v-7.136c0-1.592,1.384-2.892,3.084-2.892s3.084,1.296,3.084,2.892V112.74z"/>
			<path d="M139.687,51.32c0-5.444-4.612-9.872-10.28-9.872c-5.672,0-10.284,4.428-10.284,9.872c0,5.444,4.612,9.868,10.284,9.868
				C135.075,61.188,139.687,56.764,139.687,51.32z M129.407,59.148c-4.548,0-8.248-3.512-8.248-7.832
				c0.004-4.316,3.704-7.832,8.248-7.832s8.244,3.512,8.244,7.832C137.651,55.632,133.951,59.148,129.407,59.148z"/>
			<path d="M129.407,45.032c-3.612,0-6.556,2.82-6.556,6.288c0,3.468,2.944,6.284,6.556,6.284s6.552-2.82,6.552-6.284
				S133.023,45.032,129.407,45.032z M129.407,56.472c-2.988,0-5.42-2.312-5.42-5.152c0-2.844,2.432-5.156,5.42-5.156
				c2.988,0,5.416,2.312,5.416,5.156C134.823,54.16,132.395,56.472,129.407,56.472z"/>
			<path d="M158.515,73.472v-15.94c0.04-0.34,0.088-0.68,0.088-1.032c0-2.564-1.304-7.292-9.896-10.264L147.263,32.1
				c5.048-1.368,8.432-3.404,8.432-6.088v-0.76l-21.04-13.112V2.484c0.004-0.036,0.028-0.064,0.028-0.1s-0.024-0.064-0.028-0.1V2.04
				h-0.068C134.103,0.124,129.911,0,129.019,0c-0.892,0-5.088,0.124-5.572,2.04h-0.064v0.232c-0.004,0.04-0.032,0.072-0.032,0.116
				c0,0.044,0.028,0.072,0.032,0.116v9.64l-21.04,13.112v0.76c0,2.68,3.384,4.72,8.428,6.088l-1.476,14.492
				c-7.744,2.984-9.012,7.44-9.012,9.904c0,0.496,0.044,0.984,0.124,1.456L99.919,68.82h-0.144l-6.488,170.168v4.468
				c0,2.828,1.664,5.256,4.424,7.288c0.036,0.032,0.064,0.06,0.108,0.084c6.524,4.724,19.116,7.22,31.2,7.22
				c17.32,0,35.732-5.112,35.732-14.592l-6.312-169.76C158.463,73.62,158.515,73.552,158.515,73.472z M155.727,56.5
				c0,2.176-1.588,4.516-5.316,6.38l-1.368-13.392C153.355,51.244,155.727,53.696,155.727,56.5z M129.027,85.48
				c12.156,0,20.972-2.512,25.604-6.92l0.228,6.008c-1.828,6.064-11.36,9.744-25.836,9.744c-14.472,0-24.012-3.68-25.84-9.744
				l0.232-6.04C108.039,82.956,116.851,85.48,129.027,85.48z M115.107,79.972l0.556-11.796c3.468,0.66,7.468,1.044,11.944,1.128
				v11.612v0.52C122.843,81.348,118.603,80.86,115.107,79.972z M130.443,81.44v-0.52v-11.6c3.64-0.04,6.968-0.272,9.968-0.684
				l0.696,11.712C137.995,80.988,134.427,81.364,130.443,81.44z M153.963,64.24v8.144c-1.028,3.212-4.596,5.72-10.056,7.284
				l-0.684-11.488C147.751,67.316,151.379,65.988,153.963,64.24z M129.027,2.04c1.304,0,2.312,0.164,2.956,0.344
				c-0.644,0.184-1.652,0.348-2.956,0.348s-2.316-0.164-2.96-0.348C126.707,2.204,127.719,2.04,129.027,2.04z M105.447,26.616
				l20.18-12.576l0.676-0.584l-0.076-8.64l-0.08-0.328c1.208,0.248,2.444,0.284,2.88,0.284c0.432,0,1.66-0.036,2.86-0.28
				l-0.064,0.324v7.652l-0.088,1.144l20.872,13.004c-1.52,1.9-9.72,4.76-23.58,4.76S106.967,28.52,105.447,26.616z M144.599,33.924
				c-1.828,1.264-6.56,2.364-15.68,2.364c-8.86,0-13.548-1.04-15.484-2.256l0.132-1.284c4.56,0.924,10.016,1.404,15.46,1.404
				c5.44-0.004,10.896-0.48,15.452-1.408L144.599,33.924z M113.331,35.044c2.796,1.352,8.168,2.12,15.588,2.12
				c7.608,0,13.052-0.812,15.784-2.224l2.98,29.072c-4.148,1.436-10.072,2.384-18.236,2.384c-8.708,0-14.876-1.08-19.048-2.676
				L113.331,35.044z M112.859,67.552L112.315,79.1c-4.672-1.66-7.664-4.104-8.4-7.156l0.368-8.184
				C106.379,65.348,109.259,66.624,112.859,67.552z M108.971,49.876l-1.284,12.596c-3.168-1.792-4.516-3.956-4.516-5.972
				C103.167,53.896,105.223,51.596,108.971,49.876z M103.027,88.8c3.648,4.36,11.668,7.788,26,7.788
				c14.328,0,22.348-3.428,25.996-7.788l0.784,20.508c-3.04,5.408-12.724,8.636-26.78,8.636c-14.064,0-23.748-3.228-26.78-8.64
				L103.027,88.8z M102.175,111.056c3.48,4.436,11.656,8.016,26.848,8.016c15.188,0,23.364-3.58,26.848-8.016l0.5,13.048
				c-2.192,6.148-12.248,9.864-27.344,9.864c-15.1,0-25.16-3.72-27.348-9.872L102.175,111.056z M101.595,126.356
				c3.124,4.776,11.4,8.752,27.432,8.752c16.028,0,24.304-3.976,27.432-8.748l0.928,24.332c-2.512,4.84-10.856,9.108-28.36,9.108
				c-17.504,0-25.852-4.268-28.36-9.112L101.595,126.356z M100.595,152.54c3.468,4.608,12.056,8.392,28.432,8.392
				c16.376,0,24.964-3.784,28.432-8.392l0.488,12.732c-1.528,5.404-9.684,10.556-28.916,10.556s-27.388-5.152-28.916-10.56
				L100.595,152.54z M160.747,238.988v4.468h0.008c0,1.696-1.588,3.452-4.356,5.044l-1.352-4.208c-0.1-0.304-0.46-0.484-0.8-0.392
				c-0.344,0.084-0.544,0.396-0.452,0.696l1.452,4.528c-1.98,0.988-4.448,1.888-7.296,2.644l-1.66-5.188
				c-0.1-0.304-0.452-0.476-0.8-0.396c-0.344,0.084-0.544,0.4-0.452,0.7l1.668,5.208c-2.2,0.528-4.608,0.968-7.18,1.296
				l-1.856-5.788c-0.1-0.304-0.456-0.488-0.8-0.392c-0.344,0.084-0.544,0.396-0.452,0.696l1.812,5.64
				c-2.384,0.264-4.904,0.42-7.528,0.472l-1.652-5.152c-0.1-0.304-0.46-0.488-0.8-0.392c-0.344,0.084-0.544,0.396-0.452,0.696
				l1.564,4.872c-0.116,0-0.224,0.008-0.34,0.008c-2.432,0-4.776-0.108-7.024-0.292l-1.568-4.892c-0.1-0.304-0.456-0.488-0.8-0.392
				c-0.344,0.084-0.544,0.396-0.452,0.696l1.428,4.452c-2.556-0.256-4.98-0.616-7.208-1.072l-1.588-4.952
				c-0.1-0.304-0.456-0.484-0.8-0.392c-0.344,0.084-0.544,0.396-0.452,0.696l1.388,4.324c-2.864-0.656-5.408-1.456-7.528-2.352
				l-1.932-6.016c-0.1-0.304-0.456-0.48-0.8-0.392c-0.344,0.084-0.544,0.396-0.452,0.696l1.596,4.98
				c-3.516-1.748-5.548-3.76-5.548-5.688v-4.392l0.044-1.116c5.452,4.888,17.428,8.216,31.688,8.216
				c14.264,0,26.24-3.328,31.692-8.216L160.747,238.988z M160.595,234.752c-3.396,4.8-15.216,9.14-31.568,9.14
				c-16.348,0-28.164-4.34-31.568-9.136l0.936-24.564c3.568,4.72,12.824,8.628,30.628,8.628c17.808,0,27.064-3.912,30.632-8.636
				L160.595,234.752z M159.579,208.172c-2.412,5.008-11.292,9.516-30.552,9.516c-19.252,0-28.132-4.5-30.552-9.504l0.508-13.32
				c3.94,4.396,13.136,7.924,30.044,7.924c16.916,0,26.108-3.532,30.044-7.932L159.579,208.172z M159.007,193.132
				c-3.076,4.596-12.008,8.524-29.98,8.524c-17.968,0-26.9-3.924-29.98-8.516l0.968-25.352c3.048,4.96,11.708,9.176,29.012,9.176
				c17.304,0,25.964-4.216,29.012-9.176L159.007,193.132z"/>
			<path d="M211.475,14.276c0.076,0,0.152-0.012,0.228-0.048l22.88-9.956c0.284-0.124,0.416-0.46,0.292-0.748
				c-0.124-0.284-0.452-0.42-0.748-0.292l-22.88,9.956c-0.284,0.124-0.416,0.46-0.292,0.748
				C211.047,14.148,211.255,14.276,211.475,14.276z"/>
			<path d="M161.671,35.952c0.076,0,0.152-0.012,0.228-0.048l43.932-19.12c0.284-0.124,0.416-0.46,0.292-0.748
				c-0.124-0.284-0.452-0.424-0.748-0.292l-43.932,19.12c-0.284,0.124-0.416,0.46-0.292,0.748
				C161.243,35.828,161.451,35.952,161.671,35.952z"/>
			<path d="M235.367,79.892l-46.344-18.756c-0.272-0.116-0.62,0.02-0.74,0.312s0.024,0.62,0.316,0.74l46.344,18.756
				c0.068,0.028,0.14,0.04,0.212,0.04c0.224,0,0.436-0.132,0.528-0.352C235.799,80.34,235.659,80.008,235.367,79.892z"/>
			<path d="M183.147,58.756l-22.068-8.932c-0.276-0.12-0.62,0.024-0.74,0.312c-0.116,0.292,0.024,0.62,0.316,0.74l22.068,8.932
				c0.068,0.028,0.14,0.04,0.212,0.04c0.224,0,0.436-0.132,0.528-0.352C183.579,59.204,183.439,58.872,183.147,58.756z"/>
			<path d="M162.063,41.932c-0.316,0-0.568,0.248-0.572,0.56c-0.004,0.316,0.248,0.572,0.564,0.572l50.324,0.464h0.004
				c0.312,0,0.564-0.248,0.568-0.56c0.004-0.316-0.248-0.572-0.564-0.572L162.063,41.932z"/>
			<path d="M46.351,73.004l-22.88,9.956c-0.284,0.124-0.416,0.46-0.292,0.748c0.092,0.212,0.3,0.34,0.52,0.34
				c0.076,0,0.152-0.012,0.228-0.048l22.88-9.956c0.284-0.124,0.416-0.46,0.292-0.748C46.971,73.012,46.643,72.876,46.351,73.004z"
				/>
			<path d="M96.895,51.62c-0.124-0.284-0.456-0.424-0.748-0.292l-43.928,19.12c-0.284,0.124-0.416,0.46-0.292,0.748
				c0.092,0.212,0.3,0.34,0.52,0.34c0.076,0,0.152-0.012,0.228-0.048l43.928-19.12C96.887,52.24,97.023,51.908,96.895,51.62z"/>
			<path d="M69.235,26.14c0.224,0,0.436-0.132,0.528-0.352c0.116-0.292-0.024-0.62-0.316-0.74L23.107,6.292
				c-0.276-0.116-0.62,0.02-0.74,0.312s0.024,0.62,0.316,0.74L69.023,26.1C69.091,26.128,69.167,26.14,69.235,26.14z"/>
			<path d="M74.903,28.48l22.068,8.928c0.068,0.028,0.14,0.04,0.212,0.04c0.224,0,0.436-0.132,0.528-0.352
				c0.116-0.292-0.024-0.62-0.316-0.74l-22.068-8.928c-0.272-0.116-0.62,0.024-0.74,0.312C74.471,28.032,74.611,28.364,74.903,28.48
				z"/>
			<path d="M45.671,43.704c-0.316,0-0.568,0.248-0.572,0.56c-0.004,0.316,0.248,0.572,0.564,0.572L95.987,45.3h0.004
				c0.312,0,0.564-0.248,0.568-0.56c0.004-0.316-0.248-0.572-0.564-0.572L45.671,43.704z"/>
		</g>
	</g>
</g>
</svg>