<?xml version="1.0" encoding="UTF-8"?>
<svg id="Layer_2" data-name="Layer 2" xmlns="http://www.w3.org/2000/svg" viewBox="0 0 283.48 110.63">
  <defs>
    <style>
      .cls-1 {
        fill: #ff7900;
        stroke-width: 0px;
      }
    </style>
  </defs>
  <g id="Layer_1-2" data-name="Layer 1">
    <path class="cls-1" d="M132.73,35.92h-1.48c-1.02,0-1.89.79-1.89,1.81v15.53c0,.93.87,1.73,1.89,1.73h1.48c.87,0,2.13-.24,3.07-1.18.62-.71,1.1-1.73,1.1-3.77v-9.18c0-4-2.75-4.94-4.17-4.94ZM132.73,35.92h-1.48c-1.02,0-1.89.79-1.89,1.81v15.53c0,.93.87,1.73,1.89,1.73h1.48c.87,0,2.13-.24,3.07-1.18.62-.71,1.1-1.73,1.1-3.77v-9.18c0-4-2.75-4.94-4.17-4.94ZM132.73,35.92h-1.48c-1.02,0-1.89.79-1.89,1.81v15.53c0,.93.87,1.73,1.89,1.73h1.48c.87,0,2.13-.24,3.07-1.18.62-.71,1.1-1.73,1.1-3.77v-9.18c0-4-2.75-4.94-4.17-4.94ZM132.73,35.92h-1.48c-1.02,0-1.89.79-1.89,1.81v15.53c0,.93.87,1.73,1.89,1.73h1.48c.87,0,2.13-.24,3.07-1.18.62-.71,1.1-1.73,1.1-3.77v-9.18c0-4-2.75-4.94-4.17-4.94ZM132.73,35.92h-1.48c-1.02,0-1.89.79-1.89,1.81v15.53c0,.93.87,1.73,1.89,1.73h1.48c.87,0,2.13-.24,3.07-1.18.62-.71,1.1-1.73,1.1-3.77v-9.18c0-4-2.75-4.94-4.17-4.94ZM132.73,35.92h-1.48c-1.02,0-1.89.79-1.89,1.81v15.53c0,.93.87,1.73,1.89,1.73h1.48c.87,0,2.13-.24,3.07-1.18.62-.71,1.1-1.73,1.1-3.77v-9.18c0-4-2.75-4.94-4.17-4.94ZM132.73,35.92h-1.48c-1.02,0-1.89.79-1.89,1.81v15.53c0,.93.87,1.73,1.89,1.73h1.48c.87,0,2.13-.24,3.07-1.18.62-.71,1.1-1.73,1.1-3.77v-9.18c0-4-2.75-4.94-4.17-4.94ZM132.73,35.92h-1.48c-1.02,0-1.89.79-1.89,1.81v15.53c0,.93.87,1.73,1.89,1.73h1.48c.87,0,2.13-.24,3.07-1.18.62-.71,1.1-1.73,1.1-3.77v-9.18c0-4-2.75-4.94-4.17-4.94ZM132.73,35.92h-1.48c-1.02,0-1.89.79-1.89,1.81v15.53c0,.93.87,1.73,1.89,1.73h1.48c.87,0,2.13-.24,3.07-1.18.62-.71,1.1-1.73,1.1-3.77v-9.18c0-4-2.75-4.94-4.17-4.94ZM132.73,35.92h-1.48c-1.02,0-1.89.79-1.89,1.81v15.53c0,.93.87,1.73,1.89,1.73h1.48c.87,0,2.13-.24,3.07-1.18.62-.71,1.1-1.73,1.1-3.77v-9.18c0-4-2.75-4.94-4.17-4.94ZM132.73,35.92h-1.48c-1.02,0-1.89.79-1.89,1.81v15.53c0,.93.87,1.73,1.89,1.73h1.48c.87,0,2.13-.24,3.07-1.18.62-.71,1.1-1.73,1.1-3.77v-9.18c0-4-2.75-4.94-4.17-4.94ZM132.73,35.92h-1.48c-1.02,0-1.89.79-1.89,1.81v15.53c0,.93.87,1.73,1.89,1.73h1.48c.87,0,2.13-.24,3.07-1.18.62-.71,1.1-1.73,1.1-3.77v-9.18c0-4-2.75-4.94-4.17-4.94ZM132.73,35.92h-1.48c-1.02,0-1.89.79-1.89,1.81v15.53c0,.93.87,1.73,1.89,1.73h1.48c.87,0,2.13-.24,3.07-1.18.62-.71,1.1-1.73,1.1-3.77v-9.18c0-4-2.75-4.94-4.17-4.94ZM132.73,35.92h-1.48c-1.02,0-1.89.79-1.89,1.81v15.53c0,.93.87,1.73,1.89,1.73h1.48c.87,0,2.13-.24,3.07-1.18.62-.71,1.1-1.73,1.1-3.77v-9.18c0-4-2.75-4.94-4.17-4.94ZM271.96,0H11.52C5.15,0,0,5.16,0,11.52v87.59c0,6.37,5.15,11.52,11.52,11.52h260.44c6.37,0,11.52-5.15,11.52-11.52V11.52c0-6.36-5.15-11.52-11.52-11.52ZM189.99,20.6c0-.15.12-.27.26-.27h.25c1.07-2.85,2.66-4.91,5.71-5.21-.07-.06-.1-.16-.05-.24l.44-.76c-.26-.14-.44-.42-.44-.74,0-.47.38-.85.85-.85s.85.38.85.85c0,.33-.19.62-.47.75l.43.75c.05.08.02.17-.04.23,3.05.29,4.39,2.3,5.69,5.22h.21c.15,0,.27.12.27.27v.39c0,.14-.12.26-.27.26h-13.43c-.14,0-.26-.12-.26-.26v-.39ZM196.54,27.36l-5.42,2.53v-7.76c0-.31.25-.56.55-.56h10.7c.3,0,.54.25.54.56v9.73c0,.3-.24.55-.54.55h-10.7c-.3,0-.55-.25-.55-.55v-.87l5.52-3.43c.12-.07.03-.25-.1-.2ZM154.78,40.31c0-5.73,1.71-9.26,4.86-11.84,2.82-2.27,6.35-3.61,10.2-3.61s7.38,1.34,10.19,3.61c1.6,1.33,2.85,2.89,3.67,4.87l-10.37,4.83c-.2-.63-.52-1.07-.9-1.46-.71-.63-1.65-1.03-2.59-1.03-1.1,0-2.04.48-2.75,1.26-.62.71-1.02,1.57-1.02,3.14v1.47l-11.29,5.26v-6.5ZM46.77,42.66c0,1.73-1.33,3.07-3.05,3.07h-5.19c-1.71,0-3.05-1.34-3.05-3.07v-2.58c0-1.73-.48-2.67-1.18-3.37-.71-.63-1.65-1.03-2.59-1.03-1.1,0-2.04.48-2.75,1.26-.62.71-1.02,1.57-1.02,3.14v35.38c0,1.56.4,2.43,1.02,3.13.71.78,1.65,1.26,2.75,1.26s2.04-.48,2.75-1.26c.62-.7,1.02-1.57,1.02-3.13v-7.46c0-1.34-.56-2.27-1.81-2.74l-.62-.24c-1.18-.47-1.82-1.49-1.82-2.83v-5.4c0-1.72,1.34-3.06,3.07-3.06h9.42c1.72,0,3.05,1.34,3.05,3.06v28.63c0,1.89-.31,2.83-1.01,3.61-.71.78-1.82,1.41-3.14,1.41-1.18,0-1.89-.4-2.83-.86l-.48-.24c-.54-.23-1.09-.47-1.79-.47-1.18,0-2.67.63-3.85,1.02-1.18.39-2.44.55-3.6.55-3.3,0-6.82-1.89-8.55-3.37-3.14-2.59-4.87-6.12-4.87-11.85v-34.91c0-5.73,1.73-9.26,4.87-11.84,2.83-2.27,6.34-3.61,10.19-3.61s7.38,1.34,10.2,3.61c3.14,2.58,4.86,6.11,4.86,11.84v2.35ZM76.82,33.41c0,1.73-1.34,3.06-3.07,3.06h-7.21c-1.09,0-1.89.78-1.89,1.8v12.09c0,1.02.8,1.8,1.89,1.8h5.65c1.72,0,3.05,1.33,3.05,3.05v4.95c0,1.73-1.33,3.05-3.05,3.05h-5.65c-1.09,0-1.89.8-1.89,1.81v12.24c0,1.02.8,1.81,1.89,1.81h7.21c1.73,0,3.07,1.33,3.07,3.05v.98l-15.06,7.02h-5.35c-1.72,0-3.05-1.33-3.05-3.05V28.47c0-1.73,1.33-3.06,3.05-3.06h17.34c1.73,0,3.07,1.33,3.07,3.06v4.94ZM106.61,87.07c-2.81,2.27-6.34,3.61-10.19,3.61-.52,0-1.02-.03-1.52-.08l15.88-9.84c-.78,2.69-2.2,4.68-4.17,6.31ZM111.48,66.97l-11.29,5.26v-32.15c0-1.73-.48-2.67-1.18-3.37-.7-.63-1.64-1.03-2.59-1.03s-1.88.4-2.58,1.03c-.72.7-1.18,1.64-1.18,3.37v35.38c0,.09,0,.17.01.26l-10.63,4.96c-.45-1.56-.69-3.37-.69-5.46v-34.91c0-5.73,1.74-9.26,4.87-11.84,2.83-2.27,6.36-3.61,10.2-3.61s7.38,1.34,10.19,3.61c3.15,2.58,4.87,6.11,4.87,11.84v26.66ZM129.36,87.07c0,1.72-1.32,3.05-3.06,3.05h-5.18c-1.72,0-3.06-1.33-3.06-3.05v-10.82l11.3-6.99v17.81ZM148.19,87.07c0,1.72-1.34,3.05-3.06,3.05h-5.18c-1.72,0-3.05-1.33-3.05-3.05v-16.87c0-2.04-.48-3.06-1.1-3.76-.27-.28-.57-.49-.87-.65l8.51-5.26c.09.3.29.59.6.88l.7.63c3.05,2.75,3.45,6.36,3.45,12.32v12.71ZM148.19,45.33c0,1.67-.03,3.2-.15,4.61l-29.98,13.96V28.47c0-1.73,1.34-3.06,3.06-3.06h12.01c3.85,0,7.38,1.33,10.19,3.61,3.15,2.59,4.87,6.12,4.87,11.84v4.47ZM184.9,85.42c0,1.89-.32,2.83-1.02,3.61-.71.78-1.81,1.41-3.15,1.41-1.17,0-1.87-.4-2.81-.86l-.48-.24c-.54-.23-1.1-.47-1.8-.47-1.17,0-2.67.63-3.85,1.02-1.17.39-2.43.55-3.61.55-3.29,0-6.82-1.89-8.54-3.37-3.15-2.59-4.86-6.12-4.86-11.85v-21.71l11.29-7v28.95c0,1.56.4,2.43,1.02,3.13.71.78,1.65,1.26,2.75,1.26s2.03-.48,2.75-1.26c.62-.7,1.02-1.57,1.02-3.13v-7.46c0-1.34-.56-2.27-1.82-2.74l-.62-.24c-1.17-.47-1.81-1.49-1.81-2.83v-5.4c0-1.72,1.34-3.06,3.07-3.06h9.4c1.73,0,3.07,1.34,3.07,3.06v28.63ZM184.9,42.66c0,1.73-1.34,3.07-3.07,3.07h-5.17c-1.72,0-3.05-1.34-3.05-3.07v-.83l10.69-6.63c.4,1.49.6,3.18.6,5.11v2.35ZM204.35,90.43h-1.92c-.08,0-.15-.01-.22-.02h-10.3s-.07,0-.11,0h-1.92c-.67,0-1.18-.61-1.06-1.28l.95-5.32c.05-.28.19-.49.37-.64v-7.81c0-.57.32-1.06.79-1.3v-32.09l-1.65-3.82c-.38-.9.27-1.9,1.25-1.9h.96v-2.19h-.75c-.21,0-.37-.16-.37-.37v-.54c0-.21.16-.37.37-.37h12.65c.21,0,.37.16.37.37v.54c0,.21-.16.37-.37.37h-.64v2.19h.72c.97,0,1.63,1,1.24,1.9l-1.6,3.7v32.13c.55.22.94.75.94,1.38v7.78c.2.15.35.38.41.68l.95,5.32c.12.66-.39,1.28-1.06,1.28ZM232.82,33.41c0,1.73-1.33,3.06-3.06,3.06h-7.21c-1.1,0-1.89.78-1.89,1.8v12.09c0,1.02.79,1.8,1.89,1.8h5.65c1.71,0,3.05,1.33,3.05,3.05v4.95c0,1.73-1.34,3.05-3.05,3.05h-5.65c-1.1,0-1.89.8-1.89,1.81v12.24c0,1.02.79,1.81,1.89,1.81h7.21c1.73,0,3.06,1.33,3.06,3.05v4.87c0,1.72-1.33,3.13-3.06,3.13h-17.34c-1.72,0-3.06-1.33-3.06-3.05V28.47c0-1.73,1.34-3.06,3.06-3.06h17.34c1.73,0,3.06,1.33,3.06,3.06v4.94ZM236.17,32.58c-.52.64-1.6.27-1.62-.56l-.02-1.39-.03-2.19-.02-.9c-.02-1.65,1.58-2.87,3.22-2.39.05.01.09.03.13.04.05.02.09.03.13.05,1.59.64,2.09,2.6,1.04,3.87l-.57.7-1.38,1.69-.88,1.08ZM267.33,75.22c0,5.73-1.8,9.26-4.94,11.85-2.83,2.27-6.36,3.61-10.19,3.61s-7.38-1.34-10.21-3.61c-3.14-2.59-4.85-6.12-4.85-11.85v-3.93c0-1.72,1.48-3.05,3.21-3.05h5.02c1.72,0,3.06,1.33,3.06,3.05v4.17c0,1.72.4,2.66,1.1,3.37.7.62,1.65,1.02,2.59,1.02,1.1,0,2.11-.48,2.81-1.26.64-.7,1.02-1.57,1.02-3.13v-3.53c0-2.28-.22-3.85-.86-5.03-.78-1.48-2.03-2.43-3.91-3.61l-5.11-3.29c-3.53-2.28-5.88-4.07-7.3-6.82-1.09-2.2-1.63-5.1-1.63-9.34v-3.53c0-5.73,1.71-9.26,4.85-11.84,2.83-2.27,6.36-3.61,10.21-3.61s7.36,1.34,10.19,3.61c3.14,2.58,4.87,6.11,4.87,11.84v3.15c0,1.72-1.57,3.05-3.31,3.05h-4.93c-1.73,0-3.07-1.33-3.07-3.05v-3.38c0-1.73-.46-2.67-1.17-3.37-.7-.63-1.64-1.03-2.58-1.03-1.1,0-2.05.48-2.75,1.26-.62.71-1.02,1.57-1.02,3.14v2.58c0,2.2.32,3.69.86,4.87.71,1.49,1.96,2.43,3.93,3.69l5.09,3.29c3.37,2.2,5.72,3.93,7.14,6.36,1.33,2.2,1.88,5.09,1.88,9.56v4.79ZM132.73,35.92h-1.48c-1.02,0-1.89.79-1.89,1.81v15.53c0,.93.87,1.73,1.89,1.73h1.48c.87,0,2.13-.24,3.07-1.18.62-.71,1.1-1.73,1.1-3.77v-9.18c0-4-2.75-4.94-4.17-4.94ZM132.73,35.92h-1.48c-1.02,0-1.89.79-1.89,1.81v15.53c0,.93.87,1.73,1.89,1.73h1.48c.87,0,2.13-.24,3.07-1.18.62-.71,1.1-1.73,1.1-3.77v-9.18c0-4-2.75-4.94-4.17-4.94ZM132.73,35.92h-1.48c-1.02,0-1.89.79-1.89,1.81v15.53c0,.93.87,1.73,1.89,1.73h1.48c.87,0,2.13-.24,3.07-1.18.62-.71,1.1-1.73,1.1-3.77v-9.18c0-4-2.75-4.94-4.17-4.94ZM132.73,35.92h-1.48c-1.02,0-1.89.79-1.89,1.81v15.53c0,.93.87,1.73,1.89,1.73h1.48c.87,0,2.13-.24,3.07-1.18.62-.71,1.1-1.73,1.1-3.77v-9.18c0-4-2.75-4.94-4.17-4.94ZM132.73,35.92h-1.48c-1.02,0-1.89.79-1.89,1.81v15.53c0,.93.87,1.73,1.89,1.73h1.48c.87,0,2.13-.24,3.07-1.18.62-.71,1.1-1.73,1.1-3.77v-9.18c0-4-2.75-4.94-4.17-4.94ZM132.73,35.92h-1.48c-1.02,0-1.89.79-1.89,1.81v15.53c0,.93.87,1.73,1.89,1.73h1.48c.87,0,2.13-.24,3.07-1.18.62-.71,1.1-1.73,1.1-3.77v-9.18c0-4-2.75-4.94-4.17-4.94ZM132.73,35.92h-1.48c-1.02,0-1.89.79-1.89,1.81v15.53c0,.93.87,1.73,1.89,1.73h1.48c.87,0,2.13-.24,3.07-1.18.62-.71,1.1-1.73,1.1-3.77v-9.18c0-4-2.75-4.94-4.17-4.94ZM132.73,35.92h-1.48c-1.02,0-1.89.79-1.89,1.81v15.53c0,.93.87,1.73,1.89,1.73h1.48c.87,0,2.13-.24,3.07-1.18.62-.71,1.1-1.73,1.1-3.77v-9.18c0-4-2.75-4.94-4.17-4.94ZM132.73,35.92h-1.48c-1.02,0-1.89.79-1.89,1.81v15.53c0,.93.87,1.73,1.89,1.73h1.48c.87,0,2.13-.24,3.07-1.18.62-.71,1.1-1.73,1.1-3.77v-9.18c0-4-2.75-4.94-4.17-4.94ZM132.73,35.92h-1.48c-1.02,0-1.89.79-1.89,1.81v15.53c0,.93.87,1.73,1.89,1.73h1.48c.87,0,2.13-.24,3.07-1.18.62-.71,1.1-1.73,1.1-3.77v-9.18c0-4-2.75-4.94-4.17-4.94ZM132.73,35.92h-1.48c-1.02,0-1.89.79-1.89,1.81v15.53c0,.93.87,1.73,1.89,1.73h1.48c.87,0,2.13-.24,3.07-1.18.62-.71,1.1-1.73,1.1-3.77v-9.18c0-4-2.75-4.94-4.17-4.94ZM132.73,35.92h-1.48c-1.02,0-1.89.79-1.89,1.81v15.53c0,.93.87,1.73,1.89,1.73h1.48c.87,0,2.13-.24,3.07-1.18.62-.71,1.1-1.73,1.1-3.77v-9.18c0-4-2.75-4.94-4.17-4.94ZM132.73,35.92h-1.48c-1.02,0-1.89.79-1.89,1.81v15.53c0,.93.87,1.73,1.89,1.73h1.48c.87,0,2.13-.24,3.07-1.18.62-.71,1.1-1.73,1.1-3.77v-9.18c0-4-2.75-4.94-4.17-4.94Z"/>
  </g>
</svg>