<?xml version="1.0" encoding="UTF-8"?>
<svg id="Layer_2" data-name="Layer 2" xmlns="http://www.w3.org/2000/svg" viewBox="0 0 250.68 78.15">
  <defs>
    <style>
      .cls-1 {
        fill: #ff7900;
        stroke-width: 0px;
      }
    </style>
  </defs>
  <g id="Layer_1-2" data-name="Layer 1">
    <g>
      <path class="cls-1" d="M221.31,12.71c1.58.64,2.08,2.6,1.04,3.87l-.57.7-1.38,1.69-.88,1.08c-.52.64-1.6.26-1.61-.56l-.02-1.4-.03-2.18v-.9c-.04-1.65,1.56-2.87,3.2-2.39.04.01.09.03.13.04s.09.03.13.05Z"/>
      <path class="cls-1" d="M21.89,33.2h5.18c1.72,0,3.05-1.34,3.05-3.07v-2.35c0-5.73-1.72-9.26-4.87-11.84-2.82-2.27-6.35-3.61-10.2-3.61s-7.37,1.34-10.2,3.61C1.73,18.52,0,22.05,0,27.78v34.91c0,5.73,1.73,9.26,4.87,11.85,1.73,1.48,5.25,3.37,8.56,3.37,1.16,0,2.42-.16,3.6-.56,1.18-.38,2.67-1.02,3.85-1.02.7,0,1.26.24,1.8.48l.48.24c.94.46,1.65.86,2.83.86,1.32,0,2.43-.63,3.13-1.41.7-.78,1.02-1.72,1.02-3.61v-28.63c0-1.72-1.34-3.05-3.05-3.05h-9.42c-1.73,0-3.07,1.34-3.07,3.05v5.41c0,1.34.63,2.35,1.81,2.83l.62.24c1.26.46,1.81,1.4,1.81,2.74v7.46c0,1.56-.4,2.43-1.02,3.13-.71.78-1.65,1.26-2.75,1.26s-2.04-.48-2.75-1.26c-.62-.7-1.02-1.57-1.02-3.13V27.55c0-1.57.4-2.43,1.02-3.15.71-.78,1.65-1.26,2.75-1.26.94,0,1.88.4,2.59,1.03.7.7,1.18,1.64,1.18,3.37v2.58c0,1.73,1.34,3.07,3.05,3.07Z"/>
      <path class="cls-1" d="M49.89,23.94h7.21c1.73,0,3.07-1.34,3.07-3.07v-4.93c0-1.73-1.34-3.07-3.07-3.07h-17.34c-1.72,0-3.05,1.34-3.05,3.07v58.6c0,1.72,1.34,3.05,3.05,3.05h5.34l15.06-7.02v-.98c0-1.72-1.34-3.05-3.07-3.05h-7.21c-1.1,0-1.89-.79-1.89-1.81v-12.23c0-1.02.79-1.81,1.89-1.81h5.65c1.72,0,3.05-1.32,3.05-3.05v-4.95c0-1.72-1.34-3.05-3.05-3.05h-5.65c-1.1,0-1.89-.78-1.89-1.8v-12.09c0-1.02.79-1.8,1.89-1.8Z"/>
      <path class="cls-1" d="M78.25,78.07c.5.05,1.01.08,1.52.08,3.85,0,7.38-1.34,10.2-3.61,1.97-1.63,3.39-3.62,4.17-6.31l-15.88,9.84ZM89.96,15.94c-2.82-2.27-6.35-3.61-10.2-3.61s-7.37,1.34-10.2,3.61c-3.13,2.58-4.87,6.11-4.87,11.84v34.91c0,2.09.24,3.9.69,5.46l10.63-4.96c-.01-.09-.01-.17-.01-.26V27.55c0-1.73.46-2.67,1.18-3.37.7-.63,1.64-1.03,2.58-1.03s1.89.4,2.59,1.03c.7.7,1.18,1.64,1.18,3.37v32.15l11.29-5.26v-26.66c0-5.73-1.72-9.26-4.87-11.84Z"/>
      <path class="cls-1" d="M128.09,49.5l-.7-.62c-.3-.29-.5-.58-.6-.89l-8.52,5.26c.3.16.61.37.87.65.62.7,1.1,1.72,1.1,3.76v16.87c0,1.72,1.34,3.05,3.05,3.05h5.18c1.72,0,3.05-1.34,3.05-3.05v-12.71c0-5.96-.4-9.57-3.45-12.32ZM126.67,16.48c-2.82-2.27-6.35-3.61-10.2-3.61h-12.01c-1.72,0-3.05,1.34-3.05,3.07v35.43l29.98-13.96c.12-1.4.15-2.94.15-4.6v-4.47c0-5.73-1.72-9.26-4.87-11.85ZM120.25,37.51c0,2.04-.48,3.05-1.1,3.77-.94.94-2.2,1.18-3.07,1.18h-1.48c-1.02,0-1.89-.79-1.89-1.73v-15.53c0-1.02.87-1.81,1.89-1.81h1.48c1.41,0,4.17.94,4.17,4.95v9.18ZM101.42,63.72v10.82c0,1.72,1.34,3.05,3.05,3.05h5.18c1.73,0,3.05-1.34,3.05-3.05v-17.81l-11.29,7Z"/>
      <path class="cls-1" d="M163.38,15.94c-2.82-2.27-6.35-3.61-10.2-3.61s-7.38,1.34-10.2,3.61c-3.15,2.58-4.87,6.11-4.87,11.84v6.51l11.29-5.26v-1.47c0-1.57.4-2.43,1.02-3.15.71-.78,1.65-1.26,2.75-1.26.94,0,1.88.4,2.59,1.03.38.38.7.83.9,1.45l10.37-4.83c-.82-1.98-2.06-3.54-3.66-4.87ZM167.66,22.67l-10.7,6.63v.83c0,1.73,1.34,3.07,3.05,3.07h5.17c1.73,0,3.07-1.34,3.07-3.07v-2.35c0-1.93-.2-3.62-.6-5.1ZM165.18,41.2h-9.4c-1.73,0-3.07,1.34-3.07,3.05v5.41c0,1.34.63,2.35,1.81,2.83l.62.24c1.26.46,1.81,1.4,1.81,2.74v7.46c0,1.56-.4,2.43-1.02,3.13-.71.78-1.65,1.26-2.75,1.26s-2.04-.48-2.75-1.26c-.62-.7-1.02-1.57-1.02-3.13v-28.95l-11.29,7v21.71c0,5.73,1.72,9.26,4.87,11.85,1.72,1.48,5.25,3.37,8.54,3.37,1.18,0,2.43-.16,3.61-.56,1.18-.38,2.67-1.02,3.85-1.02.7,0,1.26.24,1.8.48l.48.24c.94.46,1.64.86,2.82.86,1.34,0,2.43-.63,3.15-1.41.7-.78,1.02-1.72,1.02-3.61v-28.63c0-1.72-1.34-3.05-3.07-3.05Z"/>
      <path class="cls-1" d="M205.9,23.94h7.21c1.73,0,3.07-1.34,3.07-3.07v-4.93c0-1.73-1.34-3.07-3.07-3.07h-17.34c-1.72,0-3.05,1.34-3.05,3.07v58.6c0,1.72,1.34,3.05,3.05,3.05h17.34c1.73,0,3.07-1.41,3.07-3.13v-4.87c0-1.72-1.34-3.05-3.07-3.05h-7.21c-1.1,0-1.89-.79-1.89-1.81v-12.23c0-1.02.79-1.81,1.89-1.81h5.65c1.72,0,3.05-1.32,3.05-3.05v-4.95c0-1.72-1.34-3.05-3.05-3.05h-5.65c-1.1,0-1.89-.78-1.89-1.8v-12.09c0-1.02.79-1.8,1.89-1.8Z"/>
      <path class="cls-1" d="M248.8,48.34c-1.41-2.43-3.77-4.17-7.14-6.36l-5.09-3.29c-1.97-1.26-3.21-2.2-3.93-3.69-.54-1.18-.86-2.67-.86-4.87v-2.58c0-1.57.4-2.43,1.02-3.15.7-.78,1.65-1.26,2.75-1.26.94,0,1.88.4,2.58,1.03.71.7,1.18,1.64,1.18,3.37v3.37c0,1.72,1.34,3.05,3.07,3.05h4.93c1.73,0,3.31-1.34,3.31-3.05v-3.15c0-5.73-1.73-9.26-4.87-11.84-2.83-2.27-6.36-3.61-10.2-3.61s-7.38,1.34-10.21,3.61c-3.13,2.58-4.85,6.11-4.85,11.84v3.53c0,4.24.54,7.14,1.64,9.34,1.41,2.75,3.77,4.55,7.3,6.82l5.1,3.29c1.88,1.18,3.13,2.13,3.91,3.61.63,1.18.86,2.75.86,5.03v3.53c0,1.56-.38,2.43-1.02,3.13-.7.78-1.72,1.26-2.82,1.26-.94,0-1.89-.4-2.59-1.02-.7-.71-1.1-1.65-1.1-3.37v-4.17c0-1.72-1.34-3.05-3.05-3.05h-5.03c-1.73,0-3.21,1.34-3.21,3.05v3.93c0,5.73,1.72,9.26,4.85,11.85,2.83,2.27,6.36,3.61,10.21,3.61s7.37-1.34,10.2-3.61c3.13-2.59,4.93-6.12,4.93-11.85v-4.79c0-4.47-.54-7.37-1.88-9.56Z"/>
      <rect class="cls-1" x="174.28" y="28.22" width="12.18" height="43"/>
      <path class="cls-1" d="M181.6,40.61l6.47-14.98c.39-.9-.27-1.9-1.25-1.9h-12.93c-.98,0-1.63,1-1.25,1.9l6.47,14.98c.47,1.09,2.02,1.09,2.49,0Z"/>
      <rect class="cls-1" x="173.49" y="61.35" width="13.9" height="16.53" rx="1.49" ry="1.49"/>
      <path class="cls-1" d="M175.26,71.29l.96,5.32c.12.66-.39,1.28-1.07,1.28h-1.91c-.68,0-1.19-.61-1.07-1.28l.96-5.32c.21-1.19,1.92-1.19,2.13,0Z"/>
      <path class="cls-1" d="M187.81,71.29l.96,5.32c.12.66-.39,1.28-1.07,1.28h-1.91c-.68,0-1.19-.61-1.07-1.28l.96-5.32c.21-1.19,1.92-1.19,2.13,0Z"/>
      <rect class="cls-1" x="174.84" y="20.57" width="11.27" height="6.42"/>
      <path class="cls-1" d="M186.26,9.59v9.73c0,.3-.24.56-.54.56h-10.7c-.3,0-.56-.25-.56-.56v-.87l5.53-3.43c.12-.07.03-.25-.11-.2l-5.42,2.53v-7.76c0-.3.25-.56.56-.56h10.7c.3,0,.54.25.54.56Z"/>
      <rect class="cls-1" x="173.72" y="20.25" width="13.4" height="1.29" rx=".37" ry=".37"/>
      <rect class="cls-1" x="173.34" y="7.8" width="13.96" height=".92" rx=".26" ry=".26"/>
      <path class="cls-1" d="M180.39,2.54c3.76.01,5.17,2.32,6.65,5.74l-13.34-.09h0c1.17-3.31,2.95-5.67,6.69-5.65Z"/>
      <circle class="cls-1" cx="180.36" cy=".85" r=".85"/>
      <path class="cls-1" d="M180.19,1.19l-.67,1.16c-.07.12.02.27.16.27h1.34c.14,0,.23-.15.16-.27l-.67-1.16c-.07-.12-.25-.12-.32,0Z"/>
    </g>
  </g>
</svg>